%TF.GenerationSoftware,KiCad,Pcbnew,7.0.2*%
%TF.CreationDate,2024-06-06T15:53:54-07:00*%
%TF.ProjectId,argonCartMotorDesignV2,6172676f-6e43-4617-9274-4d6f746f7244,rev?*%
%TF.SameCoordinates,Original*%
%TF.FileFunction,Legend,Top*%
%TF.FilePolarity,Positive*%
%FSLAX46Y46*%
G04 Gerber Fmt 4.6, Leading zero omitted, Abs format (unit mm)*
G04 Created by KiCad (PCBNEW 7.0.2) date 2024-06-06 15:53:54*
%MOMM*%
%LPD*%
G01*
G04 APERTURE LIST*
%ADD10C,0.150000*%
%ADD11C,0.100000*%
%ADD12C,0.120000*%
%ADD13C,0.127000*%
%ADD14C,0.200000*%
G04 APERTURE END LIST*
D10*
X121316666Y-104587619D02*
X121316666Y-104063809D01*
X121316666Y-104063809D02*
X121269047Y-103968571D01*
X121269047Y-103968571D02*
X121173809Y-103920952D01*
X121173809Y-103920952D02*
X120983333Y-103920952D01*
X120983333Y-103920952D02*
X120888095Y-103968571D01*
X121316666Y-104540000D02*
X121221428Y-104587619D01*
X121221428Y-104587619D02*
X120983333Y-104587619D01*
X120983333Y-104587619D02*
X120888095Y-104540000D01*
X120888095Y-104540000D02*
X120840476Y-104444761D01*
X120840476Y-104444761D02*
X120840476Y-104349523D01*
X120840476Y-104349523D02*
X120888095Y-104254285D01*
X120888095Y-104254285D02*
X120983333Y-104206666D01*
X120983333Y-104206666D02*
X121221428Y-104206666D01*
X121221428Y-104206666D02*
X121316666Y-104159047D01*
X121792857Y-104587619D02*
X121792857Y-103920952D01*
X121792857Y-104111428D02*
X121840476Y-104016190D01*
X121840476Y-104016190D02*
X121888095Y-103968571D01*
X121888095Y-103968571D02*
X121983333Y-103920952D01*
X121983333Y-103920952D02*
X122078571Y-103920952D01*
X122840476Y-103920952D02*
X122840476Y-104730476D01*
X122840476Y-104730476D02*
X122792857Y-104825714D01*
X122792857Y-104825714D02*
X122745238Y-104873333D01*
X122745238Y-104873333D02*
X122650000Y-104920952D01*
X122650000Y-104920952D02*
X122507143Y-104920952D01*
X122507143Y-104920952D02*
X122411905Y-104873333D01*
X122840476Y-104540000D02*
X122745238Y-104587619D01*
X122745238Y-104587619D02*
X122554762Y-104587619D01*
X122554762Y-104587619D02*
X122459524Y-104540000D01*
X122459524Y-104540000D02*
X122411905Y-104492380D01*
X122411905Y-104492380D02*
X122364286Y-104397142D01*
X122364286Y-104397142D02*
X122364286Y-104111428D01*
X122364286Y-104111428D02*
X122411905Y-104016190D01*
X122411905Y-104016190D02*
X122459524Y-103968571D01*
X122459524Y-103968571D02*
X122554762Y-103920952D01*
X122554762Y-103920952D02*
X122745238Y-103920952D01*
X122745238Y-103920952D02*
X122840476Y-103968571D01*
X123459524Y-104587619D02*
X123364286Y-104540000D01*
X123364286Y-104540000D02*
X123316667Y-104492380D01*
X123316667Y-104492380D02*
X123269048Y-104397142D01*
X123269048Y-104397142D02*
X123269048Y-104111428D01*
X123269048Y-104111428D02*
X123316667Y-104016190D01*
X123316667Y-104016190D02*
X123364286Y-103968571D01*
X123364286Y-103968571D02*
X123459524Y-103920952D01*
X123459524Y-103920952D02*
X123602381Y-103920952D01*
X123602381Y-103920952D02*
X123697619Y-103968571D01*
X123697619Y-103968571D02*
X123745238Y-104016190D01*
X123745238Y-104016190D02*
X123792857Y-104111428D01*
X123792857Y-104111428D02*
X123792857Y-104397142D01*
X123792857Y-104397142D02*
X123745238Y-104492380D01*
X123745238Y-104492380D02*
X123697619Y-104540000D01*
X123697619Y-104540000D02*
X123602381Y-104587619D01*
X123602381Y-104587619D02*
X123459524Y-104587619D01*
X124221429Y-103920952D02*
X124221429Y-104587619D01*
X124221429Y-104016190D02*
X124269048Y-103968571D01*
X124269048Y-103968571D02*
X124364286Y-103920952D01*
X124364286Y-103920952D02*
X124507143Y-103920952D01*
X124507143Y-103920952D02*
X124602381Y-103968571D01*
X124602381Y-103968571D02*
X124650000Y-104063809D01*
X124650000Y-104063809D02*
X124650000Y-104587619D01*
X125697619Y-104492380D02*
X125650000Y-104540000D01*
X125650000Y-104540000D02*
X125507143Y-104587619D01*
X125507143Y-104587619D02*
X125411905Y-104587619D01*
X125411905Y-104587619D02*
X125269048Y-104540000D01*
X125269048Y-104540000D02*
X125173810Y-104444761D01*
X125173810Y-104444761D02*
X125126191Y-104349523D01*
X125126191Y-104349523D02*
X125078572Y-104159047D01*
X125078572Y-104159047D02*
X125078572Y-104016190D01*
X125078572Y-104016190D02*
X125126191Y-103825714D01*
X125126191Y-103825714D02*
X125173810Y-103730476D01*
X125173810Y-103730476D02*
X125269048Y-103635238D01*
X125269048Y-103635238D02*
X125411905Y-103587619D01*
X125411905Y-103587619D02*
X125507143Y-103587619D01*
X125507143Y-103587619D02*
X125650000Y-103635238D01*
X125650000Y-103635238D02*
X125697619Y-103682857D01*
X126554762Y-104587619D02*
X126554762Y-104063809D01*
X126554762Y-104063809D02*
X126507143Y-103968571D01*
X126507143Y-103968571D02*
X126411905Y-103920952D01*
X126411905Y-103920952D02*
X126221429Y-103920952D01*
X126221429Y-103920952D02*
X126126191Y-103968571D01*
X126554762Y-104540000D02*
X126459524Y-104587619D01*
X126459524Y-104587619D02*
X126221429Y-104587619D01*
X126221429Y-104587619D02*
X126126191Y-104540000D01*
X126126191Y-104540000D02*
X126078572Y-104444761D01*
X126078572Y-104444761D02*
X126078572Y-104349523D01*
X126078572Y-104349523D02*
X126126191Y-104254285D01*
X126126191Y-104254285D02*
X126221429Y-104206666D01*
X126221429Y-104206666D02*
X126459524Y-104206666D01*
X126459524Y-104206666D02*
X126554762Y-104159047D01*
X127030953Y-104587619D02*
X127030953Y-103920952D01*
X127030953Y-104111428D02*
X127078572Y-104016190D01*
X127078572Y-104016190D02*
X127126191Y-103968571D01*
X127126191Y-103968571D02*
X127221429Y-103920952D01*
X127221429Y-103920952D02*
X127316667Y-103920952D01*
X127507144Y-103920952D02*
X127888096Y-103920952D01*
X127650001Y-103587619D02*
X127650001Y-104444761D01*
X127650001Y-104444761D02*
X127697620Y-104540000D01*
X127697620Y-104540000D02*
X127792858Y-104587619D01*
X127792858Y-104587619D02*
X127888096Y-104587619D01*
X128221430Y-104587619D02*
X128221430Y-103587619D01*
X128221430Y-103587619D02*
X128554763Y-104301904D01*
X128554763Y-104301904D02*
X128888096Y-103587619D01*
X128888096Y-103587619D02*
X128888096Y-104587619D01*
X129507144Y-104587619D02*
X129411906Y-104540000D01*
X129411906Y-104540000D02*
X129364287Y-104492380D01*
X129364287Y-104492380D02*
X129316668Y-104397142D01*
X129316668Y-104397142D02*
X129316668Y-104111428D01*
X129316668Y-104111428D02*
X129364287Y-104016190D01*
X129364287Y-104016190D02*
X129411906Y-103968571D01*
X129411906Y-103968571D02*
X129507144Y-103920952D01*
X129507144Y-103920952D02*
X129650001Y-103920952D01*
X129650001Y-103920952D02*
X129745239Y-103968571D01*
X129745239Y-103968571D02*
X129792858Y-104016190D01*
X129792858Y-104016190D02*
X129840477Y-104111428D01*
X129840477Y-104111428D02*
X129840477Y-104397142D01*
X129840477Y-104397142D02*
X129792858Y-104492380D01*
X129792858Y-104492380D02*
X129745239Y-104540000D01*
X129745239Y-104540000D02*
X129650001Y-104587619D01*
X129650001Y-104587619D02*
X129507144Y-104587619D01*
X130126192Y-103920952D02*
X130507144Y-103920952D01*
X130269049Y-103587619D02*
X130269049Y-104444761D01*
X130269049Y-104444761D02*
X130316668Y-104540000D01*
X130316668Y-104540000D02*
X130411906Y-104587619D01*
X130411906Y-104587619D02*
X130507144Y-104587619D01*
X130983335Y-104587619D02*
X130888097Y-104540000D01*
X130888097Y-104540000D02*
X130840478Y-104492380D01*
X130840478Y-104492380D02*
X130792859Y-104397142D01*
X130792859Y-104397142D02*
X130792859Y-104111428D01*
X130792859Y-104111428D02*
X130840478Y-104016190D01*
X130840478Y-104016190D02*
X130888097Y-103968571D01*
X130888097Y-103968571D02*
X130983335Y-103920952D01*
X130983335Y-103920952D02*
X131126192Y-103920952D01*
X131126192Y-103920952D02*
X131221430Y-103968571D01*
X131221430Y-103968571D02*
X131269049Y-104016190D01*
X131269049Y-104016190D02*
X131316668Y-104111428D01*
X131316668Y-104111428D02*
X131316668Y-104397142D01*
X131316668Y-104397142D02*
X131269049Y-104492380D01*
X131269049Y-104492380D02*
X131221430Y-104540000D01*
X131221430Y-104540000D02*
X131126192Y-104587619D01*
X131126192Y-104587619D02*
X130983335Y-104587619D01*
X131745240Y-104587619D02*
X131745240Y-103920952D01*
X131745240Y-104111428D02*
X131792859Y-104016190D01*
X131792859Y-104016190D02*
X131840478Y-103968571D01*
X131840478Y-103968571D02*
X131935716Y-103920952D01*
X131935716Y-103920952D02*
X132030954Y-103920952D01*
X132364288Y-104587619D02*
X132364288Y-103587619D01*
X132364288Y-103587619D02*
X132602383Y-103587619D01*
X132602383Y-103587619D02*
X132745240Y-103635238D01*
X132745240Y-103635238D02*
X132840478Y-103730476D01*
X132840478Y-103730476D02*
X132888097Y-103825714D01*
X132888097Y-103825714D02*
X132935716Y-104016190D01*
X132935716Y-104016190D02*
X132935716Y-104159047D01*
X132935716Y-104159047D02*
X132888097Y-104349523D01*
X132888097Y-104349523D02*
X132840478Y-104444761D01*
X132840478Y-104444761D02*
X132745240Y-104540000D01*
X132745240Y-104540000D02*
X132602383Y-104587619D01*
X132602383Y-104587619D02*
X132364288Y-104587619D01*
X133745240Y-104540000D02*
X133650002Y-104587619D01*
X133650002Y-104587619D02*
X133459526Y-104587619D01*
X133459526Y-104587619D02*
X133364288Y-104540000D01*
X133364288Y-104540000D02*
X133316669Y-104444761D01*
X133316669Y-104444761D02*
X133316669Y-104063809D01*
X133316669Y-104063809D02*
X133364288Y-103968571D01*
X133364288Y-103968571D02*
X133459526Y-103920952D01*
X133459526Y-103920952D02*
X133650002Y-103920952D01*
X133650002Y-103920952D02*
X133745240Y-103968571D01*
X133745240Y-103968571D02*
X133792859Y-104063809D01*
X133792859Y-104063809D02*
X133792859Y-104159047D01*
X133792859Y-104159047D02*
X133316669Y-104254285D01*
X134173812Y-104540000D02*
X134269050Y-104587619D01*
X134269050Y-104587619D02*
X134459526Y-104587619D01*
X134459526Y-104587619D02*
X134554764Y-104540000D01*
X134554764Y-104540000D02*
X134602383Y-104444761D01*
X134602383Y-104444761D02*
X134602383Y-104397142D01*
X134602383Y-104397142D02*
X134554764Y-104301904D01*
X134554764Y-104301904D02*
X134459526Y-104254285D01*
X134459526Y-104254285D02*
X134316669Y-104254285D01*
X134316669Y-104254285D02*
X134221431Y-104206666D01*
X134221431Y-104206666D02*
X134173812Y-104111428D01*
X134173812Y-104111428D02*
X134173812Y-104063809D01*
X134173812Y-104063809D02*
X134221431Y-103968571D01*
X134221431Y-103968571D02*
X134316669Y-103920952D01*
X134316669Y-103920952D02*
X134459526Y-103920952D01*
X134459526Y-103920952D02*
X134554764Y-103968571D01*
X135030955Y-104587619D02*
X135030955Y-103920952D01*
X135030955Y-103587619D02*
X134983336Y-103635238D01*
X134983336Y-103635238D02*
X135030955Y-103682857D01*
X135030955Y-103682857D02*
X135078574Y-103635238D01*
X135078574Y-103635238D02*
X135030955Y-103587619D01*
X135030955Y-103587619D02*
X135030955Y-103682857D01*
X135935716Y-103920952D02*
X135935716Y-104730476D01*
X135935716Y-104730476D02*
X135888097Y-104825714D01*
X135888097Y-104825714D02*
X135840478Y-104873333D01*
X135840478Y-104873333D02*
X135745240Y-104920952D01*
X135745240Y-104920952D02*
X135602383Y-104920952D01*
X135602383Y-104920952D02*
X135507145Y-104873333D01*
X135935716Y-104540000D02*
X135840478Y-104587619D01*
X135840478Y-104587619D02*
X135650002Y-104587619D01*
X135650002Y-104587619D02*
X135554764Y-104540000D01*
X135554764Y-104540000D02*
X135507145Y-104492380D01*
X135507145Y-104492380D02*
X135459526Y-104397142D01*
X135459526Y-104397142D02*
X135459526Y-104111428D01*
X135459526Y-104111428D02*
X135507145Y-104016190D01*
X135507145Y-104016190D02*
X135554764Y-103968571D01*
X135554764Y-103968571D02*
X135650002Y-103920952D01*
X135650002Y-103920952D02*
X135840478Y-103920952D01*
X135840478Y-103920952D02*
X135935716Y-103968571D01*
X136411907Y-103920952D02*
X136411907Y-104587619D01*
X136411907Y-104016190D02*
X136459526Y-103968571D01*
X136459526Y-103968571D02*
X136554764Y-103920952D01*
X136554764Y-103920952D02*
X136697621Y-103920952D01*
X136697621Y-103920952D02*
X136792859Y-103968571D01*
X136792859Y-103968571D02*
X136840478Y-104063809D01*
X136840478Y-104063809D02*
X136840478Y-104587619D01*
X137173812Y-103587619D02*
X137507145Y-104587619D01*
X137507145Y-104587619D02*
X137840478Y-103587619D01*
X138126193Y-103682857D02*
X138173812Y-103635238D01*
X138173812Y-103635238D02*
X138269050Y-103587619D01*
X138269050Y-103587619D02*
X138507145Y-103587619D01*
X138507145Y-103587619D02*
X138602383Y-103635238D01*
X138602383Y-103635238D02*
X138650002Y-103682857D01*
X138650002Y-103682857D02*
X138697621Y-103778095D01*
X138697621Y-103778095D02*
X138697621Y-103873333D01*
X138697621Y-103873333D02*
X138650002Y-104016190D01*
X138650002Y-104016190D02*
X138078574Y-104587619D01*
X138078574Y-104587619D02*
X138697621Y-104587619D01*
X120888095Y-106207619D02*
X120888095Y-105540952D01*
X120888095Y-105636190D02*
X120935714Y-105588571D01*
X120935714Y-105588571D02*
X121030952Y-105540952D01*
X121030952Y-105540952D02*
X121173809Y-105540952D01*
X121173809Y-105540952D02*
X121269047Y-105588571D01*
X121269047Y-105588571D02*
X121316666Y-105683809D01*
X121316666Y-105683809D02*
X121316666Y-106207619D01*
X121316666Y-105683809D02*
X121364285Y-105588571D01*
X121364285Y-105588571D02*
X121459523Y-105540952D01*
X121459523Y-105540952D02*
X121602380Y-105540952D01*
X121602380Y-105540952D02*
X121697619Y-105588571D01*
X121697619Y-105588571D02*
X121745238Y-105683809D01*
X121745238Y-105683809D02*
X121745238Y-106207619D01*
X122221428Y-105540952D02*
X122221428Y-106540952D01*
X122221428Y-105588571D02*
X122316666Y-105540952D01*
X122316666Y-105540952D02*
X122507142Y-105540952D01*
X122507142Y-105540952D02*
X122602380Y-105588571D01*
X122602380Y-105588571D02*
X122649999Y-105636190D01*
X122649999Y-105636190D02*
X122697618Y-105731428D01*
X122697618Y-105731428D02*
X122697618Y-106017142D01*
X122697618Y-106017142D02*
X122649999Y-106112380D01*
X122649999Y-106112380D02*
X122602380Y-106160000D01*
X122602380Y-106160000D02*
X122507142Y-106207619D01*
X122507142Y-106207619D02*
X122316666Y-106207619D01*
X122316666Y-106207619D02*
X122221428Y-106160000D01*
X123126190Y-106207619D02*
X123126190Y-105540952D01*
X123126190Y-105731428D02*
X123173809Y-105636190D01*
X123173809Y-105636190D02*
X123221428Y-105588571D01*
X123221428Y-105588571D02*
X123316666Y-105540952D01*
X123316666Y-105540952D02*
X123411904Y-105540952D01*
X124173809Y-106207619D02*
X124173809Y-105683809D01*
X124173809Y-105683809D02*
X124126190Y-105588571D01*
X124126190Y-105588571D02*
X124030952Y-105540952D01*
X124030952Y-105540952D02*
X123840476Y-105540952D01*
X123840476Y-105540952D02*
X123745238Y-105588571D01*
X124173809Y-106160000D02*
X124078571Y-106207619D01*
X124078571Y-106207619D02*
X123840476Y-106207619D01*
X123840476Y-106207619D02*
X123745238Y-106160000D01*
X123745238Y-106160000D02*
X123697619Y-106064761D01*
X123697619Y-106064761D02*
X123697619Y-105969523D01*
X123697619Y-105969523D02*
X123745238Y-105874285D01*
X123745238Y-105874285D02*
X123840476Y-105826666D01*
X123840476Y-105826666D02*
X124078571Y-105826666D01*
X124078571Y-105826666D02*
X124173809Y-105779047D01*
X124507143Y-105540952D02*
X124888095Y-105540952D01*
X124650000Y-105207619D02*
X124650000Y-106064761D01*
X124650000Y-106064761D02*
X124697619Y-106160000D01*
X124697619Y-106160000D02*
X124792857Y-106207619D01*
X124792857Y-106207619D02*
X124888095Y-106207619D01*
X125602381Y-106160000D02*
X125507143Y-106207619D01*
X125507143Y-106207619D02*
X125316667Y-106207619D01*
X125316667Y-106207619D02*
X125221429Y-106160000D01*
X125221429Y-106160000D02*
X125173810Y-106064761D01*
X125173810Y-106064761D02*
X125173810Y-105683809D01*
X125173810Y-105683809D02*
X125221429Y-105588571D01*
X125221429Y-105588571D02*
X125316667Y-105540952D01*
X125316667Y-105540952D02*
X125507143Y-105540952D01*
X125507143Y-105540952D02*
X125602381Y-105588571D01*
X125602381Y-105588571D02*
X125650000Y-105683809D01*
X125650000Y-105683809D02*
X125650000Y-105779047D01*
X125650000Y-105779047D02*
X125173810Y-105874285D01*
X126078572Y-106207619D02*
X126078572Y-105540952D01*
X126078572Y-105731428D02*
X126126191Y-105636190D01*
X126126191Y-105636190D02*
X126173810Y-105588571D01*
X126173810Y-105588571D02*
X126269048Y-105540952D01*
X126269048Y-105540952D02*
X126364286Y-105540952D01*
X127316667Y-105731428D02*
X127269048Y-105683809D01*
X127269048Y-105683809D02*
X127173810Y-105636190D01*
X127173810Y-105636190D02*
X127078572Y-105636190D01*
X127078572Y-105636190D02*
X126983334Y-105683809D01*
X126983334Y-105683809D02*
X126935715Y-105731428D01*
X126935715Y-105731428D02*
X126888096Y-105826666D01*
X126888096Y-105826666D02*
X126888096Y-105921904D01*
X126888096Y-105921904D02*
X126935715Y-106017142D01*
X126935715Y-106017142D02*
X126983334Y-106064761D01*
X126983334Y-106064761D02*
X127078572Y-106112380D01*
X127078572Y-106112380D02*
X127173810Y-106112380D01*
X127173810Y-106112380D02*
X127269048Y-106064761D01*
X127269048Y-106064761D02*
X127316667Y-106017142D01*
X127316667Y-105636190D02*
X127316667Y-106017142D01*
X127316667Y-106017142D02*
X127364286Y-106064761D01*
X127364286Y-106064761D02*
X127411905Y-106064761D01*
X127411905Y-106064761D02*
X127507144Y-106017142D01*
X127507144Y-106017142D02*
X127554763Y-105921904D01*
X127554763Y-105921904D02*
X127554763Y-105683809D01*
X127554763Y-105683809D02*
X127459525Y-105540952D01*
X127459525Y-105540952D02*
X127316667Y-105445714D01*
X127316667Y-105445714D02*
X127126191Y-105398095D01*
X127126191Y-105398095D02*
X126935715Y-105445714D01*
X126935715Y-105445714D02*
X126792858Y-105540952D01*
X126792858Y-105540952D02*
X126697620Y-105683809D01*
X126697620Y-105683809D02*
X126650001Y-105874285D01*
X126650001Y-105874285D02*
X126697620Y-106064761D01*
X126697620Y-106064761D02*
X126792858Y-106207619D01*
X126792858Y-106207619D02*
X126935715Y-106302857D01*
X126935715Y-106302857D02*
X127126191Y-106350476D01*
X127126191Y-106350476D02*
X127316667Y-106302857D01*
X127316667Y-106302857D02*
X127459525Y-106207619D01*
X128411905Y-105540952D02*
X128411905Y-106207619D01*
X127983334Y-105540952D02*
X127983334Y-106064761D01*
X127983334Y-106064761D02*
X128030953Y-106160000D01*
X128030953Y-106160000D02*
X128126191Y-106207619D01*
X128126191Y-106207619D02*
X128269048Y-106207619D01*
X128269048Y-106207619D02*
X128364286Y-106160000D01*
X128364286Y-106160000D02*
X128411905Y-106112380D01*
X129316667Y-106207619D02*
X129316667Y-105683809D01*
X129316667Y-105683809D02*
X129269048Y-105588571D01*
X129269048Y-105588571D02*
X129173810Y-105540952D01*
X129173810Y-105540952D02*
X128983334Y-105540952D01*
X128983334Y-105540952D02*
X128888096Y-105588571D01*
X129316667Y-106160000D02*
X129221429Y-106207619D01*
X129221429Y-106207619D02*
X128983334Y-106207619D01*
X128983334Y-106207619D02*
X128888096Y-106160000D01*
X128888096Y-106160000D02*
X128840477Y-106064761D01*
X128840477Y-106064761D02*
X128840477Y-105969523D01*
X128840477Y-105969523D02*
X128888096Y-105874285D01*
X128888096Y-105874285D02*
X128983334Y-105826666D01*
X128983334Y-105826666D02*
X129221429Y-105826666D01*
X129221429Y-105826666D02*
X129316667Y-105779047D01*
X129650001Y-105540952D02*
X130030953Y-105540952D01*
X129792858Y-105207619D02*
X129792858Y-106064761D01*
X129792858Y-106064761D02*
X129840477Y-106160000D01*
X129840477Y-106160000D02*
X129935715Y-106207619D01*
X129935715Y-106207619D02*
X130030953Y-106207619D01*
X130364287Y-106112380D02*
X130411906Y-106160000D01*
X130411906Y-106160000D02*
X130364287Y-106207619D01*
X130364287Y-106207619D02*
X130316668Y-106160000D01*
X130316668Y-106160000D02*
X130364287Y-106112380D01*
X130364287Y-106112380D02*
X130364287Y-106207619D01*
X131221429Y-106160000D02*
X131126191Y-106207619D01*
X131126191Y-106207619D02*
X130935715Y-106207619D01*
X130935715Y-106207619D02*
X130840477Y-106160000D01*
X130840477Y-106160000D02*
X130792858Y-106064761D01*
X130792858Y-106064761D02*
X130792858Y-105683809D01*
X130792858Y-105683809D02*
X130840477Y-105588571D01*
X130840477Y-105588571D02*
X130935715Y-105540952D01*
X130935715Y-105540952D02*
X131126191Y-105540952D01*
X131126191Y-105540952D02*
X131221429Y-105588571D01*
X131221429Y-105588571D02*
X131269048Y-105683809D01*
X131269048Y-105683809D02*
X131269048Y-105779047D01*
X131269048Y-105779047D02*
X130792858Y-105874285D01*
X132126191Y-106207619D02*
X132126191Y-105207619D01*
X132126191Y-106160000D02*
X132030953Y-106207619D01*
X132030953Y-106207619D02*
X131840477Y-106207619D01*
X131840477Y-106207619D02*
X131745239Y-106160000D01*
X131745239Y-106160000D02*
X131697620Y-106112380D01*
X131697620Y-106112380D02*
X131650001Y-106017142D01*
X131650001Y-106017142D02*
X131650001Y-105731428D01*
X131650001Y-105731428D02*
X131697620Y-105636190D01*
X131697620Y-105636190D02*
X131745239Y-105588571D01*
X131745239Y-105588571D02*
X131840477Y-105540952D01*
X131840477Y-105540952D02*
X132030953Y-105540952D01*
X132030953Y-105540952D02*
X132126191Y-105588571D01*
X133030953Y-105540952D02*
X133030953Y-106207619D01*
X132602382Y-105540952D02*
X132602382Y-106064761D01*
X132602382Y-106064761D02*
X132650001Y-106160000D01*
X132650001Y-106160000D02*
X132745239Y-106207619D01*
X132745239Y-106207619D02*
X132888096Y-106207619D01*
X132888096Y-106207619D02*
X132983334Y-106160000D01*
X132983334Y-106160000D02*
X133030953Y-106112380D01*
X121459523Y-107827619D02*
X121126190Y-107351428D01*
X120888095Y-107827619D02*
X120888095Y-106827619D01*
X120888095Y-106827619D02*
X121269047Y-106827619D01*
X121269047Y-106827619D02*
X121364285Y-106875238D01*
X121364285Y-106875238D02*
X121411904Y-106922857D01*
X121411904Y-106922857D02*
X121459523Y-107018095D01*
X121459523Y-107018095D02*
X121459523Y-107160952D01*
X121459523Y-107160952D02*
X121411904Y-107256190D01*
X121411904Y-107256190D02*
X121364285Y-107303809D01*
X121364285Y-107303809D02*
X121269047Y-107351428D01*
X121269047Y-107351428D02*
X120888095Y-107351428D01*
X122221428Y-107303809D02*
X122364285Y-107351428D01*
X122364285Y-107351428D02*
X122411904Y-107399047D01*
X122411904Y-107399047D02*
X122459523Y-107494285D01*
X122459523Y-107494285D02*
X122459523Y-107637142D01*
X122459523Y-107637142D02*
X122411904Y-107732380D01*
X122411904Y-107732380D02*
X122364285Y-107780000D01*
X122364285Y-107780000D02*
X122269047Y-107827619D01*
X122269047Y-107827619D02*
X121888095Y-107827619D01*
X121888095Y-107827619D02*
X121888095Y-106827619D01*
X121888095Y-106827619D02*
X122221428Y-106827619D01*
X122221428Y-106827619D02*
X122316666Y-106875238D01*
X122316666Y-106875238D02*
X122364285Y-106922857D01*
X122364285Y-106922857D02*
X122411904Y-107018095D01*
X122411904Y-107018095D02*
X122411904Y-107113333D01*
X122411904Y-107113333D02*
X122364285Y-107208571D01*
X122364285Y-107208571D02*
X122316666Y-107256190D01*
X122316666Y-107256190D02*
X122221428Y-107303809D01*
X122221428Y-107303809D02*
X121888095Y-107303809D01*
X122745238Y-106827619D02*
X123316666Y-106827619D01*
X123030952Y-107827619D02*
X123030952Y-106827619D01*
X123554762Y-106827619D02*
X124173809Y-106827619D01*
X124173809Y-106827619D02*
X123840476Y-107208571D01*
X123840476Y-107208571D02*
X123983333Y-107208571D01*
X123983333Y-107208571D02*
X124078571Y-107256190D01*
X124078571Y-107256190D02*
X124126190Y-107303809D01*
X124126190Y-107303809D02*
X124173809Y-107399047D01*
X124173809Y-107399047D02*
X124173809Y-107637142D01*
X124173809Y-107637142D02*
X124126190Y-107732380D01*
X124126190Y-107732380D02*
X124078571Y-107780000D01*
X124078571Y-107780000D02*
X123983333Y-107827619D01*
X123983333Y-107827619D02*
X123697619Y-107827619D01*
X123697619Y-107827619D02*
X123602381Y-107780000D01*
X123602381Y-107780000D02*
X123554762Y-107732380D01*
X125078571Y-106827619D02*
X124602381Y-106827619D01*
X124602381Y-106827619D02*
X124554762Y-107303809D01*
X124554762Y-107303809D02*
X124602381Y-107256190D01*
X124602381Y-107256190D02*
X124697619Y-107208571D01*
X124697619Y-107208571D02*
X124935714Y-107208571D01*
X124935714Y-107208571D02*
X125030952Y-107256190D01*
X125030952Y-107256190D02*
X125078571Y-107303809D01*
X125078571Y-107303809D02*
X125126190Y-107399047D01*
X125126190Y-107399047D02*
X125126190Y-107637142D01*
X125126190Y-107637142D02*
X125078571Y-107732380D01*
X125078571Y-107732380D02*
X125030952Y-107780000D01*
X125030952Y-107780000D02*
X124935714Y-107827619D01*
X124935714Y-107827619D02*
X124697619Y-107827619D01*
X124697619Y-107827619D02*
X124602381Y-107780000D01*
X124602381Y-107780000D02*
X124554762Y-107732380D01*
X125459524Y-106827619D02*
X126078571Y-106827619D01*
X126078571Y-106827619D02*
X125745238Y-107208571D01*
X125745238Y-107208571D02*
X125888095Y-107208571D01*
X125888095Y-107208571D02*
X125983333Y-107256190D01*
X125983333Y-107256190D02*
X126030952Y-107303809D01*
X126030952Y-107303809D02*
X126078571Y-107399047D01*
X126078571Y-107399047D02*
X126078571Y-107637142D01*
X126078571Y-107637142D02*
X126030952Y-107732380D01*
X126030952Y-107732380D02*
X125983333Y-107780000D01*
X125983333Y-107780000D02*
X125888095Y-107827619D01*
X125888095Y-107827619D02*
X125602381Y-107827619D01*
X125602381Y-107827619D02*
X125507143Y-107780000D01*
X125507143Y-107780000D02*
X125459524Y-107732380D01*
%TO.C,C6*%
X96647380Y-61761666D02*
X96695000Y-61809285D01*
X96695000Y-61809285D02*
X96742619Y-61952142D01*
X96742619Y-61952142D02*
X96742619Y-62047380D01*
X96742619Y-62047380D02*
X96695000Y-62190237D01*
X96695000Y-62190237D02*
X96599761Y-62285475D01*
X96599761Y-62285475D02*
X96504523Y-62333094D01*
X96504523Y-62333094D02*
X96314047Y-62380713D01*
X96314047Y-62380713D02*
X96171190Y-62380713D01*
X96171190Y-62380713D02*
X95980714Y-62333094D01*
X95980714Y-62333094D02*
X95885476Y-62285475D01*
X95885476Y-62285475D02*
X95790238Y-62190237D01*
X95790238Y-62190237D02*
X95742619Y-62047380D01*
X95742619Y-62047380D02*
X95742619Y-61952142D01*
X95742619Y-61952142D02*
X95790238Y-61809285D01*
X95790238Y-61809285D02*
X95837857Y-61761666D01*
X95742619Y-60904523D02*
X95742619Y-61094999D01*
X95742619Y-61094999D02*
X95790238Y-61190237D01*
X95790238Y-61190237D02*
X95837857Y-61237856D01*
X95837857Y-61237856D02*
X95980714Y-61333094D01*
X95980714Y-61333094D02*
X96171190Y-61380713D01*
X96171190Y-61380713D02*
X96552142Y-61380713D01*
X96552142Y-61380713D02*
X96647380Y-61333094D01*
X96647380Y-61333094D02*
X96695000Y-61285475D01*
X96695000Y-61285475D02*
X96742619Y-61190237D01*
X96742619Y-61190237D02*
X96742619Y-60999761D01*
X96742619Y-60999761D02*
X96695000Y-60904523D01*
X96695000Y-60904523D02*
X96647380Y-60856904D01*
X96647380Y-60856904D02*
X96552142Y-60809285D01*
X96552142Y-60809285D02*
X96314047Y-60809285D01*
X96314047Y-60809285D02*
X96218809Y-60856904D01*
X96218809Y-60856904D02*
X96171190Y-60904523D01*
X96171190Y-60904523D02*
X96123571Y-60999761D01*
X96123571Y-60999761D02*
X96123571Y-61190237D01*
X96123571Y-61190237D02*
X96171190Y-61285475D01*
X96171190Y-61285475D02*
X96218809Y-61333094D01*
X96218809Y-61333094D02*
X96314047Y-61380713D01*
%TO.C,U1*%
X86233095Y-68887619D02*
X86233095Y-69697142D01*
X86233095Y-69697142D02*
X86280714Y-69792380D01*
X86280714Y-69792380D02*
X86328333Y-69840000D01*
X86328333Y-69840000D02*
X86423571Y-69887619D01*
X86423571Y-69887619D02*
X86614047Y-69887619D01*
X86614047Y-69887619D02*
X86709285Y-69840000D01*
X86709285Y-69840000D02*
X86756904Y-69792380D01*
X86756904Y-69792380D02*
X86804523Y-69697142D01*
X86804523Y-69697142D02*
X86804523Y-68887619D01*
X87804523Y-69887619D02*
X87233095Y-69887619D01*
X87518809Y-69887619D02*
X87518809Y-68887619D01*
X87518809Y-68887619D02*
X87423571Y-69030476D01*
X87423571Y-69030476D02*
X87328333Y-69125714D01*
X87328333Y-69125714D02*
X87233095Y-69173333D01*
%TO.C,M2*%
X83272619Y-101119523D02*
X82272619Y-101119523D01*
X82272619Y-101119523D02*
X82986904Y-100786190D01*
X82986904Y-100786190D02*
X82272619Y-100452857D01*
X82272619Y-100452857D02*
X83272619Y-100452857D01*
X82367857Y-100024285D02*
X82320238Y-99976666D01*
X82320238Y-99976666D02*
X82272619Y-99881428D01*
X82272619Y-99881428D02*
X82272619Y-99643333D01*
X82272619Y-99643333D02*
X82320238Y-99548095D01*
X82320238Y-99548095D02*
X82367857Y-99500476D01*
X82367857Y-99500476D02*
X82463095Y-99452857D01*
X82463095Y-99452857D02*
X82558333Y-99452857D01*
X82558333Y-99452857D02*
X82701190Y-99500476D01*
X82701190Y-99500476D02*
X83272619Y-100071904D01*
X83272619Y-100071904D02*
X83272619Y-99452857D01*
%TO.C,BT1*%
X143823809Y-72560714D02*
X143871428Y-72417857D01*
X143871428Y-72417857D02*
X143919047Y-72370238D01*
X143919047Y-72370238D02*
X144014285Y-72322619D01*
X144014285Y-72322619D02*
X144157142Y-72322619D01*
X144157142Y-72322619D02*
X144252380Y-72370238D01*
X144252380Y-72370238D02*
X144300000Y-72417857D01*
X144300000Y-72417857D02*
X144347619Y-72513095D01*
X144347619Y-72513095D02*
X144347619Y-72894047D01*
X144347619Y-72894047D02*
X143347619Y-72894047D01*
X143347619Y-72894047D02*
X143347619Y-72560714D01*
X143347619Y-72560714D02*
X143395238Y-72465476D01*
X143395238Y-72465476D02*
X143442857Y-72417857D01*
X143442857Y-72417857D02*
X143538095Y-72370238D01*
X143538095Y-72370238D02*
X143633333Y-72370238D01*
X143633333Y-72370238D02*
X143728571Y-72417857D01*
X143728571Y-72417857D02*
X143776190Y-72465476D01*
X143776190Y-72465476D02*
X143823809Y-72560714D01*
X143823809Y-72560714D02*
X143823809Y-72894047D01*
X143347619Y-72036904D02*
X143347619Y-71465476D01*
X144347619Y-71751190D02*
X143347619Y-71751190D01*
X144347619Y-70608333D02*
X144347619Y-71179761D01*
X144347619Y-70894047D02*
X143347619Y-70894047D01*
X143347619Y-70894047D02*
X143490476Y-70989285D01*
X143490476Y-70989285D02*
X143585714Y-71084523D01*
X143585714Y-71084523D02*
X143633333Y-71179761D01*
%TO.C,M1*%
X91102619Y-62714523D02*
X90102619Y-62714523D01*
X90102619Y-62714523D02*
X90816904Y-62381190D01*
X90816904Y-62381190D02*
X90102619Y-62047857D01*
X90102619Y-62047857D02*
X91102619Y-62047857D01*
X91102619Y-61047857D02*
X91102619Y-61619285D01*
X91102619Y-61333571D02*
X90102619Y-61333571D01*
X90102619Y-61333571D02*
X90245476Y-61428809D01*
X90245476Y-61428809D02*
X90340714Y-61524047D01*
X90340714Y-61524047D02*
X90388333Y-61619285D01*
D11*
%TO.C,U4*%
X106553095Y-60422619D02*
X106553095Y-61232142D01*
X106553095Y-61232142D02*
X106600714Y-61327380D01*
X106600714Y-61327380D02*
X106648333Y-61375000D01*
X106648333Y-61375000D02*
X106743571Y-61422619D01*
X106743571Y-61422619D02*
X106934047Y-61422619D01*
X106934047Y-61422619D02*
X107029285Y-61375000D01*
X107029285Y-61375000D02*
X107076904Y-61327380D01*
X107076904Y-61327380D02*
X107124523Y-61232142D01*
X107124523Y-61232142D02*
X107124523Y-60422619D01*
X108029285Y-60755952D02*
X108029285Y-61422619D01*
X107791190Y-60375000D02*
X107553095Y-61089285D01*
X107553095Y-61089285D02*
X108172142Y-61089285D01*
D10*
%TO.C,C2*%
X142708333Y-90002380D02*
X142660714Y-90050000D01*
X142660714Y-90050000D02*
X142517857Y-90097619D01*
X142517857Y-90097619D02*
X142422619Y-90097619D01*
X142422619Y-90097619D02*
X142279762Y-90050000D01*
X142279762Y-90050000D02*
X142184524Y-89954761D01*
X142184524Y-89954761D02*
X142136905Y-89859523D01*
X142136905Y-89859523D02*
X142089286Y-89669047D01*
X142089286Y-89669047D02*
X142089286Y-89526190D01*
X142089286Y-89526190D02*
X142136905Y-89335714D01*
X142136905Y-89335714D02*
X142184524Y-89240476D01*
X142184524Y-89240476D02*
X142279762Y-89145238D01*
X142279762Y-89145238D02*
X142422619Y-89097619D01*
X142422619Y-89097619D02*
X142517857Y-89097619D01*
X142517857Y-89097619D02*
X142660714Y-89145238D01*
X142660714Y-89145238D02*
X142708333Y-89192857D01*
X143089286Y-89192857D02*
X143136905Y-89145238D01*
X143136905Y-89145238D02*
X143232143Y-89097619D01*
X143232143Y-89097619D02*
X143470238Y-89097619D01*
X143470238Y-89097619D02*
X143565476Y-89145238D01*
X143565476Y-89145238D02*
X143613095Y-89192857D01*
X143613095Y-89192857D02*
X143660714Y-89288095D01*
X143660714Y-89288095D02*
X143660714Y-89383333D01*
X143660714Y-89383333D02*
X143613095Y-89526190D01*
X143613095Y-89526190D02*
X143041667Y-90097619D01*
X143041667Y-90097619D02*
X143660714Y-90097619D01*
%TO.C,M3*%
X132282619Y-62424523D02*
X131282619Y-62424523D01*
X131282619Y-62424523D02*
X131996904Y-62091190D01*
X131996904Y-62091190D02*
X131282619Y-61757857D01*
X131282619Y-61757857D02*
X132282619Y-61757857D01*
X131282619Y-61376904D02*
X131282619Y-60757857D01*
X131282619Y-60757857D02*
X131663571Y-61091190D01*
X131663571Y-61091190D02*
X131663571Y-60948333D01*
X131663571Y-60948333D02*
X131711190Y-60853095D01*
X131711190Y-60853095D02*
X131758809Y-60805476D01*
X131758809Y-60805476D02*
X131854047Y-60757857D01*
X131854047Y-60757857D02*
X132092142Y-60757857D01*
X132092142Y-60757857D02*
X132187380Y-60805476D01*
X132187380Y-60805476D02*
X132235000Y-60853095D01*
X132235000Y-60853095D02*
X132282619Y-60948333D01*
X132282619Y-60948333D02*
X132282619Y-61234047D01*
X132282619Y-61234047D02*
X132235000Y-61329285D01*
X132235000Y-61329285D02*
X132187380Y-61376904D01*
%TO.C,U2*%
X126873095Y-68252619D02*
X126873095Y-69062142D01*
X126873095Y-69062142D02*
X126920714Y-69157380D01*
X126920714Y-69157380D02*
X126968333Y-69205000D01*
X126968333Y-69205000D02*
X127063571Y-69252619D01*
X127063571Y-69252619D02*
X127254047Y-69252619D01*
X127254047Y-69252619D02*
X127349285Y-69205000D01*
X127349285Y-69205000D02*
X127396904Y-69157380D01*
X127396904Y-69157380D02*
X127444523Y-69062142D01*
X127444523Y-69062142D02*
X127444523Y-68252619D01*
X127873095Y-68347857D02*
X127920714Y-68300238D01*
X127920714Y-68300238D02*
X128015952Y-68252619D01*
X128015952Y-68252619D02*
X128254047Y-68252619D01*
X128254047Y-68252619D02*
X128349285Y-68300238D01*
X128349285Y-68300238D02*
X128396904Y-68347857D01*
X128396904Y-68347857D02*
X128444523Y-68443095D01*
X128444523Y-68443095D02*
X128444523Y-68538333D01*
X128444523Y-68538333D02*
X128396904Y-68681190D01*
X128396904Y-68681190D02*
X127825476Y-69252619D01*
X127825476Y-69252619D02*
X128444523Y-69252619D01*
%TO.C,C3*%
X133957380Y-100516666D02*
X134005000Y-100564285D01*
X134005000Y-100564285D02*
X134052619Y-100707142D01*
X134052619Y-100707142D02*
X134052619Y-100802380D01*
X134052619Y-100802380D02*
X134005000Y-100945237D01*
X134005000Y-100945237D02*
X133909761Y-101040475D01*
X133909761Y-101040475D02*
X133814523Y-101088094D01*
X133814523Y-101088094D02*
X133624047Y-101135713D01*
X133624047Y-101135713D02*
X133481190Y-101135713D01*
X133481190Y-101135713D02*
X133290714Y-101088094D01*
X133290714Y-101088094D02*
X133195476Y-101040475D01*
X133195476Y-101040475D02*
X133100238Y-100945237D01*
X133100238Y-100945237D02*
X133052619Y-100802380D01*
X133052619Y-100802380D02*
X133052619Y-100707142D01*
X133052619Y-100707142D02*
X133100238Y-100564285D01*
X133100238Y-100564285D02*
X133147857Y-100516666D01*
X133052619Y-100183332D02*
X133052619Y-99564285D01*
X133052619Y-99564285D02*
X133433571Y-99897618D01*
X133433571Y-99897618D02*
X133433571Y-99754761D01*
X133433571Y-99754761D02*
X133481190Y-99659523D01*
X133481190Y-99659523D02*
X133528809Y-99611904D01*
X133528809Y-99611904D02*
X133624047Y-99564285D01*
X133624047Y-99564285D02*
X133862142Y-99564285D01*
X133862142Y-99564285D02*
X133957380Y-99611904D01*
X133957380Y-99611904D02*
X134005000Y-99659523D01*
X134005000Y-99659523D02*
X134052619Y-99754761D01*
X134052619Y-99754761D02*
X134052619Y-100040475D01*
X134052619Y-100040475D02*
X134005000Y-100135713D01*
X134005000Y-100135713D02*
X133957380Y-100183332D01*
%TO.C,U3*%
X142972619Y-80771904D02*
X143782142Y-80771904D01*
X143782142Y-80771904D02*
X143877380Y-80724285D01*
X143877380Y-80724285D02*
X143925000Y-80676666D01*
X143925000Y-80676666D02*
X143972619Y-80581428D01*
X143972619Y-80581428D02*
X143972619Y-80390952D01*
X143972619Y-80390952D02*
X143925000Y-80295714D01*
X143925000Y-80295714D02*
X143877380Y-80248095D01*
X143877380Y-80248095D02*
X143782142Y-80200476D01*
X143782142Y-80200476D02*
X142972619Y-80200476D01*
X142972619Y-79819523D02*
X142972619Y-79200476D01*
X142972619Y-79200476D02*
X143353571Y-79533809D01*
X143353571Y-79533809D02*
X143353571Y-79390952D01*
X143353571Y-79390952D02*
X143401190Y-79295714D01*
X143401190Y-79295714D02*
X143448809Y-79248095D01*
X143448809Y-79248095D02*
X143544047Y-79200476D01*
X143544047Y-79200476D02*
X143782142Y-79200476D01*
X143782142Y-79200476D02*
X143877380Y-79248095D01*
X143877380Y-79248095D02*
X143925000Y-79295714D01*
X143925000Y-79295714D02*
X143972619Y-79390952D01*
X143972619Y-79390952D02*
X143972619Y-79676666D01*
X143972619Y-79676666D02*
X143925000Y-79771904D01*
X143925000Y-79771904D02*
X143877380Y-79819523D01*
%TO.C,C4*%
X135622380Y-64936666D02*
X135670000Y-64984285D01*
X135670000Y-64984285D02*
X135717619Y-65127142D01*
X135717619Y-65127142D02*
X135717619Y-65222380D01*
X135717619Y-65222380D02*
X135670000Y-65365237D01*
X135670000Y-65365237D02*
X135574761Y-65460475D01*
X135574761Y-65460475D02*
X135479523Y-65508094D01*
X135479523Y-65508094D02*
X135289047Y-65555713D01*
X135289047Y-65555713D02*
X135146190Y-65555713D01*
X135146190Y-65555713D02*
X134955714Y-65508094D01*
X134955714Y-65508094D02*
X134860476Y-65460475D01*
X134860476Y-65460475D02*
X134765238Y-65365237D01*
X134765238Y-65365237D02*
X134717619Y-65222380D01*
X134717619Y-65222380D02*
X134717619Y-65127142D01*
X134717619Y-65127142D02*
X134765238Y-64984285D01*
X134765238Y-64984285D02*
X134812857Y-64936666D01*
X135050952Y-64079523D02*
X135717619Y-64079523D01*
X134670000Y-64317618D02*
X135384285Y-64555713D01*
X135384285Y-64555713D02*
X135384285Y-63936666D01*
%TO.C,C5*%
X96012380Y-104306666D02*
X96060000Y-104354285D01*
X96060000Y-104354285D02*
X96107619Y-104497142D01*
X96107619Y-104497142D02*
X96107619Y-104592380D01*
X96107619Y-104592380D02*
X96060000Y-104735237D01*
X96060000Y-104735237D02*
X95964761Y-104830475D01*
X95964761Y-104830475D02*
X95869523Y-104878094D01*
X95869523Y-104878094D02*
X95679047Y-104925713D01*
X95679047Y-104925713D02*
X95536190Y-104925713D01*
X95536190Y-104925713D02*
X95345714Y-104878094D01*
X95345714Y-104878094D02*
X95250476Y-104830475D01*
X95250476Y-104830475D02*
X95155238Y-104735237D01*
X95155238Y-104735237D02*
X95107619Y-104592380D01*
X95107619Y-104592380D02*
X95107619Y-104497142D01*
X95107619Y-104497142D02*
X95155238Y-104354285D01*
X95155238Y-104354285D02*
X95202857Y-104306666D01*
X95107619Y-103401904D02*
X95107619Y-103878094D01*
X95107619Y-103878094D02*
X95583809Y-103925713D01*
X95583809Y-103925713D02*
X95536190Y-103878094D01*
X95536190Y-103878094D02*
X95488571Y-103782856D01*
X95488571Y-103782856D02*
X95488571Y-103544761D01*
X95488571Y-103544761D02*
X95536190Y-103449523D01*
X95536190Y-103449523D02*
X95583809Y-103401904D01*
X95583809Y-103401904D02*
X95679047Y-103354285D01*
X95679047Y-103354285D02*
X95917142Y-103354285D01*
X95917142Y-103354285D02*
X96012380Y-103401904D01*
X96012380Y-103401904D02*
X96060000Y-103449523D01*
X96060000Y-103449523D02*
X96107619Y-103544761D01*
X96107619Y-103544761D02*
X96107619Y-103782856D01*
X96107619Y-103782856D02*
X96060000Y-103878094D01*
X96060000Y-103878094D02*
X96012380Y-103925713D01*
%TO.C,C1*%
X142708333Y-59422380D02*
X142660714Y-59470000D01*
X142660714Y-59470000D02*
X142517857Y-59517619D01*
X142517857Y-59517619D02*
X142422619Y-59517619D01*
X142422619Y-59517619D02*
X142279762Y-59470000D01*
X142279762Y-59470000D02*
X142184524Y-59374761D01*
X142184524Y-59374761D02*
X142136905Y-59279523D01*
X142136905Y-59279523D02*
X142089286Y-59089047D01*
X142089286Y-59089047D02*
X142089286Y-58946190D01*
X142089286Y-58946190D02*
X142136905Y-58755714D01*
X142136905Y-58755714D02*
X142184524Y-58660476D01*
X142184524Y-58660476D02*
X142279762Y-58565238D01*
X142279762Y-58565238D02*
X142422619Y-58517619D01*
X142422619Y-58517619D02*
X142517857Y-58517619D01*
X142517857Y-58517619D02*
X142660714Y-58565238D01*
X142660714Y-58565238D02*
X142708333Y-58612857D01*
X143660714Y-59517619D02*
X143089286Y-59517619D01*
X143375000Y-59517619D02*
X143375000Y-58517619D01*
X143375000Y-58517619D02*
X143279762Y-58660476D01*
X143279762Y-58660476D02*
X143184524Y-58755714D01*
X143184524Y-58755714D02*
X143089286Y-58803333D01*
%TO.C,M4*%
X123912619Y-100484523D02*
X122912619Y-100484523D01*
X122912619Y-100484523D02*
X123626904Y-100151190D01*
X123626904Y-100151190D02*
X122912619Y-99817857D01*
X122912619Y-99817857D02*
X123912619Y-99817857D01*
X123245952Y-98913095D02*
X123912619Y-98913095D01*
X122865000Y-99151190D02*
X123579285Y-99389285D01*
X123579285Y-99389285D02*
X123579285Y-98770238D01*
D12*
%TO.C,C6*%
X95150000Y-59775000D02*
X94905000Y-59775000D01*
X95150000Y-59775000D02*
X95150000Y-63415000D01*
X93055000Y-59775000D02*
X92810000Y-59775000D01*
X92810000Y-59775000D02*
X92810000Y-63415000D01*
X95150000Y-63415000D02*
X94905000Y-63415000D01*
X93055000Y-63415000D02*
X92810000Y-63415000D01*
%TO.C,U1*%
X84345000Y-70425000D02*
X84345000Y-90865000D01*
X84345000Y-90865000D02*
X89645000Y-90865000D01*
X85995000Y-70425000D02*
X84345000Y-70425000D01*
X89645000Y-70425000D02*
X87995000Y-70425000D01*
X89645000Y-90865000D02*
X89645000Y-70425000D01*
X85995000Y-70425000D02*
G75*
G03*
X87995000Y-70425000I1000000J0D01*
G01*
%TO.C,M2*%
X83610000Y-104410000D02*
X84860000Y-104410000D01*
X83900000Y-104120000D02*
X89870000Y-104120000D01*
X89870000Y-104120000D02*
X89870000Y-96500000D01*
X83910000Y-104110000D02*
X84660000Y-104110000D01*
X84660000Y-104110000D02*
X84660000Y-102310000D01*
X86160000Y-104110000D02*
X86160000Y-103360000D01*
X86160000Y-103360000D02*
X87500000Y-103360000D01*
X83610000Y-103160000D02*
X83610000Y-104410000D01*
X83910000Y-102310000D02*
X83910000Y-104110000D01*
X84660000Y-102310000D02*
X83910000Y-102310000D01*
X83910000Y-100810000D02*
X84660000Y-100810000D01*
X84660000Y-100810000D02*
X84660000Y-99810000D01*
X89110000Y-100310000D02*
X89110000Y-102300000D01*
X83910000Y-99810000D02*
X83910000Y-100810000D01*
X84660000Y-99810000D02*
X83910000Y-99810000D01*
X83910000Y-98310000D02*
X84660000Y-98310000D01*
X84660000Y-98310000D02*
X84660000Y-96510000D01*
X86160000Y-97260000D02*
X89110000Y-97260000D01*
X89110000Y-97260000D02*
X89110000Y-100310000D01*
X83910000Y-96510000D02*
X83910000Y-98310000D01*
X84660000Y-96510000D02*
X83910000Y-96510000D01*
X86160000Y-96510000D02*
X86160000Y-97260000D01*
X83900000Y-96500000D02*
X83900000Y-104120000D01*
X89870000Y-96500000D02*
X83900000Y-96500000D01*
%TO.C,BT1*%
X143085000Y-67675000D02*
X141835000Y-67675000D01*
X142795000Y-67965000D02*
X136825000Y-67965000D01*
X136825000Y-67965000D02*
X136825000Y-75585000D01*
X142785000Y-67975000D02*
X142035000Y-67975000D01*
X142035000Y-67975000D02*
X142035000Y-69775000D01*
X140535000Y-67975000D02*
X140535000Y-68725000D01*
X140535000Y-68725000D02*
X139195000Y-68725000D01*
X143085000Y-68925000D02*
X143085000Y-67675000D01*
X142785000Y-69775000D02*
X142785000Y-67975000D01*
X142035000Y-69775000D02*
X142785000Y-69775000D01*
X142785000Y-71275000D02*
X142035000Y-71275000D01*
X142035000Y-71275000D02*
X142035000Y-72275000D01*
X137585000Y-71775000D02*
X137585000Y-69785000D01*
X142785000Y-72275000D02*
X142785000Y-71275000D01*
X142035000Y-72275000D02*
X142785000Y-72275000D01*
X142785000Y-73775000D02*
X142035000Y-73775000D01*
X142035000Y-73775000D02*
X142035000Y-75575000D01*
X140535000Y-74825000D02*
X137585000Y-74825000D01*
X137585000Y-74825000D02*
X137585000Y-71775000D01*
X142785000Y-75575000D02*
X142785000Y-73775000D01*
X142035000Y-75575000D02*
X142785000Y-75575000D01*
X140535000Y-75575000D02*
X140535000Y-74825000D01*
X142795000Y-75585000D02*
X142795000Y-67965000D01*
X136825000Y-75585000D02*
X142795000Y-75585000D01*
%TO.C,M1*%
X89840000Y-57805000D02*
X88590000Y-57805000D01*
X89550000Y-58095000D02*
X83580000Y-58095000D01*
X83580000Y-58095000D02*
X83580000Y-65715000D01*
X89540000Y-58105000D02*
X88790000Y-58105000D01*
X88790000Y-58105000D02*
X88790000Y-59905000D01*
X87290000Y-58105000D02*
X87290000Y-58855000D01*
X87290000Y-58855000D02*
X85950000Y-58855000D01*
X89840000Y-59055000D02*
X89840000Y-57805000D01*
X89540000Y-59905000D02*
X89540000Y-58105000D01*
X88790000Y-59905000D02*
X89540000Y-59905000D01*
X89540000Y-61405000D02*
X88790000Y-61405000D01*
X88790000Y-61405000D02*
X88790000Y-62405000D01*
X84340000Y-61905000D02*
X84340000Y-59915000D01*
X89540000Y-62405000D02*
X89540000Y-61405000D01*
X88790000Y-62405000D02*
X89540000Y-62405000D01*
X89540000Y-63905000D02*
X88790000Y-63905000D01*
X88790000Y-63905000D02*
X88790000Y-65705000D01*
X87290000Y-64955000D02*
X84340000Y-64955000D01*
X84340000Y-64955000D02*
X84340000Y-61905000D01*
X89540000Y-65705000D02*
X89540000Y-63905000D01*
X88790000Y-65705000D02*
X89540000Y-65705000D01*
X87290000Y-65705000D02*
X87290000Y-64955000D01*
X89550000Y-65715000D02*
X89550000Y-58095000D01*
X83580000Y-65715000D02*
X89550000Y-65715000D01*
D11*
%TO.C,U4*%
X95885000Y-57150000D02*
X95885000Y-107950000D01*
X95885000Y-107950000D02*
X118745000Y-107950000D01*
X118745000Y-57150000D02*
X95885000Y-57150000D01*
X118745000Y-107950000D02*
X118745000Y-57150000D01*
D12*
%TO.C,C2*%
X147995000Y-95885000D02*
G75*
G03*
X147995000Y-95885000I-5120000J0D01*
G01*
%TO.C,M3*%
X131020000Y-57515000D02*
X129770000Y-57515000D01*
X130730000Y-57805000D02*
X124760000Y-57805000D01*
X124760000Y-57805000D02*
X124760000Y-65425000D01*
X130720000Y-57815000D02*
X129970000Y-57815000D01*
X129970000Y-57815000D02*
X129970000Y-59615000D01*
X128470000Y-57815000D02*
X128470000Y-58565000D01*
X128470000Y-58565000D02*
X127130000Y-58565000D01*
X131020000Y-58765000D02*
X131020000Y-57515000D01*
X130720000Y-59615000D02*
X130720000Y-57815000D01*
X129970000Y-59615000D02*
X130720000Y-59615000D01*
X130720000Y-61115000D02*
X129970000Y-61115000D01*
X129970000Y-61115000D02*
X129970000Y-62115000D01*
X125520000Y-61615000D02*
X125520000Y-59625000D01*
X130720000Y-62115000D02*
X130720000Y-61115000D01*
X129970000Y-62115000D02*
X130720000Y-62115000D01*
X130720000Y-63615000D02*
X129970000Y-63615000D01*
X129970000Y-63615000D02*
X129970000Y-65415000D01*
X128470000Y-64665000D02*
X125520000Y-64665000D01*
X125520000Y-64665000D02*
X125520000Y-61615000D01*
X130720000Y-65415000D02*
X130720000Y-63615000D01*
X129970000Y-65415000D02*
X130720000Y-65415000D01*
X128470000Y-65415000D02*
X128470000Y-64665000D01*
X130730000Y-65425000D02*
X130730000Y-57805000D01*
X124760000Y-65425000D02*
X130730000Y-65425000D01*
%TO.C,U2*%
X124985000Y-69790000D02*
X124985000Y-90230000D01*
X124985000Y-90230000D02*
X130285000Y-90230000D01*
X126635000Y-69790000D02*
X124985000Y-69790000D01*
X130285000Y-69790000D02*
X128635000Y-69790000D01*
X130285000Y-90230000D02*
X130285000Y-69790000D01*
X126635000Y-69790000D02*
G75*
G03*
X128635000Y-69790000I1000000J0D01*
G01*
%TO.C,C3*%
X134720000Y-102170000D02*
X134965000Y-102170000D01*
X134720000Y-102170000D02*
X134720000Y-98530000D01*
X136815000Y-102170000D02*
X137060000Y-102170000D01*
X137060000Y-102170000D02*
X137060000Y-98530000D01*
X134720000Y-98530000D02*
X134965000Y-98530000D01*
X136815000Y-98530000D02*
X137060000Y-98530000D01*
D13*
%TO.C,U3*%
X142612500Y-76815000D02*
X142612500Y-87015000D01*
X138112500Y-76815000D02*
X142612500Y-76815000D01*
X142612500Y-87015000D02*
X138112500Y-87015000D01*
X138112500Y-87015000D02*
X138112500Y-76815000D01*
D14*
X139800000Y-76065000D02*
G75*
G03*
X139800000Y-76065000I-100000J0D01*
G01*
D12*
%TO.C,C4*%
X136425000Y-59775000D02*
X136180000Y-59775000D01*
X136425000Y-59775000D02*
X136425000Y-63415000D01*
X134330000Y-59775000D02*
X134085000Y-59775000D01*
X134085000Y-59775000D02*
X134085000Y-63415000D01*
X136425000Y-63415000D02*
X136180000Y-63415000D01*
X134330000Y-63415000D02*
X134085000Y-63415000D01*
%TO.C,C5*%
X94515000Y-102320000D02*
X94270000Y-102320000D01*
X94515000Y-102320000D02*
X94515000Y-105960000D01*
X92420000Y-102320000D02*
X92175000Y-102320000D01*
X92175000Y-102320000D02*
X92175000Y-105960000D01*
X94515000Y-105960000D02*
X94270000Y-105960000D01*
X92420000Y-105960000D02*
X92175000Y-105960000D01*
%TO.C,C1*%
X147955000Y-61595000D02*
G75*
G03*
X147955000Y-61595000I-5120000J0D01*
G01*
%TO.C,M4*%
X124250000Y-103775000D02*
X125500000Y-103775000D01*
X124540000Y-103485000D02*
X130510000Y-103485000D01*
X130510000Y-103485000D02*
X130510000Y-95865000D01*
X124550000Y-103475000D02*
X125300000Y-103475000D01*
X125300000Y-103475000D02*
X125300000Y-101675000D01*
X126800000Y-103475000D02*
X126800000Y-102725000D01*
X126800000Y-102725000D02*
X128140000Y-102725000D01*
X124250000Y-102525000D02*
X124250000Y-103775000D01*
X124550000Y-101675000D02*
X124550000Y-103475000D01*
X125300000Y-101675000D02*
X124550000Y-101675000D01*
X124550000Y-100175000D02*
X125300000Y-100175000D01*
X125300000Y-100175000D02*
X125300000Y-99175000D01*
X129750000Y-99675000D02*
X129750000Y-101665000D01*
X124550000Y-99175000D02*
X124550000Y-100175000D01*
X125300000Y-99175000D02*
X124550000Y-99175000D01*
X124550000Y-97675000D02*
X125300000Y-97675000D01*
X125300000Y-97675000D02*
X125300000Y-95875000D01*
X126800000Y-96625000D02*
X129750000Y-96625000D01*
X129750000Y-96625000D02*
X129750000Y-99675000D01*
X124550000Y-95875000D02*
X124550000Y-97675000D01*
X125300000Y-95875000D02*
X124550000Y-95875000D01*
X126800000Y-95875000D02*
X126800000Y-96625000D01*
X124540000Y-95865000D02*
X124540000Y-103485000D01*
X130510000Y-95865000D02*
X124540000Y-95865000D01*
%TD*%
M02*
