%TF.GenerationSoftware,KiCad,Pcbnew,7.0.2*%
%TF.CreationDate,2024-06-06T15:53:53-07:00*%
%TF.ProjectId,argonCartMotorDesignV2,6172676f-6e43-4617-9274-4d6f746f7244,rev?*%
%TF.SameCoordinates,Original*%
%TF.FileFunction,Copper,L1,Top*%
%TF.FilePolarity,Positive*%
%FSLAX46Y46*%
G04 Gerber Fmt 4.6, Leading zero omitted, Abs format (unit mm)*
G04 Created by KiCad (PCBNEW 7.0.2) date 2024-06-06 15:53:53*
%MOMM*%
%LPD*%
G01*
G04 APERTURE LIST*
G04 Aperture macros list*
%AMRoundRect*
0 Rectangle with rounded corners*
0 $1 Rounding radius*
0 $2 $3 $4 $5 $6 $7 $8 $9 X,Y pos of 4 corners*
0 Add a 4 corners polygon primitive as box body*
4,1,4,$2,$3,$4,$5,$6,$7,$8,$9,$2,$3,0*
0 Add four circle primitives for the rounded corners*
1,1,$1+$1,$2,$3*
1,1,$1+$1,$4,$5*
1,1,$1+$1,$6,$7*
1,1,$1+$1,$8,$9*
0 Add four rect primitives between the rounded corners*
20,1,$1+$1,$2,$3,$4,$5,0*
20,1,$1+$1,$4,$5,$6,$7,0*
20,1,$1+$1,$6,$7,$8,$9,0*
20,1,$1+$1,$8,$9,$2,$3,0*%
G04 Aperture macros list end*
%TA.AperFunction,ComponentPad*%
%ADD10C,1.600000*%
%TD*%
%TA.AperFunction,ComponentPad*%
%ADD11R,1.600000X1.600000*%
%TD*%
%TA.AperFunction,ComponentPad*%
%ADD12O,1.600000X1.600000*%
%TD*%
%TA.AperFunction,ComponentPad*%
%ADD13RoundRect,0.250000X0.750000X-0.600000X0.750000X0.600000X-0.750000X0.600000X-0.750000X-0.600000X0*%
%TD*%
%TA.AperFunction,ComponentPad*%
%ADD14O,2.000000X1.700000*%
%TD*%
%TA.AperFunction,ComponentPad*%
%ADD15RoundRect,0.250000X-0.750000X0.600000X-0.750000X-0.600000X0.750000X-0.600000X0.750000X0.600000X0*%
%TD*%
%TA.AperFunction,ComponentPad*%
%ADD16C,1.524000*%
%TD*%
%TA.AperFunction,ComponentPad*%
%ADD17R,2.055000X2.055000*%
%TD*%
%TA.AperFunction,ComponentPad*%
%ADD18C,2.055000*%
%TD*%
%TA.AperFunction,ViaPad*%
%ADD19C,0.800000*%
%TD*%
%TA.AperFunction,Conductor*%
%ADD20C,0.250000*%
%TD*%
G04 APERTURE END LIST*
D10*
%TO.P,C6,1*%
%TO.N,Net-(M1-+)*%
X93980000Y-60345000D03*
%TO.P,C6,2*%
%TO.N,Net-(M1--)*%
X93980000Y-62845000D03*
%TD*%
D11*
%TO.P,U1,1,EN1\u002C2*%
%TO.N,Net-(U1-EN1\u002C2)*%
X83185000Y-71755000D03*
D12*
%TO.P,U1,2,1A*%
%TO.N,Net-(U1-1A)*%
X83185000Y-74295000D03*
%TO.P,U1,3,1Y*%
%TO.N,Net-(M1-+)*%
X83185000Y-76835000D03*
%TO.P,U1,4,GND*%
%TO.N,Net-(BT1--)*%
X83185000Y-79375000D03*
%TO.P,U1,5,GND*%
X83185000Y-81915000D03*
%TO.P,U1,6,2Y*%
%TO.N,Net-(M1--)*%
X83185000Y-84455000D03*
%TO.P,U1,7,2A*%
%TO.N,Net-(U1-2A)*%
X83185000Y-86995000D03*
%TO.P,U1,8,VCC2*%
%TO.N,Net-(BT1-+)*%
X83185000Y-89535000D03*
%TO.P,U1,9,EN3\u002C4*%
%TO.N,Net-(U1-EN1\u002C2)*%
X90805000Y-89535000D03*
%TO.P,U1,10,3A*%
%TO.N,Net-(U1-3A)*%
X90805000Y-86995000D03*
%TO.P,U1,11,3Y*%
%TO.N,Net-(M2-+)*%
X90805000Y-84455000D03*
%TO.P,U1,12,GND*%
%TO.N,Net-(BT1--)*%
X90805000Y-81915000D03*
%TO.P,U1,13,GND*%
X90805000Y-79375000D03*
%TO.P,U1,14,4Y*%
%TO.N,Net-(M2--)*%
X90805000Y-76835000D03*
%TO.P,U1,15,4A*%
%TO.N,Net-(U1-4A)*%
X90805000Y-74295000D03*
%TO.P,U1,16,VCC1*%
%TO.N,Net-(U1-EN1\u002C2)*%
X90805000Y-71755000D03*
%TD*%
D13*
%TO.P,M2,1,+*%
%TO.N,Net-(M2-+)*%
X86360000Y-101560000D03*
D14*
%TO.P,M2,2,-*%
%TO.N,Net-(M2--)*%
X86360000Y-99060000D03*
%TD*%
D15*
%TO.P,BT1,1,+*%
%TO.N,Net-(BT1-+)*%
X140335000Y-70525000D03*
D14*
%TO.P,BT1,2,-*%
%TO.N,Net-(BT1--)*%
X140335000Y-73025000D03*
%TD*%
D15*
%TO.P,M1,1,+*%
%TO.N,Net-(M1-+)*%
X87090000Y-60655000D03*
D14*
%TO.P,M1,2,-*%
%TO.N,Net-(M1--)*%
X87090000Y-63155000D03*
%TD*%
D16*
%TO.P,U4,1,RST*%
%TO.N,unconnected-(U4-RST-Pad1)*%
X97155000Y-63500000D03*
%TO.P,U4,2,3V3*%
%TO.N,unconnected-(U4-3V3-Pad2)*%
X97155000Y-66040000D03*
%TO.P,U4,3,MD*%
%TO.N,unconnected-(U4-MD-Pad3)*%
X97155000Y-68580000D03*
%TO.P,U4,4,GND*%
%TO.N,Net-(BT1--)*%
X97155000Y-71120000D03*
%TO.P,U4,5,A0*%
%TO.N,unconnected-(U4-A0-Pad5)*%
X97155000Y-73660000D03*
%TO.P,U4,6,A1*%
%TO.N,unconnected-(U4-A1-Pad6)*%
X97155000Y-76200000D03*
%TO.P,U4,7,A2*%
%TO.N,unconnected-(U4-A2-Pad7)*%
X97155000Y-78740000D03*
%TO.P,U4,8,A3*%
%TO.N,unconnected-(U4-A3-Pad8)*%
X97155000Y-81280000D03*
%TO.P,U4,9,A4*%
%TO.N,unconnected-(U4-A4-Pad9)*%
X97155000Y-83820000D03*
%TO.P,U4,10,A5*%
%TO.N,unconnected-(U4-A5-Pad10)*%
X97155000Y-86360000D03*
%TO.P,U4,11,SCK*%
%TO.N,unconnected-(U4-SCK-Pad11)*%
X97155000Y-88900000D03*
%TO.P,U4,12,MO*%
%TO.N,unconnected-(U4-MO-Pad12)*%
X97155000Y-91440000D03*
%TO.P,U4,13,MI*%
%TO.N,unconnected-(U4-MI-Pad13)*%
X97155000Y-93980000D03*
%TO.P,U4,14,RX*%
%TO.N,unconnected-(U4-RX-Pad14)*%
X97155000Y-96520000D03*
%TO.P,U4,15,TX*%
%TO.N,unconnected-(U4-TX-Pad15)*%
X97155000Y-99060000D03*
%TO.P,U4,16,NC*%
%TO.N,unconnected-(U4-NC-Pad16)*%
X97155000Y-101600000D03*
%TO.P,U4,17,SDA*%
%TO.N,unconnected-(U4-SDA-Pad17)*%
X117475000Y-101600000D03*
%TO.P,U4,18,SCL*%
%TO.N,Net-(U1-1A)*%
X117475000Y-99060000D03*
%TO.P,U4,19,D2*%
%TO.N,Net-(U1-2A)*%
X117475000Y-96520000D03*
%TO.P,U4,20,D3*%
%TO.N,Net-(U1-3A)*%
X117475000Y-93980000D03*
%TO.P,U4,21,D4*%
%TO.N,Net-(U1-4A)*%
X117475000Y-91440000D03*
%TO.P,U4,22,D5*%
%TO.N,Net-(U2-1A)*%
X117475000Y-88900000D03*
%TO.P,U4,23,D6*%
%TO.N,Net-(U2-2A)*%
X117475000Y-86360000D03*
%TO.P,U4,24,D7*%
%TO.N,Net-(U2-3A)*%
X117475000Y-83820000D03*
%TO.P,U4,25,D8*%
%TO.N,Net-(U2-4A)*%
X117475000Y-81280000D03*
%TO.P,U4,26,USB*%
%TO.N,Net-(U1-EN1\u002C2)*%
X117475000Y-78740000D03*
%TO.P,U4,27,EN*%
%TO.N,unconnected-(U4-EN-Pad27)*%
X117475000Y-76200000D03*
%TO.P,U4,28,Li+*%
%TO.N,unconnected-(U4-Li+-Pad28)*%
X117475000Y-73660000D03*
%TD*%
D10*
%TO.P,C2,1*%
%TO.N,Net-(U1-EN1\u002C2)*%
X140375000Y-95885000D03*
%TO.P,C2,2*%
%TO.N,Net-(BT1--)*%
X145375000Y-95885000D03*
%TD*%
D15*
%TO.P,M3,1,+*%
%TO.N,Net-(M3-+)*%
X128270000Y-60365000D03*
D14*
%TO.P,M3,2,-*%
%TO.N,Net-(M3--)*%
X128270000Y-62865000D03*
%TD*%
D11*
%TO.P,U2,1,EN1\u002C2*%
%TO.N,Net-(U1-EN1\u002C2)*%
X123825000Y-71120000D03*
D12*
%TO.P,U2,2,1A*%
%TO.N,Net-(U2-1A)*%
X123825000Y-73660000D03*
%TO.P,U2,3,1Y*%
%TO.N,Net-(M3-+)*%
X123825000Y-76200000D03*
%TO.P,U2,4,GND*%
%TO.N,Net-(BT1--)*%
X123825000Y-78740000D03*
%TO.P,U2,5,GND*%
X123825000Y-81280000D03*
%TO.P,U2,6,2Y*%
%TO.N,Net-(M3--)*%
X123825000Y-83820000D03*
%TO.P,U2,7,2A*%
%TO.N,Net-(U2-2A)*%
X123825000Y-86360000D03*
%TO.P,U2,8,VCC2*%
%TO.N,Net-(BT1-+)*%
X123825000Y-88900000D03*
%TO.P,U2,9,EN3\u002C4*%
%TO.N,Net-(U1-EN1\u002C2)*%
X131445000Y-88900000D03*
%TO.P,U2,10,3A*%
%TO.N,Net-(U2-3A)*%
X131445000Y-86360000D03*
%TO.P,U2,11,3Y*%
%TO.N,Net-(M4-+)*%
X131445000Y-83820000D03*
%TO.P,U2,12,GND*%
%TO.N,Net-(BT1--)*%
X131445000Y-81280000D03*
%TO.P,U2,13,GND*%
X131445000Y-78740000D03*
%TO.P,U2,14,4Y*%
%TO.N,Net-(M4--)*%
X131445000Y-76200000D03*
%TO.P,U2,15,4A*%
%TO.N,Net-(U2-4A)*%
X131445000Y-73660000D03*
%TO.P,U2,16,VCC1*%
%TO.N,Net-(U1-EN1\u002C2)*%
X131445000Y-71120000D03*
%TD*%
D10*
%TO.P,C3,1*%
%TO.N,Net-(M4-+)*%
X135890000Y-101600000D03*
%TO.P,C3,2*%
%TO.N,Net-(M4--)*%
X135890000Y-99100000D03*
%TD*%
D17*
%TO.P,U3,1,IN*%
%TO.N,Net-(BT1-+)*%
X139700000Y-79365000D03*
D18*
%TO.P,U3,2,GND*%
%TO.N,Net-(BT1--)*%
X139700000Y-81915000D03*
%TO.P,U3,3,OUT*%
%TO.N,Net-(U1-EN1\u002C2)*%
X139700000Y-84465000D03*
%TD*%
D10*
%TO.P,C4,1*%
%TO.N,Net-(M3-+)*%
X135255000Y-60345000D03*
%TO.P,C4,2*%
%TO.N,Net-(M3--)*%
X135255000Y-62845000D03*
%TD*%
%TO.P,C5,1*%
%TO.N,Net-(M2-+)*%
X93345000Y-102890000D03*
%TO.P,C5,2*%
%TO.N,Net-(M2--)*%
X93345000Y-105390000D03*
%TD*%
%TO.P,C1,1*%
%TO.N,Net-(BT1-+)*%
X140335000Y-61595000D03*
%TO.P,C1,2*%
%TO.N,Net-(BT1--)*%
X145335000Y-61595000D03*
%TD*%
D13*
%TO.P,M4,1,+*%
%TO.N,Net-(M4-+)*%
X127000000Y-100925000D03*
D14*
%TO.P,M4,2,-*%
%TO.N,Net-(M4--)*%
X127000000Y-98425000D03*
%TD*%
D19*
%TO.N,Net-(U1-EN1\u002C2)*%
X107950000Y-85090000D03*
%TD*%
D20*
%TO.N,Net-(BT1-+)*%
X84455000Y-89535000D02*
X92710000Y-97790000D01*
X139700000Y-79365000D02*
X141052500Y-80717500D01*
X141052500Y-88817500D02*
X135890000Y-93980000D01*
X140335000Y-70525000D02*
X139010000Y-71850000D01*
X83185000Y-89535000D02*
X84455000Y-89535000D01*
X92710000Y-97790000D02*
X120015000Y-97790000D01*
X120015000Y-97790000D02*
X123825000Y-93980000D01*
X139010000Y-78675000D02*
X139700000Y-79365000D01*
X141052500Y-80717500D02*
X141052500Y-88817500D01*
X135890000Y-93980000D02*
X123825000Y-93980000D01*
X123825000Y-93980000D02*
X123825000Y-88900000D01*
X140335000Y-70525000D02*
X140335000Y-61595000D01*
X139010000Y-71850000D02*
X139010000Y-78675000D01*
%TO.N,Net-(BT1--)*%
X123825000Y-78740000D02*
X131445000Y-78740000D01*
X90805000Y-81915000D02*
X90805000Y-79375000D01*
X90805000Y-79375000D02*
X96068875Y-74111125D01*
X145335000Y-61595000D02*
X145335000Y-68025000D01*
X83185000Y-79375000D02*
X83185000Y-81915000D01*
X96068000Y-72207000D02*
X97155000Y-71120000D01*
X96068875Y-74111125D02*
X96068000Y-74110251D01*
X145335000Y-68025000D02*
X140335000Y-73025000D01*
X83185000Y-79375000D02*
X90805000Y-79375000D01*
X96068000Y-74110251D02*
X96068000Y-72207000D01*
%TO.N,Net-(U1-EN1\u002C2)*%
X135880000Y-84465000D02*
X133985000Y-86360000D01*
X132715000Y-71120000D02*
X133985000Y-72390000D01*
X120015000Y-74295000D02*
X123190000Y-71120000D01*
X139075000Y-84465000D02*
X139065000Y-84455000D01*
X114300000Y-78740000D02*
X117475000Y-78740000D01*
X83185000Y-71755000D02*
X90805000Y-71755000D01*
X107950000Y-85090000D02*
X114300000Y-78740000D01*
X117475000Y-78740000D02*
X120015000Y-76200000D01*
X133985000Y-72390000D02*
X133985000Y-86360000D01*
X139700000Y-84465000D02*
X135880000Y-84465000D01*
X139700000Y-84465000D02*
X139075000Y-84465000D01*
X123190000Y-71120000D02*
X123825000Y-71120000D01*
X133985000Y-86360000D02*
X131445000Y-88900000D01*
X131445000Y-71120000D02*
X132715000Y-71120000D01*
X139065000Y-84455000D02*
X139700000Y-84455000D01*
X123825000Y-71120000D02*
X131445000Y-71120000D01*
X120015000Y-76200000D02*
X120015000Y-74295000D01*
%TO.N,Net-(M4-+)*%
X135215000Y-100925000D02*
X127000000Y-100925000D01*
X135890000Y-101600000D02*
X135215000Y-100925000D01*
%TO.N,Net-(M4--)*%
X127675000Y-99100000D02*
X127000000Y-98425000D01*
X135890000Y-99100000D02*
X127675000Y-99100000D01*
%TO.N,Net-(M3-+)*%
X128270000Y-60365000D02*
X135235000Y-60365000D01*
X135235000Y-60365000D02*
X135255000Y-60345000D01*
%TO.N,Net-(M3--)*%
X135235000Y-62865000D02*
X135255000Y-62845000D01*
X128270000Y-62865000D02*
X135235000Y-62865000D01*
%TO.N,Net-(M2--)*%
X87015000Y-99060000D02*
X86360000Y-99060000D01*
X93345000Y-105390000D02*
X87015000Y-99060000D01*
%TO.N,Net-(M1-+)*%
X93670000Y-60655000D02*
X93980000Y-60345000D01*
X82220000Y-60655000D02*
X80010000Y-62865000D01*
X87090000Y-60655000D02*
X93670000Y-60655000D01*
X80010000Y-62865000D02*
X80010000Y-73660000D01*
X87090000Y-60655000D02*
X82220000Y-60655000D01*
X80010000Y-73660000D02*
X83185000Y-76835000D01*
%TO.N,Net-(M1--)*%
X87090000Y-63155000D02*
X93670000Y-63155000D01*
X93670000Y-63155000D02*
X93980000Y-62845000D01*
%TO.N,Net-(U1-1A)*%
X80645000Y-92075000D02*
X82550000Y-93980000D01*
X82405000Y-78250000D02*
X80645000Y-80010000D01*
X93345000Y-100330000D02*
X116205000Y-100330000D01*
X84310000Y-77590991D02*
X83650991Y-78250000D01*
X83650991Y-78250000D02*
X82405000Y-78250000D01*
X80645000Y-80010000D02*
X80645000Y-92075000D01*
X84310000Y-75420000D02*
X84310000Y-77590991D01*
X83185000Y-74295000D02*
X84310000Y-75420000D01*
X116205000Y-100330000D02*
X117475000Y-99060000D01*
X86995000Y-93980000D02*
X93345000Y-100330000D01*
X82550000Y-93980000D02*
X86995000Y-93980000D01*
%TO.N,Net-(U1-2A)*%
X117475000Y-96520000D02*
X114935000Y-96520000D01*
X92710000Y-92075000D02*
X90805000Y-92075000D01*
X85725000Y-86995000D02*
X83185000Y-86995000D01*
X113665000Y-95250000D02*
X95885000Y-95250000D01*
X95885000Y-95250000D02*
X92710000Y-92075000D01*
X114935000Y-96520000D02*
X113665000Y-95250000D01*
X90805000Y-92075000D02*
X85725000Y-86995000D01*
%TO.N,Net-(U1-3A)*%
X90805000Y-86995000D02*
X96703875Y-92893875D01*
X96704749Y-92893000D02*
X116388000Y-92893000D01*
X116388000Y-92893000D02*
X117475000Y-93980000D01*
X96703875Y-92893875D02*
X96704749Y-92893000D01*
%TO.N,Net-(U2-1A)*%
X123825000Y-73660000D02*
X118745000Y-78740000D01*
X117475000Y-88900000D02*
X116388000Y-87813000D01*
X116388000Y-87813000D02*
X116388000Y-80462000D01*
X116388000Y-80462000D02*
X117023000Y-79827000D01*
X118293000Y-79827000D02*
X118745000Y-79375000D01*
X118745000Y-79375000D02*
X118745000Y-78740000D01*
X117023000Y-79827000D02*
X118293000Y-79827000D01*
%TO.N,Net-(U2-3A)*%
X118890000Y-85235000D02*
X130320000Y-85235000D01*
X130320000Y-85235000D02*
X131445000Y-86360000D01*
X117475000Y-83820000D02*
X118890000Y-85235000D01*
%TO.N,Net-(U2-4A)*%
X121285000Y-77470000D02*
X117475000Y-81280000D01*
X131445000Y-73660000D02*
X128270000Y-73660000D01*
X128270000Y-73660000D02*
X124460000Y-77470000D01*
X124460000Y-77470000D02*
X121285000Y-77470000D01*
%TD*%
%TA.AperFunction,Conductor*%
%TO.N,Net-(BT1--)*%
G36*
X81888052Y-79754050D02*
G01*
X81943986Y-79795921D01*
X81957101Y-79817827D01*
X82054865Y-80027480D01*
X82185341Y-80213819D01*
X82346180Y-80374658D01*
X82532519Y-80505134D01*
X82591456Y-80532618D01*
X82643895Y-80578791D01*
X82663047Y-80645985D01*
X82642831Y-80712866D01*
X82591456Y-80757382D01*
X82532519Y-80784865D01*
X82346180Y-80915341D01*
X82185341Y-81076180D01*
X82054865Y-81262519D01*
X81958733Y-81468673D01*
X81906128Y-81664999D01*
X81906128Y-81665000D01*
X82869314Y-81665000D01*
X82857359Y-81676955D01*
X82799835Y-81789852D01*
X82780014Y-81915000D01*
X82799835Y-82040148D01*
X82857359Y-82153045D01*
X82869314Y-82165000D01*
X81906128Y-82165000D01*
X81958733Y-82361326D01*
X82054865Y-82567480D01*
X82185341Y-82753819D01*
X82346180Y-82914658D01*
X82532519Y-83045134D01*
X82590865Y-83072342D01*
X82643304Y-83118514D01*
X82662456Y-83185708D01*
X82642240Y-83252589D01*
X82590866Y-83297105D01*
X82532267Y-83324430D01*
X82345859Y-83454953D01*
X82184953Y-83615859D01*
X82054432Y-83802264D01*
X81958261Y-84008502D01*
X81899364Y-84228310D01*
X81879531Y-84455000D01*
X81899364Y-84681689D01*
X81958261Y-84901497D01*
X82054432Y-85107735D01*
X82184953Y-85294140D01*
X82345859Y-85455046D01*
X82474871Y-85545380D01*
X82532266Y-85585568D01*
X82590275Y-85612618D01*
X82642714Y-85658791D01*
X82661865Y-85725985D01*
X82641649Y-85792866D01*
X82590275Y-85837382D01*
X82532263Y-85864433D01*
X82345859Y-85994953D01*
X82184953Y-86155859D01*
X82054432Y-86342264D01*
X81958261Y-86548502D01*
X81899364Y-86768310D01*
X81879531Y-86994999D01*
X81899364Y-87221689D01*
X81958261Y-87441497D01*
X82054432Y-87647735D01*
X82184953Y-87834140D01*
X82345859Y-87995046D01*
X82519647Y-88116732D01*
X82532266Y-88125568D01*
X82589076Y-88152059D01*
X82590275Y-88152618D01*
X82642714Y-88198791D01*
X82661865Y-88265985D01*
X82641649Y-88332866D01*
X82590275Y-88377382D01*
X82532263Y-88404433D01*
X82345859Y-88534953D01*
X82184953Y-88695859D01*
X82054432Y-88882264D01*
X81958261Y-89088502D01*
X81899364Y-89308310D01*
X81879531Y-89534999D01*
X81899364Y-89761689D01*
X81958261Y-89981497D01*
X82054432Y-90187735D01*
X82184953Y-90374140D01*
X82345859Y-90535046D01*
X82532264Y-90665567D01*
X82532265Y-90665567D01*
X82532266Y-90665568D01*
X82738504Y-90761739D01*
X82958308Y-90820635D01*
X83185000Y-90840468D01*
X83411692Y-90820635D01*
X83631496Y-90761739D01*
X83837734Y-90665568D01*
X84024139Y-90535047D01*
X84185047Y-90374139D01*
X84192741Y-90363149D01*
X84247315Y-90319524D01*
X84316813Y-90312327D01*
X84379169Y-90343847D01*
X84381999Y-90346589D01*
X87178527Y-93143117D01*
X87212012Y-93204440D01*
X87207028Y-93274132D01*
X87165156Y-93330065D01*
X87099692Y-93354482D01*
X87089683Y-93353581D01*
X87089683Y-93354500D01*
X87053984Y-93354500D01*
X87034586Y-93352973D01*
X87026333Y-93351666D01*
X87014805Y-93349840D01*
X87014804Y-93349840D01*
X86981751Y-93352964D01*
X86971325Y-93353950D01*
X86959656Y-93354500D01*
X82860452Y-93354500D01*
X82793413Y-93334815D01*
X82772771Y-93318181D01*
X81306819Y-91852228D01*
X81273334Y-91790905D01*
X81270500Y-91764547D01*
X81270500Y-80320452D01*
X81290185Y-80253413D01*
X81306819Y-80232771D01*
X81531181Y-80008409D01*
X81757040Y-79782549D01*
X81818361Y-79749066D01*
X81888052Y-79754050D01*
G37*
%TD.AperFunction*%
%TA.AperFunction,Conductor*%
G36*
X89657851Y-72400185D02*
G01*
X89692387Y-72433377D01*
X89804953Y-72594140D01*
X89965859Y-72755046D01*
X90094871Y-72845380D01*
X90152266Y-72885568D01*
X90210275Y-72912618D01*
X90262714Y-72958791D01*
X90281865Y-73025985D01*
X90261649Y-73092866D01*
X90210275Y-73137382D01*
X90152263Y-73164433D01*
X89965859Y-73294953D01*
X89804953Y-73455859D01*
X89674432Y-73642264D01*
X89578261Y-73848502D01*
X89519364Y-74068310D01*
X89499531Y-74295000D01*
X89519364Y-74521689D01*
X89578261Y-74741497D01*
X89674432Y-74947735D01*
X89804953Y-75134140D01*
X89965859Y-75295046D01*
X90094871Y-75385380D01*
X90152266Y-75425568D01*
X90210275Y-75452618D01*
X90262714Y-75498791D01*
X90281865Y-75565985D01*
X90261649Y-75632866D01*
X90210275Y-75677382D01*
X90152263Y-75704433D01*
X89965859Y-75834953D01*
X89804953Y-75995859D01*
X89674432Y-76182264D01*
X89578261Y-76388502D01*
X89519364Y-76608310D01*
X89499531Y-76834999D01*
X89519364Y-77061689D01*
X89578261Y-77281497D01*
X89674432Y-77487735D01*
X89804953Y-77674140D01*
X89965859Y-77835046D01*
X90152264Y-77965567D01*
X90152265Y-77965567D01*
X90152266Y-77965568D01*
X90210865Y-77992893D01*
X90263304Y-78039065D01*
X90282456Y-78106259D01*
X90262240Y-78173140D01*
X90210866Y-78217656D01*
X90152522Y-78244863D01*
X89966180Y-78375341D01*
X89805341Y-78536180D01*
X89674865Y-78722519D01*
X89578733Y-78928673D01*
X89526128Y-79124999D01*
X89526128Y-79125000D01*
X90489314Y-79125000D01*
X90477359Y-79136955D01*
X90419835Y-79249852D01*
X90400014Y-79375000D01*
X90419835Y-79500148D01*
X90477359Y-79613045D01*
X90489314Y-79625000D01*
X89526128Y-79625000D01*
X89578733Y-79821326D01*
X89674865Y-80027480D01*
X89805341Y-80213819D01*
X89966180Y-80374658D01*
X90152519Y-80505134D01*
X90211456Y-80532618D01*
X90263895Y-80578791D01*
X90283047Y-80645985D01*
X90262831Y-80712866D01*
X90211456Y-80757382D01*
X90152519Y-80784865D01*
X89966180Y-80915341D01*
X89805341Y-81076180D01*
X89674865Y-81262519D01*
X89578733Y-81468673D01*
X89526128Y-81664999D01*
X89526128Y-81665000D01*
X90489314Y-81665000D01*
X90477359Y-81676955D01*
X90419835Y-81789852D01*
X90400014Y-81915000D01*
X90419835Y-82040148D01*
X90477359Y-82153045D01*
X90489314Y-82165000D01*
X89526128Y-82165000D01*
X89578733Y-82361326D01*
X89674865Y-82567480D01*
X89805341Y-82753819D01*
X89966180Y-82914658D01*
X90152519Y-83045134D01*
X90210865Y-83072342D01*
X90263304Y-83118514D01*
X90282456Y-83185708D01*
X90262240Y-83252589D01*
X90210866Y-83297105D01*
X90152267Y-83324430D01*
X89965859Y-83454953D01*
X89804953Y-83615859D01*
X89674432Y-83802264D01*
X89578261Y-84008502D01*
X89519364Y-84228310D01*
X89499531Y-84454999D01*
X89519364Y-84681689D01*
X89578261Y-84901497D01*
X89674432Y-85107735D01*
X89804953Y-85294140D01*
X89965859Y-85455046D01*
X90094871Y-85545380D01*
X90152266Y-85585568D01*
X90210275Y-85612618D01*
X90262714Y-85658791D01*
X90281865Y-85725985D01*
X90261649Y-85792866D01*
X90210275Y-85837382D01*
X90152263Y-85864433D01*
X89965859Y-85994953D01*
X89804953Y-86155859D01*
X89674432Y-86342264D01*
X89578261Y-86548502D01*
X89519364Y-86768310D01*
X89499531Y-86994999D01*
X89519364Y-87221689D01*
X89578261Y-87441497D01*
X89674432Y-87647735D01*
X89804953Y-87834140D01*
X89965859Y-87995046D01*
X90139647Y-88116732D01*
X90152266Y-88125568D01*
X90209076Y-88152059D01*
X90210275Y-88152618D01*
X90262714Y-88198791D01*
X90281865Y-88265985D01*
X90261649Y-88332866D01*
X90210275Y-88377382D01*
X90152263Y-88404433D01*
X89965859Y-88534953D01*
X89804953Y-88695859D01*
X89674432Y-88882264D01*
X89578261Y-89088502D01*
X89519364Y-89308310D01*
X89499531Y-89534999D01*
X89503390Y-89579101D01*
X89489623Y-89647601D01*
X89441008Y-89697785D01*
X89372980Y-89713718D01*
X89307136Y-89690343D01*
X89292181Y-89677590D01*
X86225802Y-86611211D01*
X86212906Y-86595113D01*
X86161775Y-86547098D01*
X86158978Y-86544387D01*
X86142227Y-86527636D01*
X86139471Y-86524880D01*
X86136290Y-86522412D01*
X86127422Y-86514837D01*
X86095582Y-86484938D01*
X86078024Y-86475285D01*
X86061764Y-86464604D01*
X86045936Y-86452327D01*
X86005851Y-86434980D01*
X85995361Y-86429841D01*
X85957091Y-86408802D01*
X85937691Y-86403821D01*
X85919284Y-86397519D01*
X85900897Y-86389562D01*
X85857758Y-86382729D01*
X85846324Y-86380361D01*
X85804019Y-86369500D01*
X85783984Y-86369500D01*
X85764586Y-86367973D01*
X85757162Y-86366797D01*
X85744805Y-86364840D01*
X85744804Y-86364840D01*
X85711751Y-86367964D01*
X85701325Y-86368950D01*
X85689656Y-86369500D01*
X84399188Y-86369500D01*
X84332149Y-86349815D01*
X84297613Y-86316623D01*
X84185046Y-86155859D01*
X84024140Y-85994953D01*
X83837733Y-85864431D01*
X83779725Y-85837382D01*
X83727285Y-85791210D01*
X83708133Y-85724017D01*
X83728348Y-85657135D01*
X83779725Y-85612618D01*
X83837734Y-85585568D01*
X84024139Y-85455047D01*
X84185047Y-85294139D01*
X84315568Y-85107734D01*
X84411739Y-84901496D01*
X84470635Y-84681692D01*
X84490468Y-84455000D01*
X84470635Y-84228308D01*
X84411739Y-84008504D01*
X84315568Y-83802266D01*
X84298212Y-83777478D01*
X84185046Y-83615859D01*
X84024140Y-83454953D01*
X83837736Y-83324433D01*
X83837730Y-83324430D01*
X83779132Y-83297105D01*
X83726695Y-83250933D01*
X83707543Y-83183739D01*
X83727759Y-83116858D01*
X83779135Y-83072342D01*
X83837479Y-83045135D01*
X84023819Y-82914658D01*
X84184658Y-82753819D01*
X84315134Y-82567480D01*
X84411266Y-82361326D01*
X84463872Y-82165000D01*
X83500686Y-82165000D01*
X83512641Y-82153045D01*
X83570165Y-82040148D01*
X83589986Y-81915000D01*
X83570165Y-81789852D01*
X83512641Y-81676955D01*
X83500686Y-81665000D01*
X84463872Y-81665000D01*
X84463871Y-81664999D01*
X84411266Y-81468673D01*
X84315134Y-81262519D01*
X84184658Y-81076180D01*
X84023819Y-80915341D01*
X83837479Y-80784864D01*
X83778543Y-80757382D01*
X83726103Y-80711210D01*
X83706951Y-80644017D01*
X83727166Y-80577136D01*
X83778543Y-80532618D01*
X83837479Y-80505135D01*
X84023819Y-80374658D01*
X84184658Y-80213819D01*
X84315134Y-80027480D01*
X84411266Y-79821326D01*
X84463872Y-79625000D01*
X83500686Y-79625000D01*
X83512641Y-79613045D01*
X83570165Y-79500148D01*
X83589986Y-79375000D01*
X83570165Y-79249852D01*
X83512641Y-79136955D01*
X83500686Y-79125000D01*
X84463872Y-79125000D01*
X84463871Y-79124999D01*
X84411266Y-78928673D01*
X84315132Y-78722515D01*
X84271001Y-78659489D01*
X84248673Y-78593283D01*
X84265683Y-78525516D01*
X84284886Y-78500694D01*
X84693787Y-78091793D01*
X84709885Y-78078896D01*
X84711871Y-78076780D01*
X84711877Y-78076777D01*
X84757949Y-78027714D01*
X84760534Y-78025046D01*
X84780120Y-78005462D01*
X84782585Y-78002283D01*
X84790167Y-77993407D01*
X84790650Y-77992893D01*
X84820062Y-77961573D01*
X84829717Y-77944009D01*
X84840394Y-77927755D01*
X84852673Y-77911927D01*
X84870018Y-77871843D01*
X84875160Y-77861347D01*
X84885022Y-77843409D01*
X84896197Y-77823083D01*
X84901179Y-77803675D01*
X84907481Y-77785271D01*
X84915437Y-77766887D01*
X84922269Y-77723743D01*
X84924633Y-77712329D01*
X84935500Y-77670010D01*
X84935500Y-77649974D01*
X84937027Y-77630575D01*
X84940160Y-77610795D01*
X84936050Y-77567315D01*
X84935500Y-77555646D01*
X84935500Y-75502739D01*
X84937763Y-75482238D01*
X84936832Y-75452618D01*
X84935561Y-75412144D01*
X84935500Y-75408250D01*
X84935500Y-75384544D01*
X84935500Y-75380650D01*
X84934998Y-75376681D01*
X84934080Y-75365024D01*
X84932709Y-75321373D01*
X84927120Y-75302140D01*
X84923174Y-75283082D01*
X84920664Y-75263208D01*
X84904588Y-75222606D01*
X84900804Y-75211552D01*
X84888619Y-75169613D01*
X84888618Y-75169612D01*
X84888618Y-75169610D01*
X84878417Y-75152361D01*
X84869860Y-75134895D01*
X84862486Y-75116268D01*
X84836813Y-75080932D01*
X84830402Y-75071172D01*
X84813376Y-75042382D01*
X84808170Y-75033579D01*
X84794006Y-75019415D01*
X84781369Y-75004620D01*
X84769595Y-74988414D01*
X84751278Y-74973261D01*
X84735935Y-74960568D01*
X84727305Y-74952714D01*
X84484413Y-74709822D01*
X84450928Y-74648499D01*
X84452319Y-74590047D01*
X84470635Y-74521692D01*
X84490468Y-74295000D01*
X84470635Y-74068308D01*
X84411739Y-73848504D01*
X84315568Y-73642266D01*
X84286441Y-73600667D01*
X84185046Y-73455859D01*
X84024140Y-73294953D01*
X83999537Y-73277726D01*
X83955912Y-73223150D01*
X83948718Y-73153651D01*
X83980241Y-73091296D01*
X84040470Y-73055882D01*
X84057401Y-73052862D01*
X84092483Y-73049091D01*
X84227331Y-72998796D01*
X84342546Y-72912546D01*
X84428796Y-72797331D01*
X84479091Y-72662483D01*
X84485500Y-72602873D01*
X84485500Y-72504499D01*
X84505185Y-72437461D01*
X84557989Y-72391706D01*
X84609500Y-72380500D01*
X89590812Y-72380500D01*
X89657851Y-72400185D01*
G37*
%TD.AperFunction*%
%TA.AperFunction,Conductor*%
G36*
X132639169Y-71928847D02*
G01*
X132641999Y-71931589D01*
X133323181Y-72612771D01*
X133356666Y-72674094D01*
X133359500Y-72700452D01*
X133359500Y-86049546D01*
X133339815Y-86116585D01*
X133323181Y-86137227D01*
X132957819Y-86502588D01*
X132896496Y-86536073D01*
X132826804Y-86531089D01*
X132770871Y-86489217D01*
X132746454Y-86423753D01*
X132746610Y-86404099D01*
X132749770Y-86367973D01*
X132750468Y-86360000D01*
X132748916Y-86342266D01*
X132731215Y-86139934D01*
X132730635Y-86133308D01*
X132671739Y-85913504D01*
X132575568Y-85707266D01*
X132540467Y-85657135D01*
X132445046Y-85520859D01*
X132284140Y-85359953D01*
X132097733Y-85229431D01*
X132039725Y-85202382D01*
X131987285Y-85156210D01*
X131968133Y-85089017D01*
X131988348Y-85022135D01*
X132039725Y-84977618D01*
X132097734Y-84950568D01*
X132284139Y-84820047D01*
X132445047Y-84659139D01*
X132575568Y-84472734D01*
X132671739Y-84266496D01*
X132730635Y-84046692D01*
X132750468Y-83820000D01*
X132730635Y-83593308D01*
X132671739Y-83373504D01*
X132575568Y-83167266D01*
X132574005Y-83165033D01*
X132445046Y-82980859D01*
X132284140Y-82819953D01*
X132097736Y-82689433D01*
X132039725Y-82662382D01*
X132039132Y-82662105D01*
X131986695Y-82615933D01*
X131967543Y-82548739D01*
X131987759Y-82481858D01*
X132039135Y-82437342D01*
X132097479Y-82410135D01*
X132283819Y-82279658D01*
X132444658Y-82118819D01*
X132575134Y-81932480D01*
X132671266Y-81726326D01*
X132723872Y-81530000D01*
X131760686Y-81530000D01*
X131772641Y-81518045D01*
X131830165Y-81405148D01*
X131849986Y-81280000D01*
X131830165Y-81154852D01*
X131772641Y-81041955D01*
X131760686Y-81030000D01*
X132723872Y-81030000D01*
X132723871Y-81029999D01*
X132671266Y-80833673D01*
X132575134Y-80627519D01*
X132444658Y-80441180D01*
X132283819Y-80280341D01*
X132097479Y-80149864D01*
X132038543Y-80122382D01*
X131986103Y-80076210D01*
X131966951Y-80009017D01*
X131987166Y-79942136D01*
X132038543Y-79897618D01*
X132097479Y-79870135D01*
X132283819Y-79739658D01*
X132444658Y-79578819D01*
X132575134Y-79392480D01*
X132671266Y-79186326D01*
X132723872Y-78990000D01*
X131760686Y-78990000D01*
X131772641Y-78978045D01*
X131830165Y-78865148D01*
X131849986Y-78740000D01*
X131830165Y-78614852D01*
X131772641Y-78501955D01*
X131760686Y-78490000D01*
X132723872Y-78490000D01*
X132723871Y-78489999D01*
X132671266Y-78293673D01*
X132575134Y-78087519D01*
X132444658Y-77901180D01*
X132283819Y-77740341D01*
X132097482Y-77609866D01*
X132039133Y-77582657D01*
X131986694Y-77536484D01*
X131967543Y-77469290D01*
X131987759Y-77402409D01*
X132039134Y-77357893D01*
X132097734Y-77330568D01*
X132284139Y-77200047D01*
X132445047Y-77039139D01*
X132575568Y-76852734D01*
X132671739Y-76646496D01*
X132730635Y-76426692D01*
X132750468Y-76200000D01*
X132730635Y-75973308D01*
X132671739Y-75753504D01*
X132575568Y-75547266D01*
X132573135Y-75543790D01*
X132445046Y-75360859D01*
X132284140Y-75199953D01*
X132097733Y-75069431D01*
X132039725Y-75042382D01*
X131987285Y-74996210D01*
X131968133Y-74929017D01*
X131988348Y-74862135D01*
X132039725Y-74817618D01*
X132097734Y-74790568D01*
X132284139Y-74660047D01*
X132445047Y-74499139D01*
X132575568Y-74312734D01*
X132671739Y-74106496D01*
X132730635Y-73886692D01*
X132750468Y-73660000D01*
X132748916Y-73642266D01*
X132731215Y-73439934D01*
X132730635Y-73433308D01*
X132671739Y-73213504D01*
X132575568Y-73007266D01*
X132569638Y-72998796D01*
X132445046Y-72820859D01*
X132284140Y-72659953D01*
X132097733Y-72529431D01*
X132056727Y-72510310D01*
X132039724Y-72502381D01*
X131987285Y-72456210D01*
X131968133Y-72389017D01*
X131988348Y-72322135D01*
X132039725Y-72277618D01*
X132097734Y-72250568D01*
X132284139Y-72120047D01*
X132445047Y-71959139D01*
X132452741Y-71948149D01*
X132507315Y-71904524D01*
X132576813Y-71897327D01*
X132639169Y-71928847D01*
G37*
%TD.AperFunction*%
%TA.AperFunction,Conductor*%
G36*
X122563542Y-78115185D02*
G01*
X122609297Y-78167989D01*
X122619241Y-78237147D01*
X122608885Y-78271905D01*
X122598733Y-78293674D01*
X122546128Y-78489999D01*
X122546128Y-78490000D01*
X123509314Y-78490000D01*
X123497359Y-78501955D01*
X123439835Y-78614852D01*
X123420014Y-78740000D01*
X123439835Y-78865148D01*
X123497359Y-78978045D01*
X123509314Y-78990000D01*
X122546128Y-78990000D01*
X122598733Y-79186326D01*
X122694865Y-79392480D01*
X122825341Y-79578819D01*
X122986180Y-79739658D01*
X123172519Y-79870134D01*
X123231456Y-79897618D01*
X123283895Y-79943791D01*
X123303047Y-80010985D01*
X123282831Y-80077866D01*
X123231456Y-80122382D01*
X123172519Y-80149865D01*
X122986180Y-80280341D01*
X122825341Y-80441180D01*
X122694865Y-80627519D01*
X122598733Y-80833673D01*
X122546128Y-81029999D01*
X122546128Y-81030000D01*
X123509314Y-81030000D01*
X123497359Y-81041955D01*
X123439835Y-81154852D01*
X123420014Y-81280000D01*
X123439835Y-81405148D01*
X123497359Y-81518045D01*
X123509314Y-81530000D01*
X122546128Y-81530000D01*
X122598733Y-81726326D01*
X122694865Y-81932480D01*
X122825341Y-82118819D01*
X122986180Y-82279658D01*
X123172519Y-82410134D01*
X123230865Y-82437342D01*
X123283304Y-82483514D01*
X123302456Y-82550708D01*
X123282240Y-82617589D01*
X123230866Y-82662105D01*
X123172267Y-82689430D01*
X122985859Y-82819953D01*
X122824953Y-82980859D01*
X122694432Y-83167264D01*
X122598261Y-83373502D01*
X122539364Y-83593310D01*
X122519531Y-83819999D01*
X122539364Y-84046689D01*
X122598261Y-84266497D01*
X122675948Y-84433095D01*
X122686440Y-84502172D01*
X122657921Y-84565956D01*
X122599444Y-84604196D01*
X122563566Y-84609500D01*
X119200453Y-84609500D01*
X119133414Y-84589815D01*
X119112772Y-84573181D01*
X118743386Y-84203795D01*
X118709901Y-84142472D01*
X118711293Y-84084018D01*
X118721026Y-84047697D01*
X118723070Y-84040068D01*
X118742323Y-83820000D01*
X118723070Y-83599932D01*
X118665894Y-83386550D01*
X118572534Y-83186339D01*
X118445826Y-83005380D01*
X118289620Y-82849174D01*
X118108662Y-82722466D01*
X117979811Y-82662382D01*
X117927372Y-82616210D01*
X117908220Y-82549016D01*
X117928436Y-82482135D01*
X117979811Y-82437618D01*
X117985027Y-82435185D01*
X118108662Y-82377534D01*
X118289620Y-82250826D01*
X118445826Y-82094620D01*
X118572534Y-81913662D01*
X118665894Y-81713450D01*
X118723070Y-81500068D01*
X118742323Y-81280000D01*
X118723070Y-81059932D01*
X118711292Y-81015976D01*
X118712955Y-80946128D01*
X118743384Y-80896204D01*
X121507770Y-78131819D01*
X121569094Y-78098334D01*
X121595452Y-78095500D01*
X122496503Y-78095500D01*
X122563542Y-78115185D01*
G37*
%TD.AperFunction*%
%TA.AperFunction,Conductor*%
G36*
X130297851Y-74305185D02*
G01*
X130332387Y-74338377D01*
X130444953Y-74499140D01*
X130605859Y-74660046D01*
X130745087Y-74757533D01*
X130792266Y-74790568D01*
X130850273Y-74817617D01*
X130902713Y-74863789D01*
X130921865Y-74930982D01*
X130901650Y-74997864D01*
X130850276Y-75042380D01*
X130792266Y-75069431D01*
X130605859Y-75199953D01*
X130444953Y-75360859D01*
X130314432Y-75547264D01*
X130218261Y-75753502D01*
X130159364Y-75973310D01*
X130139531Y-76200000D01*
X130159364Y-76426689D01*
X130218261Y-76646497D01*
X130314432Y-76852735D01*
X130444953Y-77039140D01*
X130605859Y-77200046D01*
X130792264Y-77330567D01*
X130792265Y-77330567D01*
X130792266Y-77330568D01*
X130850865Y-77357893D01*
X130903304Y-77404065D01*
X130922456Y-77471259D01*
X130902240Y-77538140D01*
X130850866Y-77582656D01*
X130792522Y-77609863D01*
X130606180Y-77740341D01*
X130445341Y-77901180D01*
X130314865Y-78087519D01*
X130218733Y-78293673D01*
X130166128Y-78489999D01*
X130166128Y-78490000D01*
X131129314Y-78490000D01*
X131117359Y-78501955D01*
X131059835Y-78614852D01*
X131040014Y-78740000D01*
X131059835Y-78865148D01*
X131117359Y-78978045D01*
X131129314Y-78990000D01*
X130166128Y-78990000D01*
X130218733Y-79186326D01*
X130314865Y-79392480D01*
X130445341Y-79578819D01*
X130606180Y-79739658D01*
X130792519Y-79870134D01*
X130851456Y-79897618D01*
X130903895Y-79943791D01*
X130923047Y-80010985D01*
X130902831Y-80077866D01*
X130851456Y-80122382D01*
X130792519Y-80149865D01*
X130606180Y-80280341D01*
X130445341Y-80441180D01*
X130314865Y-80627519D01*
X130218733Y-80833673D01*
X130166128Y-81029999D01*
X130166128Y-81030000D01*
X131129314Y-81030000D01*
X131117359Y-81041955D01*
X131059835Y-81154852D01*
X131040014Y-81280000D01*
X131059835Y-81405148D01*
X131117359Y-81518045D01*
X131129314Y-81530000D01*
X130166128Y-81530000D01*
X130218733Y-81726326D01*
X130314865Y-81932480D01*
X130445341Y-82118819D01*
X130606180Y-82279658D01*
X130792519Y-82410134D01*
X130850865Y-82437342D01*
X130903304Y-82483514D01*
X130922456Y-82550708D01*
X130902240Y-82617589D01*
X130850866Y-82662105D01*
X130792267Y-82689430D01*
X130605859Y-82819953D01*
X130444953Y-82980859D01*
X130314432Y-83167264D01*
X130218261Y-83373502D01*
X130159364Y-83593310D01*
X130139531Y-83820000D01*
X130159364Y-84046689D01*
X130218261Y-84266497D01*
X130295948Y-84433095D01*
X130306440Y-84502172D01*
X130277921Y-84565956D01*
X130219444Y-84604196D01*
X130183566Y-84609500D01*
X125086434Y-84609500D01*
X125019395Y-84589815D01*
X124973640Y-84537011D01*
X124963696Y-84467853D01*
X124974052Y-84433095D01*
X125033388Y-84305849D01*
X125051739Y-84266496D01*
X125110635Y-84046692D01*
X125130468Y-83820000D01*
X125110635Y-83593308D01*
X125051739Y-83373504D01*
X124955568Y-83167266D01*
X124954005Y-83165033D01*
X124825046Y-82980859D01*
X124664140Y-82819953D01*
X124477736Y-82689433D01*
X124419725Y-82662382D01*
X124419132Y-82662105D01*
X124366695Y-82615933D01*
X124347543Y-82548739D01*
X124367759Y-82481858D01*
X124419135Y-82437342D01*
X124477479Y-82410135D01*
X124663819Y-82279658D01*
X124824658Y-82118819D01*
X124955134Y-81932480D01*
X125051266Y-81726326D01*
X125103872Y-81530000D01*
X124140686Y-81530000D01*
X124152641Y-81518045D01*
X124210165Y-81405148D01*
X124229986Y-81280000D01*
X124210165Y-81154852D01*
X124152641Y-81041955D01*
X124140686Y-81030000D01*
X125103872Y-81030000D01*
X125103871Y-81029999D01*
X125051266Y-80833673D01*
X124955134Y-80627519D01*
X124824658Y-80441180D01*
X124663819Y-80280341D01*
X124477479Y-80149864D01*
X124418543Y-80122382D01*
X124366103Y-80076210D01*
X124346951Y-80009017D01*
X124367166Y-79942136D01*
X124418543Y-79897618D01*
X124477479Y-79870135D01*
X124663819Y-79739658D01*
X124824658Y-79578819D01*
X124955134Y-79392480D01*
X125051266Y-79186326D01*
X125103872Y-78990000D01*
X124140686Y-78990000D01*
X124152641Y-78978045D01*
X124210165Y-78865148D01*
X124229986Y-78740000D01*
X124210165Y-78614852D01*
X124152641Y-78501955D01*
X124140686Y-78490000D01*
X125103872Y-78490000D01*
X125103871Y-78489999D01*
X125051266Y-78293673D01*
X124955134Y-78087518D01*
X124920889Y-78038612D01*
X124898561Y-77972406D01*
X124915570Y-77904638D01*
X124934778Y-77879810D01*
X128492770Y-74321819D01*
X128554094Y-74288334D01*
X128580452Y-74285500D01*
X130230812Y-74285500D01*
X130297851Y-74305185D01*
G37*
%TD.AperFunction*%
%TA.AperFunction,Conductor*%
G36*
X83435000Y-81599314D02*
G01*
X83423045Y-81587359D01*
X83310148Y-81529835D01*
X83216481Y-81515000D01*
X83153519Y-81515000D01*
X83059852Y-81529835D01*
X82946955Y-81587359D01*
X82935000Y-81599314D01*
X82935000Y-79690686D01*
X82946955Y-79702641D01*
X83059852Y-79760165D01*
X83153519Y-79775000D01*
X83216481Y-79775000D01*
X83310148Y-79760165D01*
X83423045Y-79702641D01*
X83435000Y-79690686D01*
X83435000Y-81599314D01*
G37*
%TD.AperFunction*%
%TA.AperFunction,Conductor*%
G36*
X91055000Y-81599314D02*
G01*
X91043045Y-81587359D01*
X90930148Y-81529835D01*
X90836481Y-81515000D01*
X90773519Y-81515000D01*
X90679852Y-81529835D01*
X90566955Y-81587359D01*
X90555000Y-81599314D01*
X90555000Y-79690686D01*
X90566955Y-79702641D01*
X90679852Y-79760165D01*
X90773519Y-79775000D01*
X90836481Y-79775000D01*
X90930148Y-79760165D01*
X91043045Y-79702641D01*
X91055000Y-79690686D01*
X91055000Y-81599314D01*
G37*
%TD.AperFunction*%
%TA.AperFunction,Conductor*%
G36*
X124075000Y-80964314D02*
G01*
X124063045Y-80952359D01*
X123950148Y-80894835D01*
X123856481Y-80880000D01*
X123793519Y-80880000D01*
X123699852Y-80894835D01*
X123586955Y-80952359D01*
X123575000Y-80964313D01*
X123575000Y-79055686D01*
X123586955Y-79067641D01*
X123699852Y-79125165D01*
X123793519Y-79140000D01*
X123856481Y-79140000D01*
X123950148Y-79125165D01*
X124063045Y-79067641D01*
X124075000Y-79055685D01*
X124075000Y-80964314D01*
G37*
%TD.AperFunction*%
%TA.AperFunction,Conductor*%
G36*
X131695000Y-80964314D02*
G01*
X131683045Y-80952359D01*
X131570148Y-80894835D01*
X131476481Y-80880000D01*
X131413519Y-80880000D01*
X131319852Y-80894835D01*
X131206955Y-80952359D01*
X131195000Y-80964313D01*
X131195000Y-79055686D01*
X131206955Y-79067641D01*
X131319852Y-79125165D01*
X131413519Y-79140000D01*
X131476481Y-79140000D01*
X131570148Y-79125165D01*
X131683045Y-79067641D01*
X131695000Y-79055685D01*
X131695000Y-80964314D01*
G37*
%TD.AperFunction*%
%TA.AperFunction,Conductor*%
G36*
X150437539Y-55900185D02*
G01*
X150483294Y-55952989D01*
X150494500Y-56004500D01*
X150494500Y-108460500D01*
X150474815Y-108527539D01*
X150422011Y-108573294D01*
X150370500Y-108584500D01*
X77594500Y-108584500D01*
X77527461Y-108564815D01*
X77481706Y-108512011D01*
X77470500Y-108460500D01*
X77470500Y-105410000D01*
X78631761Y-105410000D01*
X78632050Y-105414225D01*
X78632050Y-105414226D01*
X78638137Y-105503231D01*
X78636379Y-105511192D01*
X78640250Y-105538734D01*
X78641168Y-105547528D01*
X78641556Y-105553199D01*
X78641845Y-105561663D01*
X78641845Y-105584763D01*
X78644342Y-105593944D01*
X78650222Y-105679903D01*
X78650512Y-105684136D01*
X78651375Y-105688291D01*
X78651376Y-105688295D01*
X78670147Y-105778627D01*
X78669415Y-105787670D01*
X78677631Y-105816322D01*
X78679842Y-105825279D01*
X78681125Y-105831455D01*
X78682510Y-105839415D01*
X78685411Y-105860054D01*
X78688645Y-105867642D01*
X78706417Y-105953165D01*
X78707835Y-105957155D01*
X78707836Y-105957157D01*
X78739769Y-106047009D01*
X78740326Y-106056978D01*
X78753170Y-106085826D01*
X78756727Y-106094725D01*
X78759224Y-106101749D01*
X78761583Y-106109105D01*
X78766612Y-106126643D01*
X78770191Y-106132609D01*
X78798434Y-106212077D01*
X78800381Y-106215835D01*
X78800383Y-106215839D01*
X78845677Y-106303251D01*
X78847756Y-106313923D01*
X78865311Y-106342016D01*
X78870254Y-106350682D01*
X78874534Y-106358943D01*
X78877711Y-106365547D01*
X78883897Y-106379441D01*
X78887430Y-106383831D01*
X78924850Y-106456047D01*
X78927296Y-106459512D01*
X78985859Y-106542477D01*
X78989653Y-106553590D01*
X79011832Y-106580021D01*
X79018136Y-106588204D01*
X79024942Y-106597846D01*
X79028781Y-106603621D01*
X79034994Y-106613564D01*
X79038112Y-106616503D01*
X79083308Y-106680531D01*
X79086196Y-106683623D01*
X79157641Y-106760122D01*
X79163296Y-106771376D01*
X79189828Y-106795266D01*
X79197485Y-106802785D01*
X79207744Y-106813771D01*
X79212101Y-106818693D01*
X79217006Y-106824539D01*
X79219373Y-106826221D01*
X79267962Y-106878248D01*
X79270857Y-106881347D01*
X79357762Y-106952050D01*
X79365373Y-106963122D01*
X79395860Y-106983685D01*
X79404764Y-106990289D01*
X79419531Y-107002302D01*
X79424235Y-107006330D01*
X79426410Y-107008288D01*
X79427743Y-107008983D01*
X79484005Y-107054756D01*
X79582402Y-107114592D01*
X79592005Y-107125134D01*
X79625898Y-107141665D01*
X79635965Y-107147165D01*
X79656480Y-107159640D01*
X79658933Y-107161212D01*
X79659248Y-107161323D01*
X79718779Y-107197525D01*
X79722664Y-107199212D01*
X79722667Y-107199214D01*
X79827283Y-107244655D01*
X79838854Y-107254309D01*
X79875502Y-107266217D01*
X79886587Y-107270414D01*
X79958457Y-107301632D01*
X79970807Y-107306996D01*
X80087743Y-107339760D01*
X80101189Y-107348167D01*
X80139831Y-107354981D01*
X80151747Y-107357693D01*
X80235394Y-107381130D01*
X80325624Y-107393532D01*
X80358822Y-107398095D01*
X80373997Y-107404912D01*
X80413835Y-107406303D01*
X80426380Y-107407380D01*
X80507612Y-107418546D01*
X80511849Y-107418546D01*
X80635354Y-107418546D01*
X80652048Y-107423448D01*
X80692225Y-107419225D01*
X80705187Y-107418546D01*
X80778151Y-107418546D01*
X80782388Y-107418546D01*
X80912070Y-107400721D01*
X80930017Y-107403415D01*
X80969655Y-107393532D01*
X80982759Y-107391005D01*
X81054606Y-107381130D01*
X81183694Y-107344961D01*
X81202570Y-107345195D01*
X81240802Y-107329749D01*
X81253794Y-107325319D01*
X81319193Y-107306996D01*
X81445061Y-107252323D01*
X81464512Y-107249895D01*
X81500509Y-107229113D01*
X81513093Y-107222773D01*
X81571221Y-107197525D01*
X81691181Y-107124575D01*
X81710806Y-107119338D01*
X81743767Y-107093587D01*
X81755670Y-107085359D01*
X81805995Y-107054756D01*
X81917365Y-106964148D01*
X81936738Y-106956018D01*
X81965947Y-106925772D01*
X81976884Y-106915726D01*
X82019143Y-106881347D01*
X82119304Y-106774100D01*
X82137976Y-106763060D01*
X82162786Y-106728913D01*
X82172483Y-106717160D01*
X82175592Y-106713830D01*
X82206692Y-106680531D01*
X82293156Y-106558038D01*
X82310677Y-106544141D01*
X82330553Y-106506760D01*
X82338726Y-106493480D01*
X82365150Y-106456047D01*
X82435590Y-106320104D01*
X82451514Y-106303472D01*
X82466021Y-106263616D01*
X82472446Y-106248977D01*
X82489614Y-106215844D01*
X82489613Y-106215844D01*
X82491566Y-106212077D01*
X82543906Y-106064804D01*
X82557797Y-106045635D01*
X82566626Y-106004097D01*
X82571071Y-105988367D01*
X82583583Y-105953165D01*
X82639488Y-105684136D01*
X82658239Y-105410000D01*
X82639488Y-105135864D01*
X82583583Y-104866835D01*
X82571078Y-104831649D01*
X82566628Y-104815905D01*
X82559465Y-104782208D01*
X82543910Y-104755207D01*
X82491566Y-104607923D01*
X82472447Y-104571025D01*
X82466022Y-104556386D01*
X82454179Y-104523848D01*
X82435591Y-104499897D01*
X82367099Y-104367715D01*
X82365150Y-104363953D01*
X82338739Y-104326537D01*
X82330557Y-104313243D01*
X82314231Y-104282540D01*
X82293156Y-104261961D01*
X82206692Y-104139469D01*
X82172480Y-104102837D01*
X82162787Y-104091087D01*
X82142288Y-104062873D01*
X82119306Y-104045901D01*
X82022030Y-103941744D01*
X82022028Y-103941742D01*
X82019143Y-103938653D01*
X81976891Y-103904278D01*
X81965953Y-103894232D01*
X81941676Y-103869092D01*
X81917365Y-103855850D01*
X81809287Y-103767922D01*
X81809284Y-103767920D01*
X81805995Y-103765244D01*
X81801248Y-103762357D01*
X81755683Y-103734648D01*
X81743772Y-103726415D01*
X81716218Y-103704888D01*
X81691179Y-103695423D01*
X81574839Y-103624675D01*
X81574835Y-103624673D01*
X81571221Y-103622475D01*
X81567341Y-103620789D01*
X81567332Y-103620785D01*
X81513113Y-103597235D01*
X81500514Y-103590888D01*
X81470254Y-103573417D01*
X81445063Y-103567676D01*
X81323080Y-103514691D01*
X81323062Y-103514684D01*
X81319193Y-103513004D01*
X81253806Y-103494683D01*
X81240811Y-103490252D01*
X81208489Y-103477193D01*
X81183695Y-103475038D01*
X81058689Y-103440013D01*
X81058675Y-103440010D01*
X81054606Y-103438870D01*
X81050416Y-103438294D01*
X81050406Y-103438292D01*
X80982776Y-103428997D01*
X80969663Y-103426469D01*
X80935966Y-103418067D01*
X80912071Y-103419278D01*
X80786588Y-103402031D01*
X80786583Y-103402030D01*
X80782388Y-103401454D01*
X80705183Y-103401454D01*
X80692222Y-103400775D01*
X80657891Y-103397166D01*
X80635354Y-103401454D01*
X80507612Y-103401454D01*
X80503417Y-103402030D01*
X80503411Y-103402031D01*
X80426405Y-103412615D01*
X80413849Y-103413694D01*
X80379620Y-103414889D01*
X80358825Y-103421904D01*
X80239591Y-103438293D01*
X80239589Y-103438293D01*
X80235394Y-103438870D01*
X80231330Y-103440008D01*
X80231314Y-103440012D01*
X80151764Y-103462302D01*
X80139841Y-103465016D01*
X80106463Y-103470901D01*
X80087745Y-103480239D01*
X79974875Y-103511864D01*
X79974872Y-103511864D01*
X79970807Y-103513004D01*
X79966935Y-103514685D01*
X79966926Y-103514689D01*
X79886591Y-103549583D01*
X79875510Y-103553779D01*
X79843695Y-103564116D01*
X79827285Y-103575344D01*
X79722662Y-103620788D01*
X79722657Y-103620790D01*
X79718779Y-103622475D01*
X79715167Y-103624671D01*
X79715164Y-103624673D01*
X79659251Y-103658674D01*
X79659008Y-103658738D01*
X79656450Y-103660378D01*
X79635982Y-103672825D01*
X79625912Y-103678327D01*
X79596332Y-103692753D01*
X79582404Y-103705406D01*
X79487625Y-103763042D01*
X79487618Y-103763046D01*
X79484005Y-103765244D01*
X79480718Y-103767918D01*
X79480714Y-103767921D01*
X79427743Y-103811016D01*
X79426691Y-103811457D01*
X79424228Y-103813675D01*
X79419521Y-103817705D01*
X79404788Y-103829692D01*
X79395870Y-103836306D01*
X79369135Y-103854338D01*
X79357763Y-103867949D01*
X79274142Y-103935980D01*
X79274138Y-103935983D01*
X79270857Y-103938653D01*
X79267974Y-103941739D01*
X79267961Y-103941752D01*
X79219373Y-103993777D01*
X79217480Y-103994895D01*
X79212092Y-104001317D01*
X79207730Y-104006243D01*
X79197479Y-104017219D01*
X79189830Y-104024730D01*
X79166453Y-104045779D01*
X79157642Y-104059875D01*
X79086202Y-104136368D01*
X79086187Y-104136385D01*
X79083308Y-104139469D01*
X79080871Y-104142920D01*
X79080868Y-104142925D01*
X79038114Y-104203494D01*
X79035571Y-104205510D01*
X79028776Y-104216384D01*
X79024925Y-104222177D01*
X79018150Y-104231775D01*
X79011837Y-104239971D01*
X78992200Y-104263373D01*
X78985860Y-104277520D01*
X78924850Y-104363953D01*
X78922901Y-104367714D01*
X78922900Y-104367716D01*
X78887430Y-104436168D01*
X78884479Y-104439248D01*
X78877708Y-104454458D01*
X78874524Y-104461076D01*
X78870249Y-104469325D01*
X78865314Y-104477977D01*
X78849699Y-104502966D01*
X78845677Y-104516748D01*
X78800383Y-104604160D01*
X78800378Y-104604170D01*
X78798434Y-104607923D01*
X78797017Y-104611908D01*
X78797013Y-104611919D01*
X78770192Y-104687388D01*
X78767100Y-104691654D01*
X78761581Y-104710901D01*
X78759229Y-104718234D01*
X78756738Y-104725245D01*
X78753174Y-104734165D01*
X78741694Y-104759948D01*
X78739769Y-104772988D01*
X78706417Y-104866835D01*
X78705554Y-104870985D01*
X78705553Y-104870991D01*
X78688645Y-104952356D01*
X78685702Y-104957866D01*
X78682507Y-104980599D01*
X78681122Y-104988559D01*
X78679843Y-104994716D01*
X78677632Y-105003674D01*
X78670259Y-105029386D01*
X78670148Y-105041370D01*
X78650512Y-105135864D01*
X78650223Y-105140088D01*
X78650222Y-105140096D01*
X78644343Y-105226053D01*
X78641845Y-105232814D01*
X78641845Y-105258336D01*
X78641555Y-105266806D01*
X78641167Y-105272473D01*
X78640250Y-105281260D01*
X78636761Y-105306085D01*
X78638138Y-105316768D01*
X78631761Y-105410000D01*
X77470500Y-105410000D01*
X77470500Y-99060000D01*
X84854340Y-99060000D01*
X84874936Y-99295407D01*
X84936097Y-99523663D01*
X85035965Y-99737829D01*
X85171505Y-99931401D01*
X85318705Y-100078601D01*
X85352190Y-100139924D01*
X85347206Y-100209616D01*
X85305334Y-100265549D01*
X85296121Y-100271821D01*
X85141341Y-100367289D01*
X85017288Y-100491342D01*
X84925186Y-100640665D01*
X84870000Y-100807202D01*
X84859819Y-100906858D01*
X84859817Y-100906878D01*
X84859500Y-100909991D01*
X84859500Y-100913138D01*
X84859500Y-100913139D01*
X84859500Y-102206859D01*
X84859500Y-102206878D01*
X84859501Y-102210008D01*
X84859820Y-102213140D01*
X84859821Y-102213141D01*
X84870000Y-102312796D01*
X84925186Y-102479334D01*
X85017288Y-102628657D01*
X85141342Y-102752711D01*
X85143234Y-102753878D01*
X85290666Y-102844814D01*
X85358594Y-102867323D01*
X85457202Y-102899999D01*
X85556858Y-102910180D01*
X85556859Y-102910180D01*
X85559991Y-102910500D01*
X87160008Y-102910499D01*
X87262797Y-102899999D01*
X87362218Y-102867053D01*
X87432044Y-102864652D01*
X87492086Y-102900383D01*
X87523279Y-102962904D01*
X87523587Y-103004820D01*
X87505740Y-103113684D01*
X87515754Y-103298407D01*
X87565245Y-103476658D01*
X87651899Y-103640103D01*
X87771663Y-103781100D01*
X87918936Y-103893055D01*
X88086830Y-103970731D01*
X88086831Y-103970731D01*
X88086833Y-103970732D01*
X88267503Y-104010500D01*
X88402754Y-104010500D01*
X88406113Y-104010500D01*
X88543910Y-103995514D01*
X88719221Y-103936444D01*
X88877736Y-103841070D01*
X89012041Y-103713849D01*
X89115858Y-103560730D01*
X89171171Y-103421904D01*
X89184330Y-103388878D01*
X89184330Y-103388877D01*
X89184331Y-103388875D01*
X89214260Y-103206317D01*
X89204245Y-103021593D01*
X89173400Y-102910500D01*
X89154754Y-102843341D01*
X89068100Y-102679896D01*
X88948336Y-102538899D01*
X88801063Y-102426944D01*
X88633169Y-102349268D01*
X88452497Y-102309500D01*
X88313887Y-102309500D01*
X88310552Y-102309862D01*
X88310546Y-102309863D01*
X88176089Y-102324485D01*
X88019663Y-102377192D01*
X87949848Y-102379944D01*
X87889628Y-102344513D01*
X87858122Y-102282150D01*
X87856712Y-102247084D01*
X87860500Y-102210009D01*
X87860499Y-101089451D01*
X87880184Y-101022413D01*
X87932987Y-100976658D01*
X88002146Y-100966714D01*
X88065702Y-100995739D01*
X88072180Y-101001771D01*
X92045586Y-104975177D01*
X92079071Y-105036500D01*
X92077680Y-105094950D01*
X92059364Y-105163307D01*
X92039531Y-105390000D01*
X92059364Y-105616689D01*
X92118261Y-105836497D01*
X92214432Y-106042735D01*
X92344953Y-106229140D01*
X92505859Y-106390046D01*
X92692264Y-106520567D01*
X92692265Y-106520567D01*
X92692266Y-106520568D01*
X92898504Y-106616739D01*
X93118308Y-106675635D01*
X93345000Y-106695468D01*
X93571692Y-106675635D01*
X93791496Y-106616739D01*
X93997734Y-106520568D01*
X94184139Y-106390047D01*
X94345047Y-106229139D01*
X94475568Y-106042734D01*
X94571739Y-105836496D01*
X94630635Y-105616692D01*
X94648718Y-105410000D01*
X145306761Y-105410000D01*
X145307050Y-105414225D01*
X145307050Y-105414226D01*
X145313137Y-105503231D01*
X145311379Y-105511192D01*
X145315250Y-105538734D01*
X145316168Y-105547528D01*
X145316556Y-105553199D01*
X145316845Y-105561663D01*
X145316844Y-105584763D01*
X145319342Y-105593944D01*
X145325222Y-105679903D01*
X145325512Y-105684136D01*
X145326375Y-105688291D01*
X145326376Y-105688295D01*
X145345147Y-105778627D01*
X145344415Y-105787670D01*
X145352631Y-105816322D01*
X145354842Y-105825279D01*
X145356125Y-105831455D01*
X145357510Y-105839415D01*
X145360411Y-105860054D01*
X145363645Y-105867642D01*
X145381417Y-105953165D01*
X145382835Y-105957155D01*
X145382836Y-105957157D01*
X145414769Y-106047009D01*
X145415326Y-106056978D01*
X145428170Y-106085826D01*
X145431727Y-106094725D01*
X145434224Y-106101749D01*
X145436583Y-106109105D01*
X145441612Y-106126643D01*
X145445191Y-106132609D01*
X145473434Y-106212077D01*
X145475381Y-106215835D01*
X145475383Y-106215839D01*
X145520677Y-106303251D01*
X145522756Y-106313923D01*
X145540311Y-106342016D01*
X145545254Y-106350682D01*
X145549534Y-106358943D01*
X145552711Y-106365547D01*
X145558897Y-106379441D01*
X145562430Y-106383831D01*
X145599850Y-106456047D01*
X145602296Y-106459512D01*
X145660859Y-106542477D01*
X145664653Y-106553590D01*
X145686832Y-106580021D01*
X145693136Y-106588204D01*
X145699942Y-106597846D01*
X145703781Y-106603621D01*
X145709994Y-106613564D01*
X145713112Y-106616503D01*
X145758308Y-106680531D01*
X145761196Y-106683623D01*
X145832641Y-106760122D01*
X145838296Y-106771376D01*
X145864828Y-106795266D01*
X145872485Y-106802785D01*
X145882744Y-106813771D01*
X145887101Y-106818693D01*
X145892006Y-106824539D01*
X145894373Y-106826221D01*
X145942962Y-106878248D01*
X145945857Y-106881347D01*
X146032762Y-106952050D01*
X146040373Y-106963122D01*
X146070860Y-106983685D01*
X146079764Y-106990289D01*
X146094531Y-107002302D01*
X146099235Y-107006330D01*
X146101410Y-107008288D01*
X146102743Y-107008983D01*
X146159005Y-107054756D01*
X146257402Y-107114592D01*
X146267005Y-107125134D01*
X146300898Y-107141665D01*
X146310965Y-107147165D01*
X146331480Y-107159640D01*
X146333933Y-107161212D01*
X146334248Y-107161323D01*
X146393779Y-107197525D01*
X146397664Y-107199212D01*
X146397667Y-107199214D01*
X146502283Y-107244655D01*
X146513854Y-107254309D01*
X146550502Y-107266217D01*
X146561587Y-107270414D01*
X146633457Y-107301632D01*
X146645807Y-107306996D01*
X146762743Y-107339760D01*
X146776189Y-107348167D01*
X146814831Y-107354981D01*
X146826747Y-107357693D01*
X146910394Y-107381130D01*
X147000624Y-107393532D01*
X147033822Y-107398095D01*
X147048997Y-107404912D01*
X147088835Y-107406303D01*
X147101380Y-107407380D01*
X147182612Y-107418546D01*
X147186849Y-107418546D01*
X147310354Y-107418546D01*
X147327048Y-107423448D01*
X147367225Y-107419225D01*
X147380187Y-107418546D01*
X147453151Y-107418546D01*
X147457388Y-107418546D01*
X147587070Y-107400721D01*
X147605017Y-107403415D01*
X147644655Y-107393532D01*
X147657759Y-107391005D01*
X147729606Y-107381130D01*
X147858694Y-107344961D01*
X147877570Y-107345195D01*
X147915802Y-107329749D01*
X147928794Y-107325319D01*
X147994193Y-107306996D01*
X148120061Y-107252323D01*
X148139512Y-107249895D01*
X148175509Y-107229113D01*
X148188093Y-107222773D01*
X148246221Y-107197525D01*
X148366181Y-107124575D01*
X148385806Y-107119338D01*
X148418767Y-107093587D01*
X148430670Y-107085359D01*
X148480995Y-107054756D01*
X148592365Y-106964148D01*
X148611738Y-106956018D01*
X148640947Y-106925772D01*
X148651884Y-106915726D01*
X148694143Y-106881347D01*
X148794304Y-106774100D01*
X148812976Y-106763060D01*
X148837786Y-106728913D01*
X148847483Y-106717160D01*
X148850592Y-106713830D01*
X148881692Y-106680531D01*
X148968156Y-106558038D01*
X148985677Y-106544141D01*
X149005553Y-106506760D01*
X149013726Y-106493480D01*
X149040150Y-106456047D01*
X149110590Y-106320104D01*
X149126514Y-106303472D01*
X149141021Y-106263616D01*
X149147446Y-106248977D01*
X149164614Y-106215844D01*
X149164613Y-106215844D01*
X149166566Y-106212077D01*
X149218906Y-106064804D01*
X149232797Y-106045635D01*
X149241626Y-106004097D01*
X149246071Y-105988367D01*
X149258583Y-105953165D01*
X149314488Y-105684136D01*
X149333239Y-105410000D01*
X149314488Y-105135864D01*
X149258583Y-104866835D01*
X149246078Y-104831649D01*
X149241628Y-104815905D01*
X149234465Y-104782208D01*
X149218910Y-104755207D01*
X149166566Y-104607923D01*
X149147447Y-104571025D01*
X149141022Y-104556386D01*
X149129179Y-104523848D01*
X149110591Y-104499897D01*
X149042099Y-104367715D01*
X149040150Y-104363953D01*
X149013739Y-104326537D01*
X149005557Y-104313243D01*
X148989231Y-104282540D01*
X148968156Y-104261961D01*
X148881692Y-104139469D01*
X148847480Y-104102837D01*
X148837787Y-104091087D01*
X148817288Y-104062873D01*
X148794306Y-104045901D01*
X148697030Y-103941744D01*
X148697028Y-103941742D01*
X148694143Y-103938653D01*
X148651891Y-103904278D01*
X148640953Y-103894232D01*
X148616676Y-103869092D01*
X148592365Y-103855850D01*
X148484287Y-103767922D01*
X148484284Y-103767920D01*
X148480995Y-103765244D01*
X148476248Y-103762357D01*
X148430683Y-103734648D01*
X148418772Y-103726415D01*
X148391218Y-103704888D01*
X148366179Y-103695423D01*
X148249839Y-103624675D01*
X148249835Y-103624673D01*
X148246221Y-103622475D01*
X148242341Y-103620789D01*
X148242332Y-103620785D01*
X148188113Y-103597235D01*
X148175514Y-103590888D01*
X148145254Y-103573417D01*
X148120063Y-103567676D01*
X147998080Y-103514691D01*
X147998062Y-103514684D01*
X147994193Y-103513004D01*
X147928806Y-103494683D01*
X147915811Y-103490252D01*
X147883489Y-103477193D01*
X147858695Y-103475038D01*
X147733689Y-103440013D01*
X147733675Y-103440010D01*
X147729606Y-103438870D01*
X147725416Y-103438294D01*
X147725406Y-103438292D01*
X147657776Y-103428997D01*
X147644663Y-103426469D01*
X147610966Y-103418067D01*
X147587071Y-103419278D01*
X147461588Y-103402031D01*
X147461583Y-103402030D01*
X147457388Y-103401454D01*
X147380183Y-103401454D01*
X147367222Y-103400775D01*
X147332891Y-103397166D01*
X147310354Y-103401454D01*
X147182612Y-103401454D01*
X147178417Y-103402030D01*
X147178411Y-103402031D01*
X147101405Y-103412615D01*
X147088849Y-103413694D01*
X147054620Y-103414889D01*
X147033825Y-103421904D01*
X146914591Y-103438293D01*
X146914589Y-103438293D01*
X146910394Y-103438870D01*
X146906330Y-103440008D01*
X146906314Y-103440012D01*
X146826764Y-103462302D01*
X146814841Y-103465016D01*
X146781463Y-103470901D01*
X146762745Y-103480239D01*
X146649875Y-103511864D01*
X146649872Y-103511864D01*
X146645807Y-103513004D01*
X146641935Y-103514685D01*
X146641926Y-103514689D01*
X146561591Y-103549583D01*
X146550510Y-103553779D01*
X146518695Y-103564116D01*
X146502285Y-103575344D01*
X146397662Y-103620788D01*
X146397657Y-103620790D01*
X146393779Y-103622475D01*
X146390167Y-103624671D01*
X146390164Y-103624673D01*
X146334251Y-103658674D01*
X146334008Y-103658738D01*
X146331450Y-103660378D01*
X146310982Y-103672825D01*
X146300912Y-103678327D01*
X146271332Y-103692753D01*
X146257404Y-103705406D01*
X146162625Y-103763042D01*
X146162618Y-103763046D01*
X146159005Y-103765244D01*
X146155718Y-103767918D01*
X146155714Y-103767921D01*
X146102743Y-103811016D01*
X146101691Y-103811457D01*
X146099228Y-103813675D01*
X146094521Y-103817705D01*
X146079788Y-103829692D01*
X146070870Y-103836306D01*
X146044135Y-103854338D01*
X146032763Y-103867949D01*
X145949142Y-103935980D01*
X145949138Y-103935983D01*
X145945857Y-103938653D01*
X145942974Y-103941739D01*
X145942961Y-103941752D01*
X145894373Y-103993777D01*
X145892480Y-103994895D01*
X145887092Y-104001317D01*
X145882730Y-104006243D01*
X145872479Y-104017219D01*
X145864830Y-104024730D01*
X145841453Y-104045779D01*
X145832642Y-104059875D01*
X145761202Y-104136368D01*
X145761187Y-104136385D01*
X145758308Y-104139469D01*
X145755871Y-104142920D01*
X145755868Y-104142925D01*
X145713114Y-104203494D01*
X145710571Y-104205510D01*
X145703776Y-104216384D01*
X145699925Y-104222177D01*
X145693150Y-104231775D01*
X145686837Y-104239971D01*
X145667200Y-104263373D01*
X145660860Y-104277520D01*
X145599850Y-104363953D01*
X145597901Y-104367714D01*
X145597900Y-104367716D01*
X145562430Y-104436168D01*
X145559479Y-104439248D01*
X145552708Y-104454458D01*
X145549524Y-104461076D01*
X145545249Y-104469325D01*
X145540314Y-104477977D01*
X145524699Y-104502966D01*
X145520677Y-104516748D01*
X145475383Y-104604160D01*
X145475378Y-104604170D01*
X145473434Y-104607923D01*
X145472017Y-104611908D01*
X145472013Y-104611919D01*
X145445192Y-104687388D01*
X145442100Y-104691654D01*
X145436581Y-104710901D01*
X145434229Y-104718234D01*
X145431738Y-104725245D01*
X145428174Y-104734165D01*
X145416694Y-104759948D01*
X145414769Y-104772988D01*
X145381417Y-104866835D01*
X145380554Y-104870985D01*
X145380553Y-104870991D01*
X145363645Y-104952356D01*
X145360702Y-104957866D01*
X145357507Y-104980599D01*
X145356122Y-104988559D01*
X145354843Y-104994716D01*
X145352632Y-105003674D01*
X145345259Y-105029386D01*
X145345148Y-105041370D01*
X145325512Y-105135864D01*
X145325223Y-105140088D01*
X145325222Y-105140096D01*
X145319343Y-105226053D01*
X145316845Y-105232814D01*
X145316845Y-105258336D01*
X145316555Y-105266806D01*
X145316167Y-105272473D01*
X145315250Y-105281260D01*
X145311761Y-105306085D01*
X145313138Y-105316768D01*
X145306761Y-105410000D01*
X94648718Y-105410000D01*
X94650468Y-105390000D01*
X94630635Y-105163308D01*
X94571739Y-104943504D01*
X94475568Y-104737266D01*
X94457108Y-104710901D01*
X94345046Y-104550859D01*
X94184140Y-104389953D01*
X93997738Y-104259434D01*
X93997734Y-104259432D01*
X93982612Y-104252380D01*
X93930176Y-104206211D01*
X93911023Y-104139018D01*
X93931238Y-104072136D01*
X93982612Y-104027619D01*
X93997734Y-104020568D01*
X94184139Y-103890047D01*
X94345047Y-103729139D01*
X94475568Y-103542734D01*
X94571739Y-103336496D01*
X94630635Y-103116692D01*
X94650468Y-102890000D01*
X94630635Y-102663308D01*
X94571739Y-102443504D01*
X94475568Y-102237266D01*
X94473045Y-102233662D01*
X94345046Y-102050859D01*
X94184140Y-101889953D01*
X93997735Y-101759432D01*
X93791497Y-101663261D01*
X93571689Y-101604364D01*
X93345000Y-101584531D01*
X93118310Y-101604364D01*
X92898502Y-101663261D01*
X92692264Y-101759432D01*
X92505859Y-101889953D01*
X92344953Y-102050859D01*
X92214432Y-102237264D01*
X92118261Y-102443502D01*
X92059364Y-102663310D01*
X92039531Y-102890000D01*
X92039555Y-102890276D01*
X92039470Y-102890695D01*
X92038586Y-102900807D01*
X92037457Y-102900708D01*
X92025783Y-102958775D01*
X91977164Y-103008954D01*
X91909134Y-103024882D01*
X91843292Y-103001502D01*
X91828345Y-102988755D01*
X89972415Y-101132825D01*
X87894318Y-99054727D01*
X87860833Y-98993404D01*
X87858471Y-98977852D01*
X87845063Y-98824593D01*
X87845063Y-98824592D01*
X87783903Y-98596337D01*
X87684035Y-98382171D01*
X87548495Y-98188599D01*
X87381401Y-98021505D01*
X87187829Y-97885965D01*
X86973663Y-97786097D01*
X86745407Y-97724936D01*
X86571667Y-97709736D01*
X86571659Y-97709735D01*
X86568966Y-97709500D01*
X86151034Y-97709500D01*
X86148341Y-97709735D01*
X86148332Y-97709736D01*
X85974592Y-97724936D01*
X85746336Y-97786097D01*
X85532170Y-97885965D01*
X85338598Y-98021505D01*
X85171508Y-98188595D01*
X85171505Y-98188598D01*
X85171505Y-98188599D01*
X85040148Y-98376197D01*
X85035964Y-98382172D01*
X84936097Y-98596337D01*
X84874936Y-98824592D01*
X84854340Y-99060000D01*
X77470500Y-99060000D01*
X77470500Y-58420000D01*
X78631761Y-58420000D01*
X78632050Y-58424225D01*
X78632050Y-58424226D01*
X78638137Y-58513231D01*
X78636379Y-58521192D01*
X78640250Y-58548734D01*
X78641168Y-58557528D01*
X78641556Y-58563199D01*
X78641845Y-58571663D01*
X78641845Y-58594763D01*
X78644342Y-58603944D01*
X78647785Y-58654270D01*
X78650512Y-58694136D01*
X78651375Y-58698291D01*
X78651376Y-58698295D01*
X78670147Y-58788627D01*
X78669415Y-58797670D01*
X78677631Y-58826322D01*
X78679842Y-58835279D01*
X78681125Y-58841455D01*
X78682510Y-58849415D01*
X78685411Y-58870054D01*
X78688645Y-58877642D01*
X78706417Y-58963165D01*
X78728256Y-59024615D01*
X78739769Y-59057009D01*
X78740326Y-59066978D01*
X78753170Y-59095826D01*
X78756727Y-59104725D01*
X78759224Y-59111749D01*
X78761583Y-59119105D01*
X78766612Y-59136643D01*
X78770191Y-59142609D01*
X78798434Y-59222077D01*
X78800381Y-59225835D01*
X78800383Y-59225839D01*
X78830455Y-59283875D01*
X78841142Y-59304500D01*
X78845677Y-59313251D01*
X78847756Y-59323923D01*
X78865311Y-59352016D01*
X78870254Y-59360682D01*
X78874534Y-59368943D01*
X78877711Y-59375547D01*
X78883897Y-59389441D01*
X78887430Y-59393831D01*
X78924850Y-59466047D01*
X78985859Y-59552477D01*
X78989653Y-59563590D01*
X79011832Y-59590021D01*
X79018136Y-59598204D01*
X79024942Y-59607846D01*
X79028781Y-59613621D01*
X79034994Y-59623564D01*
X79038112Y-59626503D01*
X79083308Y-59690531D01*
X79128494Y-59738913D01*
X79157641Y-59770122D01*
X79163296Y-59781376D01*
X79189828Y-59805266D01*
X79197485Y-59812785D01*
X79207744Y-59823771D01*
X79212101Y-59828693D01*
X79217006Y-59834539D01*
X79219372Y-59836220D01*
X79270857Y-59891347D01*
X79274138Y-59894016D01*
X79274141Y-59894019D01*
X79300958Y-59915836D01*
X79357762Y-59962050D01*
X79365373Y-59973122D01*
X79395860Y-59993685D01*
X79404764Y-60000289D01*
X79419531Y-60012302D01*
X79424235Y-60016330D01*
X79426410Y-60018288D01*
X79427743Y-60018983D01*
X79484005Y-60064756D01*
X79582402Y-60124592D01*
X79592005Y-60135134D01*
X79625898Y-60151665D01*
X79635965Y-60157165D01*
X79656480Y-60169640D01*
X79658933Y-60171212D01*
X79659248Y-60171323D01*
X79718779Y-60207525D01*
X79722664Y-60209212D01*
X79722667Y-60209214D01*
X79827283Y-60254655D01*
X79838854Y-60264309D01*
X79875502Y-60276217D01*
X79886584Y-60280412D01*
X79908732Y-60290033D01*
X79958457Y-60311632D01*
X79970807Y-60316996D01*
X80087743Y-60349760D01*
X80101189Y-60358167D01*
X80139831Y-60364981D01*
X80151747Y-60367693D01*
X80235394Y-60391130D01*
X80325624Y-60403532D01*
X80358822Y-60408095D01*
X80373997Y-60414912D01*
X80413835Y-60416303D01*
X80426380Y-60417380D01*
X80507612Y-60428546D01*
X80511849Y-60428546D01*
X80635354Y-60428546D01*
X80652048Y-60433448D01*
X80692225Y-60429225D01*
X80705187Y-60428546D01*
X80778151Y-60428546D01*
X80782388Y-60428546D01*
X80912070Y-60410721D01*
X80930017Y-60413415D01*
X80969655Y-60403532D01*
X80982759Y-60401005D01*
X81054606Y-60391130D01*
X81183694Y-60354961D01*
X81202570Y-60355195D01*
X81240802Y-60339749D01*
X81253794Y-60335319D01*
X81319193Y-60316996D01*
X81346988Y-60304922D01*
X81416318Y-60296269D01*
X81479322Y-60326472D01*
X81515996Y-60385943D01*
X81514695Y-60455800D01*
X81484070Y-60506338D01*
X79626208Y-62364199D01*
X79610110Y-62377096D01*
X79562096Y-62428225D01*
X79559392Y-62431016D01*
X79542628Y-62447780D01*
X79542621Y-62447787D01*
X79539880Y-62450529D01*
X79537499Y-62453597D01*
X79537490Y-62453608D01*
X79537411Y-62453711D01*
X79529842Y-62462572D01*
X79499935Y-62494420D01*
X79490285Y-62511974D01*
X79479609Y-62528228D01*
X79467326Y-62544063D01*
X79449975Y-62584158D01*
X79444838Y-62594644D01*
X79423802Y-62632907D01*
X79418821Y-62652309D01*
X79412520Y-62670711D01*
X79404561Y-62689102D01*
X79397728Y-62732242D01*
X79395360Y-62743674D01*
X79384499Y-62785977D01*
X79384500Y-62806016D01*
X79382973Y-62825414D01*
X79379840Y-62845194D01*
X79383950Y-62888673D01*
X79384500Y-62900343D01*
X79384500Y-73577256D01*
X79382235Y-73597766D01*
X79384439Y-73667872D01*
X79384500Y-73671767D01*
X79384500Y-73699350D01*
X79384988Y-73703219D01*
X79384989Y-73703225D01*
X79385004Y-73703343D01*
X79385918Y-73714967D01*
X79387290Y-73758626D01*
X79392879Y-73777860D01*
X79396825Y-73796916D01*
X79399335Y-73816792D01*
X79415414Y-73857404D01*
X79419197Y-73868451D01*
X79431382Y-73910391D01*
X79441580Y-73927635D01*
X79450136Y-73945100D01*
X79457514Y-73963732D01*
X79457515Y-73963733D01*
X79483180Y-73999059D01*
X79489593Y-74008822D01*
X79511826Y-74046416D01*
X79511829Y-74046419D01*
X79511830Y-74046420D01*
X79525995Y-74060585D01*
X79538627Y-74075375D01*
X79550406Y-74091587D01*
X79584058Y-74119426D01*
X79592699Y-74127289D01*
X81885586Y-76420177D01*
X81919071Y-76481500D01*
X81917680Y-76539950D01*
X81899364Y-76608307D01*
X81879531Y-76835000D01*
X81899364Y-77061689D01*
X81958261Y-77281497D01*
X82054432Y-77487735D01*
X82097691Y-77549515D01*
X82120018Y-77615721D01*
X82103008Y-77683489D01*
X82068973Y-77720976D01*
X82065906Y-77723203D01*
X82056174Y-77729595D01*
X82018580Y-77751829D01*
X82004413Y-77765996D01*
X81989624Y-77778626D01*
X81973413Y-77790404D01*
X81945572Y-77824058D01*
X81937711Y-77832697D01*
X80261208Y-79509199D01*
X80245110Y-79522096D01*
X80197096Y-79573225D01*
X80194392Y-79576016D01*
X80177628Y-79592780D01*
X80177621Y-79592787D01*
X80174880Y-79595529D01*
X80172499Y-79598597D01*
X80172490Y-79598608D01*
X80172411Y-79598711D01*
X80164842Y-79607572D01*
X80134935Y-79639420D01*
X80125285Y-79656974D01*
X80114609Y-79673228D01*
X80102326Y-79689063D01*
X80084975Y-79729158D01*
X80079838Y-79739644D01*
X80058802Y-79777907D01*
X80053821Y-79797309D01*
X80047520Y-79815711D01*
X80039561Y-79834102D01*
X80032728Y-79877242D01*
X80030360Y-79888674D01*
X80019500Y-79930977D01*
X80019500Y-79951016D01*
X80017973Y-79970414D01*
X80015177Y-79988070D01*
X80014840Y-79990196D01*
X80018415Y-80028016D01*
X80018950Y-80033673D01*
X80019500Y-80045343D01*
X80019500Y-91992256D01*
X80017235Y-92012766D01*
X80019439Y-92082872D01*
X80019500Y-92086767D01*
X80019500Y-92114350D01*
X80019988Y-92118219D01*
X80019989Y-92118225D01*
X80020004Y-92118343D01*
X80020918Y-92129967D01*
X80022290Y-92173626D01*
X80027879Y-92192860D01*
X80031825Y-92211916D01*
X80034335Y-92231792D01*
X80050414Y-92272404D01*
X80054197Y-92283451D01*
X80066382Y-92325391D01*
X80076580Y-92342635D01*
X80085136Y-92360100D01*
X80092514Y-92378732D01*
X80092515Y-92378733D01*
X80118180Y-92414059D01*
X80124593Y-92423822D01*
X80146826Y-92461416D01*
X80146829Y-92461419D01*
X80146830Y-92461420D01*
X80160995Y-92475585D01*
X80173627Y-92490375D01*
X80185406Y-92506587D01*
X80219058Y-92534426D01*
X80227699Y-92542289D01*
X82049196Y-94363787D01*
X82062096Y-94379888D01*
X82113223Y-94427900D01*
X82116020Y-94430611D01*
X82135529Y-94450120D01*
X82138709Y-94452587D01*
X82147571Y-94460155D01*
X82179418Y-94490062D01*
X82196972Y-94499712D01*
X82213236Y-94510396D01*
X82224972Y-94519499D01*
X82229064Y-94522673D01*
X82253909Y-94533424D01*
X82269152Y-94540021D01*
X82279631Y-94545154D01*
X82317908Y-94566197D01*
X82337306Y-94571177D01*
X82355708Y-94577477D01*
X82374104Y-94585438D01*
X82417261Y-94592273D01*
X82428664Y-94594634D01*
X82470981Y-94605500D01*
X82491016Y-94605500D01*
X82510413Y-94607026D01*
X82530196Y-94610160D01*
X82573674Y-94606050D01*
X82585344Y-94605500D01*
X86684548Y-94605500D01*
X86751587Y-94625185D01*
X86772229Y-94641819D01*
X92844196Y-100713787D01*
X92857096Y-100729888D01*
X92859213Y-100731876D01*
X92859214Y-100731877D01*
X92895449Y-100765904D01*
X92908223Y-100777900D01*
X92911020Y-100780611D01*
X92930529Y-100800120D01*
X92933709Y-100802587D01*
X92942571Y-100810155D01*
X92974418Y-100840062D01*
X92991970Y-100849711D01*
X93008238Y-100860397D01*
X93024064Y-100872673D01*
X93064146Y-100890017D01*
X93074633Y-100895155D01*
X93112907Y-100916197D01*
X93121410Y-100918379D01*
X93132308Y-100921178D01*
X93150713Y-100927478D01*
X93169104Y-100935437D01*
X93212250Y-100942270D01*
X93223668Y-100944635D01*
X93265981Y-100955500D01*
X93286016Y-100955500D01*
X93305415Y-100957027D01*
X93325196Y-100960160D01*
X93368674Y-100956050D01*
X93380344Y-100955500D01*
X95867879Y-100955500D01*
X95934918Y-100975185D01*
X95980673Y-101027989D01*
X95990617Y-101097147D01*
X95980261Y-101131905D01*
X95964106Y-101166548D01*
X95906929Y-101379934D01*
X95887676Y-101600000D01*
X95906929Y-101820065D01*
X95964106Y-102033451D01*
X96046436Y-102210008D01*
X96057466Y-102233662D01*
X96184174Y-102414620D01*
X96340380Y-102570826D01*
X96521338Y-102697534D01*
X96721550Y-102790894D01*
X96934932Y-102848070D01*
X97081644Y-102860905D01*
X97154999Y-102867323D01*
X97154999Y-102867322D01*
X97155000Y-102867323D01*
X97375068Y-102848070D01*
X97588450Y-102790894D01*
X97788662Y-102697534D01*
X97969620Y-102570826D01*
X98125826Y-102414620D01*
X98252534Y-102233662D01*
X98345894Y-102033450D01*
X98403070Y-101820068D01*
X98422323Y-101600000D01*
X98403070Y-101379932D01*
X98345894Y-101166550D01*
X98329739Y-101131905D01*
X98319247Y-101062827D01*
X98347767Y-100999043D01*
X98406243Y-100960804D01*
X98442121Y-100955500D01*
X116122256Y-100955500D01*
X116142761Y-100957764D01*
X116145665Y-100957672D01*
X116145667Y-100957673D01*
X116183554Y-100956482D01*
X116251178Y-100974051D01*
X116298569Y-101025391D01*
X116310681Y-101094203D01*
X116299832Y-101132825D01*
X116284106Y-101166550D01*
X116226929Y-101379934D01*
X116207676Y-101600000D01*
X116226929Y-101820065D01*
X116284106Y-102033451D01*
X116366436Y-102210008D01*
X116377466Y-102233662D01*
X116504174Y-102414620D01*
X116660380Y-102570826D01*
X116841338Y-102697534D01*
X117041550Y-102790894D01*
X117254932Y-102848070D01*
X117401644Y-102860905D01*
X117474999Y-102867323D01*
X117474999Y-102867322D01*
X117475000Y-102867323D01*
X117695068Y-102848070D01*
X117908450Y-102790894D01*
X118108662Y-102697534D01*
X118289620Y-102570826D01*
X118445826Y-102414620D01*
X118572534Y-102233662D01*
X118665894Y-102033450D01*
X118723070Y-101820068D01*
X118742323Y-101600000D01*
X118723070Y-101379932D01*
X118665894Y-101166550D01*
X118572534Y-100966339D01*
X118445826Y-100785380D01*
X118289620Y-100629174D01*
X118108662Y-100502466D01*
X117979811Y-100442382D01*
X117927372Y-100396210D01*
X117908220Y-100329016D01*
X117928436Y-100262135D01*
X117979811Y-100217618D01*
X117996971Y-100209616D01*
X118108662Y-100157534D01*
X118289620Y-100030826D01*
X118445826Y-99874620D01*
X118572534Y-99693662D01*
X118665894Y-99493450D01*
X118723070Y-99280068D01*
X118742323Y-99060000D01*
X118723070Y-98839932D01*
X118665894Y-98626550D01*
X118662377Y-98619008D01*
X118649739Y-98591905D01*
X118639247Y-98522827D01*
X118667767Y-98459043D01*
X118719826Y-98425000D01*
X125494340Y-98425000D01*
X125514936Y-98660407D01*
X125576097Y-98888663D01*
X125675965Y-99102829D01*
X125811505Y-99296401D01*
X125958705Y-99443601D01*
X125992190Y-99504924D01*
X125987206Y-99574616D01*
X125945334Y-99630549D01*
X125936121Y-99636821D01*
X125781341Y-99732289D01*
X125657288Y-99856342D01*
X125565186Y-100005665D01*
X125510000Y-100172202D01*
X125499819Y-100271858D01*
X125499817Y-100271878D01*
X125499500Y-100274991D01*
X125499500Y-100278138D01*
X125499500Y-100278139D01*
X125499500Y-101571859D01*
X125499500Y-101571878D01*
X125499501Y-101575008D01*
X125499820Y-101578140D01*
X125499821Y-101578141D01*
X125510000Y-101677796D01*
X125565186Y-101844334D01*
X125657288Y-101993657D01*
X125781342Y-102117711D01*
X125781344Y-102117712D01*
X125930666Y-102209814D01*
X126042016Y-102246712D01*
X126097202Y-102264999D01*
X126196858Y-102275180D01*
X126196859Y-102275180D01*
X126199991Y-102275500D01*
X127800008Y-102275499D01*
X127902797Y-102264999D01*
X128002218Y-102232053D01*
X128072044Y-102229652D01*
X128132086Y-102265383D01*
X128163279Y-102327904D01*
X128163587Y-102369820D01*
X128145740Y-102478684D01*
X128155754Y-102663407D01*
X128205245Y-102841658D01*
X128291899Y-103005103D01*
X128411663Y-103146100D01*
X128558936Y-103258055D01*
X128726830Y-103335731D01*
X128726831Y-103335731D01*
X128726833Y-103335732D01*
X128907503Y-103375500D01*
X129042754Y-103375500D01*
X129046113Y-103375500D01*
X129183910Y-103360514D01*
X129359221Y-103301444D01*
X129517736Y-103206070D01*
X129652041Y-103078849D01*
X129755858Y-102925730D01*
X129809582Y-102790893D01*
X129824330Y-102753878D01*
X129824330Y-102753877D01*
X129824331Y-102753875D01*
X129854260Y-102571317D01*
X129844245Y-102386593D01*
X129822840Y-102309500D01*
X129794754Y-102208341D01*
X129708100Y-102044896D01*
X129588336Y-101903899D01*
X129441064Y-101791945D01*
X129430459Y-101787039D01*
X129377881Y-101741024D01*
X129358528Y-101673888D01*
X129378543Y-101606947D01*
X129431572Y-101561453D01*
X129482526Y-101550500D01*
X134466576Y-101550500D01*
X134533615Y-101570185D01*
X134579370Y-101622989D01*
X134590104Y-101663693D01*
X134604364Y-101826689D01*
X134663261Y-102046497D01*
X134759432Y-102252735D01*
X134889953Y-102439140D01*
X135050859Y-102600046D01*
X135237264Y-102730567D01*
X135237265Y-102730567D01*
X135237266Y-102730568D01*
X135443504Y-102826739D01*
X135663308Y-102885635D01*
X135890000Y-102905468D01*
X136116692Y-102885635D01*
X136336496Y-102826739D01*
X136542734Y-102730568D01*
X136729139Y-102600047D01*
X136890047Y-102439139D01*
X137020568Y-102252734D01*
X137116739Y-102046496D01*
X137175635Y-101826692D01*
X137195468Y-101600000D01*
X137175635Y-101373308D01*
X137116739Y-101153504D01*
X137020568Y-100947266D01*
X137018728Y-100944637D01*
X136890046Y-100760859D01*
X136729140Y-100599953D01*
X136542738Y-100469434D01*
X136542734Y-100469432D01*
X136527612Y-100462380D01*
X136475176Y-100416211D01*
X136456023Y-100349018D01*
X136476238Y-100282136D01*
X136527612Y-100237619D01*
X136542734Y-100230568D01*
X136729139Y-100100047D01*
X136890047Y-99939139D01*
X137020568Y-99752734D01*
X137116739Y-99546496D01*
X137175635Y-99326692D01*
X137195468Y-99100000D01*
X137175635Y-98873308D01*
X137116739Y-98653504D01*
X137020568Y-98447266D01*
X137015435Y-98439934D01*
X136890046Y-98260859D01*
X136729140Y-98099953D01*
X136542735Y-97969432D01*
X136336497Y-97873261D01*
X136116689Y-97814364D01*
X135890000Y-97794531D01*
X135663310Y-97814364D01*
X135443502Y-97873261D01*
X135237264Y-97969432D01*
X135050859Y-98099953D01*
X134889953Y-98260859D01*
X134777387Y-98421623D01*
X134722811Y-98465248D01*
X134675812Y-98474500D01*
X128623615Y-98474500D01*
X128556576Y-98454815D01*
X128510821Y-98402011D01*
X128500087Y-98361308D01*
X128485063Y-98189592D01*
X128483422Y-98183469D01*
X128423903Y-97961337D01*
X128324035Y-97747171D01*
X128188495Y-97553599D01*
X128021401Y-97386505D01*
X127827829Y-97250965D01*
X127613663Y-97151097D01*
X127610166Y-97150160D01*
X127385407Y-97089936D01*
X127211667Y-97074736D01*
X127211659Y-97074735D01*
X127208966Y-97074500D01*
X126791034Y-97074500D01*
X126788341Y-97074735D01*
X126788332Y-97074736D01*
X126614592Y-97089936D01*
X126386336Y-97151097D01*
X126172170Y-97250965D01*
X125978598Y-97386505D01*
X125811508Y-97553595D01*
X125811505Y-97553598D01*
X125811505Y-97553599D01*
X125691534Y-97724936D01*
X125675964Y-97747172D01*
X125576097Y-97961337D01*
X125514936Y-98189592D01*
X125494340Y-98425000D01*
X118719826Y-98425000D01*
X118726243Y-98420804D01*
X118762121Y-98415500D01*
X119932256Y-98415500D01*
X119952762Y-98417764D01*
X119955665Y-98417672D01*
X119955667Y-98417673D01*
X120022872Y-98415561D01*
X120026768Y-98415500D01*
X120050448Y-98415500D01*
X120054350Y-98415500D01*
X120058313Y-98414999D01*
X120069962Y-98414080D01*
X120113627Y-98412709D01*
X120132859Y-98407120D01*
X120151918Y-98403174D01*
X120161126Y-98402011D01*
X120171792Y-98400664D01*
X120212407Y-98384582D01*
X120223444Y-98380803D01*
X120265390Y-98368618D01*
X120282629Y-98358422D01*
X120300102Y-98349862D01*
X120318732Y-98342486D01*
X120354064Y-98316814D01*
X120363830Y-98310400D01*
X120401418Y-98288171D01*
X120401417Y-98288171D01*
X120401420Y-98288170D01*
X120415585Y-98274004D01*
X120430374Y-98261372D01*
X120446587Y-98249594D01*
X120474449Y-98215914D01*
X120482279Y-98207310D01*
X122804588Y-95885000D01*
X139069531Y-95885000D01*
X139089364Y-96111689D01*
X139148261Y-96331497D01*
X139244432Y-96537735D01*
X139374953Y-96724140D01*
X139535859Y-96885046D01*
X139722264Y-97015567D01*
X139722265Y-97015567D01*
X139722266Y-97015568D01*
X139928504Y-97111739D01*
X140148308Y-97170635D01*
X140299436Y-97183857D01*
X140374999Y-97190468D01*
X140374999Y-97190467D01*
X140375000Y-97190468D01*
X140601692Y-97170635D01*
X140821496Y-97111739D01*
X141027734Y-97015568D01*
X141214139Y-96885047D01*
X141375047Y-96724139D01*
X141505568Y-96537734D01*
X141601739Y-96331496D01*
X141660635Y-96111692D01*
X141680468Y-95885000D01*
X144070033Y-95885000D01*
X144089858Y-96111602D01*
X144148733Y-96331326D01*
X144244866Y-96537484D01*
X144295972Y-96610471D01*
X144295974Y-96610472D01*
X144977046Y-95929399D01*
X144989835Y-96010148D01*
X145047359Y-96123045D01*
X145136955Y-96212641D01*
X145249852Y-96270165D01*
X145330599Y-96282953D01*
X144649526Y-96964025D01*
X144649526Y-96964026D01*
X144722515Y-97015133D01*
X144928673Y-97111266D01*
X145148397Y-97170141D01*
X145374999Y-97189966D01*
X145601602Y-97170141D01*
X145821326Y-97111266D01*
X146027480Y-97015134D01*
X146100472Y-96964025D01*
X145419401Y-96282953D01*
X145500148Y-96270165D01*
X145613045Y-96212641D01*
X145702641Y-96123045D01*
X145760165Y-96010148D01*
X145772953Y-95929400D01*
X146454025Y-96610472D01*
X146505134Y-96537480D01*
X146601266Y-96331326D01*
X146660141Y-96111602D01*
X146679966Y-95885000D01*
X146660141Y-95658397D01*
X146601266Y-95438673D01*
X146505133Y-95232515D01*
X146454025Y-95159526D01*
X145772953Y-95840598D01*
X145760165Y-95759852D01*
X145702641Y-95646955D01*
X145613045Y-95557359D01*
X145500148Y-95499835D01*
X145419400Y-95487046D01*
X146100472Y-94805974D01*
X146100471Y-94805972D01*
X146027484Y-94754866D01*
X145821326Y-94658733D01*
X145601602Y-94599858D01*
X145375000Y-94580033D01*
X145148397Y-94599858D01*
X144928672Y-94658733D01*
X144722516Y-94754865D01*
X144649527Y-94805973D01*
X144649526Y-94805973D01*
X145330600Y-95487046D01*
X145249852Y-95499835D01*
X145136955Y-95557359D01*
X145047359Y-95646955D01*
X144989835Y-95759852D01*
X144977046Y-95840599D01*
X144295973Y-95159526D01*
X144295973Y-95159527D01*
X144244865Y-95232516D01*
X144148733Y-95438672D01*
X144089858Y-95658397D01*
X144070033Y-95885000D01*
X141680468Y-95885000D01*
X141660635Y-95658308D01*
X141601739Y-95438504D01*
X141505568Y-95232266D01*
X141470467Y-95182135D01*
X141375046Y-95045859D01*
X141214140Y-94884953D01*
X141027735Y-94754432D01*
X140821497Y-94658261D01*
X140601689Y-94599364D01*
X140374999Y-94579531D01*
X140148310Y-94599364D01*
X139928502Y-94658261D01*
X139722264Y-94754432D01*
X139535859Y-94884953D01*
X139374953Y-95045859D01*
X139244432Y-95232264D01*
X139148261Y-95438502D01*
X139089364Y-95658310D01*
X139069531Y-95885000D01*
X122804588Y-95885000D01*
X124047770Y-94641818D01*
X124109094Y-94608334D01*
X124135452Y-94605500D01*
X135807256Y-94605500D01*
X135827762Y-94607764D01*
X135830665Y-94607672D01*
X135830667Y-94607673D01*
X135897872Y-94605561D01*
X135901768Y-94605500D01*
X135925448Y-94605500D01*
X135929350Y-94605500D01*
X135933313Y-94604999D01*
X135944962Y-94604080D01*
X135988627Y-94602709D01*
X136007859Y-94597120D01*
X136026918Y-94593174D01*
X136034091Y-94592268D01*
X136046792Y-94590664D01*
X136087407Y-94574582D01*
X136098444Y-94570803D01*
X136140390Y-94558618D01*
X136157629Y-94548422D01*
X136175102Y-94539862D01*
X136193732Y-94532486D01*
X136229064Y-94506814D01*
X136238830Y-94500400D01*
X136276418Y-94478171D01*
X136276417Y-94478171D01*
X136276420Y-94478170D01*
X136290585Y-94464004D01*
X136305373Y-94451373D01*
X136321587Y-94439594D01*
X136349438Y-94405926D01*
X136357279Y-94397309D01*
X141436286Y-89318302D01*
X141452386Y-89305405D01*
X141454374Y-89303287D01*
X141454377Y-89303286D01*
X141500464Y-89254207D01*
X141503049Y-89251539D01*
X141522620Y-89231970D01*
X141525065Y-89228816D01*
X141532654Y-89219929D01*
X141562562Y-89188082D01*
X141572213Y-89170526D01*
X141582893Y-89154267D01*
X141595174Y-89138436D01*
X141612518Y-89098351D01*
X141617660Y-89087856D01*
X141619567Y-89084387D01*
X141638697Y-89049592D01*
X141643678Y-89030188D01*
X141649980Y-89011783D01*
X141657938Y-88993395D01*
X141664770Y-88950248D01*
X141667139Y-88938816D01*
X141678000Y-88896520D01*
X141678000Y-88876483D01*
X141679527Y-88857084D01*
X141679600Y-88856623D01*
X141682660Y-88837304D01*
X141678550Y-88793824D01*
X141678000Y-88782155D01*
X141678000Y-80800243D01*
X141680264Y-80779739D01*
X141678061Y-80709626D01*
X141678000Y-80705731D01*
X141678000Y-80682040D01*
X141678000Y-80678150D01*
X141677498Y-80674177D01*
X141676580Y-80662518D01*
X141675209Y-80618873D01*
X141669620Y-80599640D01*
X141665674Y-80580582D01*
X141663164Y-80560706D01*
X141647088Y-80520104D01*
X141643304Y-80509053D01*
X141636510Y-80485671D01*
X141631118Y-80467110D01*
X141620914Y-80449855D01*
X141612361Y-80432395D01*
X141604986Y-80413768D01*
X141579308Y-80378425D01*
X141572901Y-80368671D01*
X141550669Y-80331079D01*
X141536506Y-80316916D01*
X141523867Y-80302117D01*
X141512095Y-80285913D01*
X141478441Y-80258073D01*
X141469799Y-80250209D01*
X141264318Y-80044728D01*
X141230833Y-79983405D01*
X141227999Y-79957047D01*
X141227999Y-78292939D01*
X141227999Y-78289628D01*
X141221591Y-78230017D01*
X141171296Y-78095169D01*
X141085046Y-77979954D01*
X140969831Y-77893704D01*
X140834983Y-77843409D01*
X140775373Y-77837000D01*
X140772051Y-77837000D01*
X139759500Y-77837000D01*
X139692461Y-77817315D01*
X139646706Y-77764511D01*
X139635500Y-77713000D01*
X139635500Y-74436985D01*
X139655185Y-74369946D01*
X139707989Y-74324191D01*
X139777147Y-74314247D01*
X139791594Y-74317210D01*
X139949681Y-74359569D01*
X140084999Y-74371407D01*
X140085000Y-74371407D01*
X140085000Y-73460501D01*
X140192685Y-73509680D01*
X140299237Y-73525000D01*
X140370763Y-73525000D01*
X140477315Y-73509680D01*
X140585000Y-73460501D01*
X140585000Y-74371407D01*
X140720318Y-74359569D01*
X140948492Y-74298430D01*
X141162578Y-74198599D01*
X141356078Y-74063109D01*
X141523106Y-73896081D01*
X141658600Y-73702576D01*
X141758430Y-73488492D01*
X141815636Y-73275000D01*
X140768686Y-73275000D01*
X140794493Y-73234844D01*
X140835000Y-73096889D01*
X140835000Y-72953111D01*
X140794493Y-72815156D01*
X140768686Y-72775000D01*
X141815636Y-72775000D01*
X141815635Y-72774999D01*
X141758430Y-72561507D01*
X141658599Y-72347421D01*
X141523109Y-72153921D01*
X141375856Y-72006668D01*
X141342371Y-71945345D01*
X141347355Y-71875653D01*
X141389227Y-71819720D01*
X141398441Y-71813448D01*
X141404331Y-71809814D01*
X141404334Y-71809814D01*
X141553656Y-71717712D01*
X141677712Y-71593656D01*
X141769814Y-71444334D01*
X141824999Y-71277797D01*
X141835500Y-71175009D01*
X141835499Y-69874992D01*
X141832946Y-69850000D01*
X145306761Y-69850000D01*
X145307050Y-69854225D01*
X145307050Y-69854226D01*
X145313137Y-69943231D01*
X145311379Y-69951192D01*
X145315250Y-69978734D01*
X145316168Y-69987528D01*
X145316556Y-69993199D01*
X145316845Y-70001663D01*
X145316844Y-70024763D01*
X145319342Y-70033944D01*
X145325222Y-70119903D01*
X145325512Y-70124136D01*
X145326375Y-70128291D01*
X145326376Y-70128295D01*
X145345147Y-70218627D01*
X145344415Y-70227670D01*
X145352631Y-70256322D01*
X145354842Y-70265279D01*
X145356125Y-70271455D01*
X145357510Y-70279415D01*
X145360411Y-70300054D01*
X145363645Y-70307642D01*
X145381417Y-70393165D01*
X145382835Y-70397155D01*
X145382836Y-70397157D01*
X145414769Y-70487009D01*
X145415326Y-70496978D01*
X145428170Y-70525826D01*
X145431727Y-70534725D01*
X145434224Y-70541749D01*
X145436583Y-70549105D01*
X145441612Y-70566643D01*
X145445191Y-70572609D01*
X145473434Y-70652077D01*
X145475381Y-70655835D01*
X145475383Y-70655839D01*
X145520677Y-70743251D01*
X145522756Y-70753923D01*
X145540311Y-70782016D01*
X145545254Y-70790682D01*
X145549534Y-70798943D01*
X145552711Y-70805547D01*
X145558897Y-70819441D01*
X145562431Y-70823832D01*
X145580336Y-70858388D01*
X145599850Y-70896047D01*
X145602296Y-70899512D01*
X145660859Y-70982477D01*
X145664653Y-70993590D01*
X145686832Y-71020021D01*
X145693136Y-71028204D01*
X145699942Y-71037846D01*
X145703781Y-71043621D01*
X145709994Y-71053564D01*
X145713112Y-71056503D01*
X145758308Y-71120531D01*
X145812112Y-71178141D01*
X145832641Y-71200122D01*
X145838296Y-71211376D01*
X145864828Y-71235266D01*
X145872485Y-71242785D01*
X145882744Y-71253771D01*
X145887101Y-71258693D01*
X145892006Y-71264539D01*
X145894373Y-71266221D01*
X145942962Y-71318248D01*
X145945857Y-71321347D01*
X145949138Y-71324016D01*
X145949141Y-71324019D01*
X145975958Y-71345836D01*
X146032762Y-71392050D01*
X146040373Y-71403122D01*
X146070860Y-71423685D01*
X146079764Y-71430289D01*
X146094531Y-71442302D01*
X146099235Y-71446330D01*
X146101410Y-71448288D01*
X146102743Y-71448983D01*
X146159005Y-71494756D01*
X146257402Y-71554592D01*
X146267005Y-71565134D01*
X146300898Y-71581665D01*
X146310965Y-71587165D01*
X146331480Y-71599640D01*
X146333933Y-71601212D01*
X146334248Y-71601323D01*
X146393779Y-71637525D01*
X146397664Y-71639212D01*
X146397667Y-71639214D01*
X146502283Y-71684655D01*
X146513854Y-71694309D01*
X146550502Y-71706217D01*
X146561584Y-71710412D01*
X146590604Y-71723018D01*
X146633457Y-71741632D01*
X146645807Y-71746996D01*
X146737667Y-71772734D01*
X146762743Y-71779760D01*
X146776189Y-71788167D01*
X146814831Y-71794981D01*
X146826747Y-71797693D01*
X146910394Y-71821130D01*
X147000624Y-71833532D01*
X147033822Y-71838095D01*
X147048997Y-71844912D01*
X147088835Y-71846303D01*
X147101380Y-71847380D01*
X147182612Y-71858546D01*
X147186849Y-71858546D01*
X147310354Y-71858546D01*
X147327048Y-71863448D01*
X147367225Y-71859225D01*
X147380187Y-71858546D01*
X147453151Y-71858546D01*
X147457388Y-71858546D01*
X147587070Y-71840721D01*
X147605017Y-71843415D01*
X147644655Y-71833532D01*
X147657759Y-71831005D01*
X147729606Y-71821130D01*
X147858694Y-71784961D01*
X147877570Y-71785195D01*
X147915802Y-71769749D01*
X147928794Y-71765319D01*
X147994193Y-71746996D01*
X148120061Y-71692323D01*
X148139512Y-71689895D01*
X148175509Y-71669113D01*
X148188093Y-71662773D01*
X148246221Y-71637525D01*
X148366181Y-71564575D01*
X148385806Y-71559338D01*
X148418767Y-71533587D01*
X148430670Y-71525359D01*
X148480995Y-71494756D01*
X148592365Y-71404148D01*
X148611738Y-71396018D01*
X148640947Y-71365772D01*
X148651884Y-71355726D01*
X148694143Y-71321347D01*
X148794304Y-71214100D01*
X148812976Y-71203060D01*
X148837786Y-71168913D01*
X148847483Y-71157160D01*
X148862661Y-71140908D01*
X148881692Y-71120531D01*
X148968156Y-70998038D01*
X148985677Y-70984141D01*
X149005553Y-70946760D01*
X149013726Y-70933480D01*
X149040150Y-70896047D01*
X149110590Y-70760104D01*
X149126514Y-70743472D01*
X149141021Y-70703616D01*
X149147446Y-70688977D01*
X149164614Y-70655844D01*
X149164613Y-70655844D01*
X149166566Y-70652077D01*
X149218906Y-70504804D01*
X149232797Y-70485635D01*
X149241626Y-70444097D01*
X149246071Y-70428367D01*
X149258583Y-70393165D01*
X149314488Y-70124136D01*
X149333239Y-69850000D01*
X149332169Y-69834364D01*
X149323444Y-69706806D01*
X149314488Y-69575864D01*
X149258583Y-69306835D01*
X149246078Y-69271649D01*
X149241628Y-69255905D01*
X149234465Y-69222208D01*
X149218910Y-69195207D01*
X149166566Y-69047923D01*
X149148703Y-69013450D01*
X149147447Y-69011025D01*
X149141022Y-68996386D01*
X149129179Y-68963848D01*
X149110591Y-68939897D01*
X149042099Y-68807715D01*
X149040150Y-68803953D01*
X149013739Y-68766537D01*
X149005557Y-68753243D01*
X148989231Y-68722540D01*
X148968156Y-68701961D01*
X148881692Y-68579469D01*
X148847480Y-68542837D01*
X148837787Y-68531087D01*
X148817288Y-68502873D01*
X148794306Y-68485901D01*
X148697030Y-68381744D01*
X148697028Y-68381742D01*
X148694143Y-68378653D01*
X148651891Y-68344278D01*
X148640953Y-68334232D01*
X148616676Y-68309092D01*
X148592365Y-68295850D01*
X148484287Y-68207922D01*
X148484284Y-68207920D01*
X148480995Y-68205244D01*
X148476248Y-68202357D01*
X148430683Y-68174648D01*
X148418772Y-68166415D01*
X148391218Y-68144888D01*
X148366179Y-68135423D01*
X148249839Y-68064675D01*
X148249835Y-68064673D01*
X148246221Y-68062475D01*
X148242341Y-68060789D01*
X148242332Y-68060785D01*
X148188113Y-68037235D01*
X148175514Y-68030888D01*
X148145254Y-68013417D01*
X148120063Y-68007676D01*
X147998080Y-67954691D01*
X147998062Y-67954684D01*
X147994193Y-67953004D01*
X147928806Y-67934683D01*
X147915811Y-67930252D01*
X147883489Y-67917193D01*
X147858695Y-67915038D01*
X147733689Y-67880013D01*
X147733675Y-67880010D01*
X147729606Y-67878870D01*
X147725416Y-67878294D01*
X147725406Y-67878292D01*
X147657776Y-67868997D01*
X147644663Y-67866469D01*
X147610966Y-67858067D01*
X147587071Y-67859278D01*
X147461588Y-67842031D01*
X147461583Y-67842030D01*
X147457388Y-67841454D01*
X147380183Y-67841454D01*
X147367222Y-67840775D01*
X147332891Y-67837166D01*
X147310354Y-67841454D01*
X147182612Y-67841454D01*
X147178417Y-67842030D01*
X147178411Y-67842031D01*
X147101405Y-67852615D01*
X147088849Y-67853694D01*
X147054620Y-67854889D01*
X147033825Y-67861904D01*
X146914591Y-67878293D01*
X146914589Y-67878293D01*
X146910394Y-67878870D01*
X146906330Y-67880008D01*
X146906314Y-67880012D01*
X146826764Y-67902302D01*
X146814841Y-67905016D01*
X146781463Y-67910901D01*
X146762745Y-67920239D01*
X146649875Y-67951864D01*
X146649872Y-67951864D01*
X146645807Y-67953004D01*
X146641935Y-67954685D01*
X146641926Y-67954689D01*
X146561591Y-67989583D01*
X146550510Y-67993779D01*
X146518695Y-68004116D01*
X146502285Y-68015344D01*
X146397662Y-68060788D01*
X146397657Y-68060790D01*
X146393779Y-68062475D01*
X146390167Y-68064671D01*
X146390164Y-68064673D01*
X146334251Y-68098674D01*
X146334008Y-68098738D01*
X146331450Y-68100378D01*
X146310982Y-68112825D01*
X146300912Y-68118327D01*
X146271332Y-68132753D01*
X146257404Y-68145406D01*
X146162625Y-68203042D01*
X146162618Y-68203046D01*
X146159005Y-68205244D01*
X146155718Y-68207918D01*
X146155714Y-68207921D01*
X146102743Y-68251016D01*
X146101691Y-68251457D01*
X146099228Y-68253675D01*
X146094521Y-68257705D01*
X146079788Y-68269692D01*
X146070870Y-68276306D01*
X146044135Y-68294338D01*
X146032763Y-68307949D01*
X145949142Y-68375980D01*
X145949138Y-68375983D01*
X145945857Y-68378653D01*
X145942974Y-68381739D01*
X145942961Y-68381752D01*
X145894373Y-68433777D01*
X145892480Y-68434895D01*
X145887092Y-68441317D01*
X145882730Y-68446243D01*
X145872479Y-68457219D01*
X145864830Y-68464730D01*
X145841453Y-68485779D01*
X145832642Y-68499875D01*
X145761202Y-68576368D01*
X145761187Y-68576385D01*
X145758308Y-68579469D01*
X145755871Y-68582920D01*
X145755868Y-68582925D01*
X145713114Y-68643494D01*
X145710571Y-68645510D01*
X145703776Y-68656384D01*
X145699925Y-68662177D01*
X145693150Y-68671775D01*
X145686837Y-68679971D01*
X145667200Y-68703373D01*
X145660860Y-68717520D01*
X145599850Y-68803953D01*
X145597901Y-68807714D01*
X145597900Y-68807716D01*
X145562430Y-68876168D01*
X145559479Y-68879248D01*
X145552708Y-68894458D01*
X145549524Y-68901076D01*
X145545249Y-68909325D01*
X145540314Y-68917977D01*
X145524699Y-68942966D01*
X145520677Y-68956748D01*
X145475383Y-69044160D01*
X145475378Y-69044170D01*
X145473434Y-69047923D01*
X145472017Y-69051908D01*
X145472013Y-69051919D01*
X145445192Y-69127388D01*
X145442100Y-69131654D01*
X145436581Y-69150901D01*
X145434229Y-69158234D01*
X145431738Y-69165245D01*
X145428174Y-69174165D01*
X145416694Y-69199948D01*
X145414770Y-69212988D01*
X145414531Y-69213662D01*
X145381417Y-69306835D01*
X145380554Y-69310985D01*
X145380553Y-69310991D01*
X145363645Y-69392356D01*
X145360702Y-69397866D01*
X145357507Y-69420599D01*
X145356122Y-69428559D01*
X145354843Y-69434716D01*
X145352632Y-69443674D01*
X145345259Y-69469386D01*
X145345148Y-69481370D01*
X145325512Y-69575864D01*
X145325223Y-69580088D01*
X145325222Y-69580096D01*
X145319343Y-69666053D01*
X145316845Y-69672814D01*
X145316845Y-69698336D01*
X145316555Y-69706806D01*
X145316167Y-69712473D01*
X145315250Y-69721260D01*
X145311761Y-69746085D01*
X145313138Y-69756768D01*
X145307830Y-69834365D01*
X145306761Y-69850000D01*
X141832946Y-69850000D01*
X141824999Y-69772203D01*
X141769814Y-69605666D01*
X141693149Y-69481371D01*
X141677711Y-69456342D01*
X141553657Y-69332288D01*
X141404334Y-69240186D01*
X141237797Y-69185000D01*
X141138141Y-69174819D01*
X141138122Y-69174818D01*
X141135009Y-69174500D01*
X141131860Y-69174500D01*
X141084500Y-69174500D01*
X141017461Y-69154815D01*
X140971706Y-69102011D01*
X140960500Y-69050500D01*
X140960500Y-62809188D01*
X140980185Y-62742149D01*
X141013377Y-62707613D01*
X141124803Y-62629592D01*
X141174139Y-62595047D01*
X141335047Y-62434139D01*
X141465568Y-62247734D01*
X141561739Y-62041496D01*
X141620635Y-61821692D01*
X141640468Y-61595000D01*
X141640468Y-61594999D01*
X144030033Y-61594999D01*
X144049858Y-61821602D01*
X144108733Y-62041326D01*
X144204866Y-62247484D01*
X144255972Y-62320471D01*
X144255974Y-62320472D01*
X144937046Y-61639399D01*
X144949835Y-61720148D01*
X145007359Y-61833045D01*
X145096955Y-61922641D01*
X145209852Y-61980165D01*
X145290599Y-61992953D01*
X144609526Y-62674025D01*
X144609526Y-62674026D01*
X144682515Y-62725133D01*
X144888673Y-62821266D01*
X145108397Y-62880141D01*
X145335000Y-62899966D01*
X145561602Y-62880141D01*
X145781326Y-62821266D01*
X145987480Y-62725134D01*
X146060472Y-62674025D01*
X145379401Y-61992953D01*
X145460148Y-61980165D01*
X145573045Y-61922641D01*
X145662641Y-61833045D01*
X145720165Y-61720148D01*
X145732953Y-61639400D01*
X146414025Y-62320472D01*
X146465134Y-62247480D01*
X146561266Y-62041326D01*
X146620141Y-61821602D01*
X146639966Y-61594999D01*
X146620141Y-61368397D01*
X146561266Y-61148673D01*
X146465133Y-60942515D01*
X146414025Y-60869526D01*
X145732953Y-61550598D01*
X145720165Y-61469852D01*
X145662641Y-61356955D01*
X145573045Y-61267359D01*
X145460148Y-61209835D01*
X145379400Y-61197046D01*
X146060472Y-60515974D01*
X146060471Y-60515972D01*
X145987484Y-60464866D01*
X145781326Y-60368733D01*
X145561602Y-60309858D01*
X145335000Y-60290033D01*
X145108397Y-60309858D01*
X144888672Y-60368733D01*
X144682516Y-60464865D01*
X144609527Y-60515973D01*
X144609526Y-60515973D01*
X145290600Y-61197046D01*
X145209852Y-61209835D01*
X145096955Y-61267359D01*
X145007359Y-61356955D01*
X144949835Y-61469852D01*
X144937046Y-61550599D01*
X144255973Y-60869526D01*
X144255973Y-60869527D01*
X144204865Y-60942516D01*
X144108733Y-61148672D01*
X144049858Y-61368397D01*
X144030033Y-61594999D01*
X141640468Y-61594999D01*
X141620635Y-61368308D01*
X141561739Y-61148504D01*
X141465568Y-60942266D01*
X141414636Y-60869526D01*
X141335046Y-60755859D01*
X141174140Y-60594953D01*
X140987735Y-60464432D01*
X140781497Y-60368261D01*
X140561689Y-60309364D01*
X140335000Y-60289531D01*
X140108310Y-60309364D01*
X139888502Y-60368261D01*
X139682264Y-60464432D01*
X139495859Y-60594953D01*
X139334953Y-60755859D01*
X139204432Y-60942264D01*
X139108261Y-61148502D01*
X139049364Y-61368310D01*
X139029531Y-61595000D01*
X139049364Y-61821689D01*
X139108261Y-62041497D01*
X139204432Y-62247735D01*
X139334953Y-62434140D01*
X139495859Y-62595046D01*
X139656623Y-62707613D01*
X139700248Y-62762189D01*
X139709500Y-62809188D01*
X139709500Y-69050500D01*
X139689815Y-69117539D01*
X139637011Y-69163294D01*
X139585502Y-69174500D01*
X139538142Y-69174500D01*
X139538122Y-69174500D01*
X139534992Y-69174501D01*
X139531861Y-69174820D01*
X139531857Y-69174821D01*
X139432201Y-69185000D01*
X139332782Y-69217945D01*
X139262954Y-69220347D01*
X139202912Y-69184615D01*
X139171720Y-69122094D01*
X139171413Y-69080178D01*
X139189260Y-68971318D01*
X139187556Y-68939897D01*
X139179245Y-68786593D01*
X139169985Y-68753243D01*
X139129754Y-68608341D01*
X139043100Y-68444896D01*
X138923336Y-68303899D01*
X138776063Y-68191944D01*
X138608169Y-68114268D01*
X138427497Y-68074500D01*
X138288887Y-68074500D01*
X138285552Y-68074862D01*
X138285546Y-68074863D01*
X138151091Y-68089485D01*
X137975779Y-68148556D01*
X137817262Y-68243931D01*
X137682960Y-68371149D01*
X137579140Y-68524272D01*
X137510669Y-68696121D01*
X137490716Y-68817830D01*
X137481153Y-68876168D01*
X137480740Y-68878685D01*
X137490754Y-69063407D01*
X137540245Y-69241658D01*
X137626899Y-69405103D01*
X137746663Y-69546100D01*
X137893936Y-69658055D01*
X138061830Y-69735731D01*
X138061831Y-69735731D01*
X138061833Y-69735732D01*
X138242503Y-69775500D01*
X138377754Y-69775500D01*
X138381113Y-69775500D01*
X138518910Y-69760514D01*
X138675336Y-69707806D01*
X138745150Y-69705055D01*
X138805371Y-69740485D01*
X138836877Y-69802848D01*
X138838287Y-69837917D01*
X138837125Y-69849293D01*
X138834500Y-69874991D01*
X138834500Y-69878139D01*
X138834500Y-71089546D01*
X138814815Y-71156585D01*
X138798181Y-71177227D01*
X138626208Y-71349199D01*
X138610110Y-71362096D01*
X138562096Y-71413225D01*
X138559392Y-71416016D01*
X138542628Y-71432780D01*
X138542621Y-71432787D01*
X138539880Y-71435529D01*
X138537499Y-71438597D01*
X138537490Y-71438608D01*
X138537411Y-71438711D01*
X138529842Y-71447572D01*
X138499935Y-71479420D01*
X138490285Y-71496974D01*
X138479609Y-71513228D01*
X138467326Y-71529063D01*
X138449975Y-71569158D01*
X138444838Y-71579644D01*
X138423802Y-71617907D01*
X138418821Y-71637309D01*
X138412520Y-71655711D01*
X138404561Y-71674102D01*
X138397728Y-71717242D01*
X138395360Y-71728674D01*
X138384500Y-71770977D01*
X138384500Y-71791016D01*
X138382973Y-71810414D01*
X138382493Y-71813448D01*
X138379840Y-71830196D01*
X138383950Y-71873673D01*
X138384500Y-71885343D01*
X138384500Y-77865822D01*
X138364815Y-77932861D01*
X138334813Y-77965087D01*
X138314955Y-77979952D01*
X138228704Y-78095169D01*
X138178409Y-78230016D01*
X138172992Y-78280405D01*
X138172000Y-78289627D01*
X138172000Y-78292948D01*
X138172000Y-78292949D01*
X138172000Y-80437060D01*
X138172000Y-80437078D01*
X138172001Y-80440372D01*
X138172353Y-80443652D01*
X138172354Y-80443659D01*
X138178409Y-80499984D01*
X138190581Y-80532618D01*
X138228704Y-80634831D01*
X138287121Y-80712866D01*
X138314955Y-80750047D01*
X138350737Y-80776833D01*
X138430169Y-80836296D01*
X138430170Y-80836296D01*
X138435533Y-80840311D01*
X138477405Y-80896244D01*
X138482389Y-80965936D01*
X138463193Y-81004644D01*
X138465505Y-81006061D01*
X138334779Y-81219383D01*
X138242768Y-81441516D01*
X138186641Y-81675306D01*
X138167777Y-81915000D01*
X138186641Y-82154693D01*
X138242768Y-82388483D01*
X138334780Y-82610616D01*
X138454866Y-82806579D01*
X139070968Y-82190476D01*
X139132116Y-82306982D01*
X139242425Y-82431496D01*
X139379327Y-82525992D01*
X139425172Y-82543378D01*
X138803518Y-83165033D01*
X138795075Y-83214874D01*
X138764136Y-83254849D01*
X138616200Y-83381200D01*
X138459998Y-83564088D01*
X138329233Y-83777478D01*
X138326532Y-83775823D01*
X138293054Y-83817361D01*
X138226758Y-83839421D01*
X138222341Y-83839500D01*
X135962744Y-83839500D01*
X135942236Y-83837235D01*
X135872113Y-83839439D01*
X135868219Y-83839500D01*
X135840650Y-83839500D01*
X135836794Y-83839986D01*
X135836791Y-83839987D01*
X135836735Y-83839994D01*
X135836662Y-83840003D01*
X135825043Y-83840917D01*
X135781372Y-83842289D01*
X135762128Y-83847880D01*
X135743084Y-83851824D01*
X135723208Y-83854335D01*
X135682600Y-83870413D01*
X135671554Y-83874194D01*
X135629610Y-83886382D01*
X135629607Y-83886383D01*
X135612365Y-83896579D01*
X135594904Y-83905133D01*
X135576267Y-83912512D01*
X135540931Y-83938185D01*
X135531174Y-83944595D01*
X135493580Y-83966829D01*
X135479413Y-83980996D01*
X135464624Y-83993626D01*
X135448413Y-84005404D01*
X135420572Y-84039058D01*
X135412711Y-84047697D01*
X134822181Y-84638227D01*
X134760858Y-84671712D01*
X134691166Y-84666728D01*
X134635233Y-84624856D01*
X134610816Y-84559392D01*
X134610500Y-84550546D01*
X134610500Y-72472739D01*
X134612763Y-72452238D01*
X134612170Y-72433377D01*
X134610561Y-72382144D01*
X134610500Y-72378250D01*
X134610500Y-72354544D01*
X134610500Y-72350650D01*
X134609998Y-72346681D01*
X134609080Y-72335024D01*
X134607709Y-72291373D01*
X134602120Y-72272140D01*
X134598174Y-72253082D01*
X134595664Y-72233208D01*
X134589286Y-72217100D01*
X134579585Y-72192597D01*
X134575804Y-72181552D01*
X134563619Y-72139613D01*
X134563618Y-72139612D01*
X134563618Y-72139610D01*
X134553417Y-72122361D01*
X134544860Y-72104895D01*
X134537486Y-72086268D01*
X134511813Y-72050932D01*
X134505402Y-72041172D01*
X134497306Y-72027483D01*
X134483170Y-72003579D01*
X134469006Y-71989415D01*
X134456369Y-71974620D01*
X134444595Y-71958414D01*
X134428797Y-71945345D01*
X134410935Y-71930568D01*
X134402305Y-71922714D01*
X133215802Y-70736211D01*
X133202906Y-70720113D01*
X133151775Y-70672098D01*
X133148978Y-70669387D01*
X133132227Y-70652636D01*
X133129471Y-70649880D01*
X133126290Y-70647412D01*
X133117422Y-70639837D01*
X133085582Y-70609938D01*
X133068024Y-70600285D01*
X133051764Y-70589604D01*
X133035936Y-70577327D01*
X132995851Y-70559980D01*
X132985361Y-70554841D01*
X132947091Y-70533802D01*
X132927691Y-70528821D01*
X132909284Y-70522519D01*
X132890897Y-70514562D01*
X132847758Y-70507729D01*
X132836324Y-70505361D01*
X132794019Y-70494500D01*
X132773984Y-70494500D01*
X132754586Y-70492973D01*
X132747162Y-70491797D01*
X132734805Y-70489840D01*
X132734804Y-70489840D01*
X132701751Y-70492964D01*
X132691325Y-70493950D01*
X132679656Y-70494500D01*
X132659188Y-70494500D01*
X132592149Y-70474815D01*
X132557613Y-70441623D01*
X132445046Y-70280859D01*
X132284140Y-70119953D01*
X132097735Y-69989432D01*
X131891497Y-69893261D01*
X131671689Y-69834364D01*
X131445000Y-69814531D01*
X131218310Y-69834364D01*
X130998502Y-69893261D01*
X130792264Y-69989432D01*
X130605859Y-70119953D01*
X130444953Y-70280859D01*
X130332387Y-70441623D01*
X130277811Y-70485248D01*
X130230812Y-70494500D01*
X125249499Y-70494500D01*
X125182460Y-70474815D01*
X125136705Y-70422011D01*
X125125499Y-70370500D01*
X125125499Y-70275439D01*
X125125499Y-70272128D01*
X125119091Y-70212517D01*
X125068796Y-70077669D01*
X124982546Y-69962454D01*
X124867331Y-69876204D01*
X124732483Y-69825909D01*
X124672873Y-69819500D01*
X124669550Y-69819500D01*
X122980439Y-69819500D01*
X122980420Y-69819500D01*
X122977128Y-69819501D01*
X122973848Y-69819853D01*
X122973840Y-69819854D01*
X122917515Y-69825909D01*
X122782669Y-69876204D01*
X122667454Y-69962454D01*
X122581204Y-70077668D01*
X122530910Y-70212515D01*
X122530909Y-70212517D01*
X122524500Y-70272127D01*
X122524500Y-70275430D01*
X122524499Y-70275449D01*
X122524500Y-70849546D01*
X122504815Y-70916585D01*
X122488181Y-70937227D01*
X119631208Y-73794199D01*
X119615110Y-73807096D01*
X119567096Y-73858225D01*
X119564392Y-73861016D01*
X119547628Y-73877780D01*
X119547621Y-73877787D01*
X119544880Y-73880529D01*
X119542499Y-73883597D01*
X119542490Y-73883608D01*
X119542411Y-73883711D01*
X119534842Y-73892572D01*
X119504935Y-73924420D01*
X119495285Y-73941974D01*
X119484609Y-73958228D01*
X119472326Y-73974063D01*
X119454975Y-74014158D01*
X119449838Y-74024644D01*
X119428802Y-74062907D01*
X119423821Y-74082309D01*
X119417520Y-74100711D01*
X119409561Y-74119102D01*
X119402728Y-74162242D01*
X119400360Y-74173674D01*
X119389500Y-74215977D01*
X119389500Y-74236016D01*
X119387973Y-74255414D01*
X119384839Y-74275196D01*
X119388949Y-74318676D01*
X119389499Y-74330343D01*
X119389499Y-75889546D01*
X119369814Y-75956585D01*
X119353180Y-75977227D01*
X118946017Y-76384390D01*
X118884694Y-76417875D01*
X118815002Y-76412891D01*
X118759069Y-76371019D01*
X118734652Y-76305555D01*
X118734808Y-76285902D01*
X118742323Y-76199999D01*
X118726919Y-76023923D01*
X118723070Y-75979932D01*
X118665894Y-75766550D01*
X118572534Y-75566339D01*
X118445826Y-75385380D01*
X118289620Y-75229174D01*
X118108662Y-75102466D01*
X117979811Y-75042382D01*
X117927372Y-74996210D01*
X117908220Y-74929016D01*
X117928436Y-74862135D01*
X117979811Y-74817618D01*
X117985027Y-74815185D01*
X118108662Y-74757534D01*
X118289620Y-74630826D01*
X118445826Y-74474620D01*
X118572534Y-74293662D01*
X118665894Y-74093450D01*
X118723070Y-73880068D01*
X118742323Y-73660000D01*
X118723070Y-73439932D01*
X118665894Y-73226550D01*
X118572534Y-73026339D01*
X118445826Y-72845380D01*
X118289620Y-72689174D01*
X118108662Y-72562466D01*
X118061170Y-72540320D01*
X117908451Y-72469106D01*
X117695065Y-72411929D01*
X117475000Y-72392676D01*
X117254934Y-72411929D01*
X117041548Y-72469106D01*
X116841338Y-72562466D01*
X116660379Y-72689174D01*
X116504174Y-72845379D01*
X116377466Y-73026338D01*
X116284106Y-73226548D01*
X116226929Y-73439934D01*
X116207676Y-73659999D01*
X116226929Y-73880065D01*
X116284106Y-74093451D01*
X116341241Y-74215977D01*
X116377466Y-74293662D01*
X116504174Y-74474620D01*
X116660380Y-74630826D01*
X116841338Y-74757534D01*
X116912180Y-74790568D01*
X116970189Y-74817618D01*
X117022628Y-74863790D01*
X117041780Y-74930984D01*
X117021564Y-74997865D01*
X116970189Y-75042382D01*
X116841338Y-75102466D01*
X116660379Y-75229174D01*
X116504174Y-75385379D01*
X116377466Y-75566338D01*
X116284106Y-75766548D01*
X116226929Y-75979934D01*
X116207676Y-76200000D01*
X116226929Y-76420065D01*
X116284106Y-76633451D01*
X116348718Y-76772011D01*
X116377466Y-76833662D01*
X116504174Y-77014620D01*
X116660380Y-77170826D01*
X116841338Y-77297534D01*
X116912178Y-77330567D01*
X116970189Y-77357618D01*
X117022628Y-77403790D01*
X117041780Y-77470984D01*
X117021564Y-77537865D01*
X116970189Y-77582382D01*
X116841338Y-77642466D01*
X116660379Y-77769174D01*
X116504174Y-77925379D01*
X116408776Y-78061623D01*
X116354199Y-78105248D01*
X116307201Y-78114500D01*
X114382741Y-78114500D01*
X114362237Y-78112236D01*
X114292145Y-78114439D01*
X114288251Y-78114500D01*
X114260650Y-78114500D01*
X114256799Y-78114986D01*
X114256768Y-78114988D01*
X114256640Y-78115005D01*
X114245028Y-78115918D01*
X114201368Y-78117290D01*
X114182128Y-78122880D01*
X114163081Y-78126825D01*
X114143209Y-78129335D01*
X114102599Y-78145413D01*
X114091554Y-78149194D01*
X114049611Y-78161380D01*
X114032369Y-78171578D01*
X114014897Y-78180138D01*
X113996266Y-78187514D01*
X113960938Y-78213181D01*
X113951180Y-78219591D01*
X113913579Y-78241829D01*
X113899410Y-78255998D01*
X113884622Y-78268628D01*
X113868413Y-78280405D01*
X113840572Y-78314058D01*
X113832711Y-78322696D01*
X108002228Y-84153181D01*
X107940905Y-84186666D01*
X107914547Y-84189500D01*
X107855352Y-84189500D01*
X107670197Y-84228855D01*
X107497269Y-84305848D01*
X107344129Y-84417110D01*
X107217466Y-84557783D01*
X107122820Y-84721715D01*
X107064326Y-84901742D01*
X107044540Y-85090000D01*
X107064326Y-85278257D01*
X107122820Y-85458284D01*
X107217466Y-85622216D01*
X107344129Y-85762889D01*
X107497269Y-85874151D01*
X107670197Y-85951144D01*
X107855352Y-85990500D01*
X107855354Y-85990500D01*
X108044648Y-85990500D01*
X108168083Y-85964262D01*
X108229803Y-85951144D01*
X108402730Y-85874151D01*
X108415105Y-85865160D01*
X108555870Y-85762889D01*
X108682533Y-85622216D01*
X108777179Y-85458284D01*
X108809129Y-85359953D01*
X108835674Y-85278256D01*
X108853321Y-85110345D01*
X108879905Y-85045732D01*
X108888952Y-85035636D01*
X114522771Y-79401819D01*
X114584095Y-79368334D01*
X114610453Y-79365500D01*
X116300546Y-79365500D01*
X116367585Y-79385185D01*
X116413340Y-79437989D01*
X116423284Y-79507147D01*
X116394259Y-79570703D01*
X116388227Y-79577181D01*
X116004208Y-79961199D01*
X115988110Y-79974096D01*
X115940096Y-80025225D01*
X115937392Y-80028016D01*
X115920628Y-80044780D01*
X115920621Y-80044787D01*
X115917880Y-80047529D01*
X115915499Y-80050597D01*
X115915490Y-80050608D01*
X115915411Y-80050711D01*
X115907842Y-80059572D01*
X115877935Y-80091420D01*
X115868285Y-80108974D01*
X115857609Y-80125228D01*
X115845326Y-80141063D01*
X115827975Y-80181158D01*
X115822838Y-80191644D01*
X115801802Y-80229907D01*
X115796821Y-80249309D01*
X115790520Y-80267711D01*
X115782561Y-80286102D01*
X115775728Y-80329242D01*
X115773360Y-80340674D01*
X115762499Y-80382977D01*
X115762500Y-80403016D01*
X115760973Y-80422415D01*
X115757839Y-80442195D01*
X115761949Y-80485671D01*
X115762499Y-80497339D01*
X115762499Y-87730256D01*
X115760235Y-87750763D01*
X115762439Y-87820872D01*
X115762500Y-87824767D01*
X115762500Y-87852350D01*
X115762988Y-87856219D01*
X115762989Y-87856225D01*
X115763004Y-87856343D01*
X115763918Y-87867967D01*
X115765290Y-87911626D01*
X115770879Y-87930860D01*
X115774825Y-87949916D01*
X115777335Y-87969792D01*
X115793414Y-88010404D01*
X115797197Y-88021451D01*
X115809382Y-88063391D01*
X115819580Y-88080635D01*
X115828136Y-88098100D01*
X115835514Y-88116732D01*
X115835515Y-88116733D01*
X115861180Y-88152059D01*
X115867593Y-88161822D01*
X115889826Y-88199416D01*
X115889829Y-88199419D01*
X115889830Y-88199420D01*
X115903995Y-88213585D01*
X115916627Y-88228375D01*
X115928406Y-88244587D01*
X115962058Y-88272426D01*
X115970699Y-88280289D01*
X116206613Y-88516203D01*
X116240098Y-88577526D01*
X116238707Y-88635976D01*
X116226929Y-88679931D01*
X116207676Y-88900000D01*
X116226929Y-89120065D01*
X116284106Y-89333451D01*
X116305652Y-89379656D01*
X116377466Y-89533662D01*
X116504174Y-89714620D01*
X116660380Y-89870826D01*
X116841338Y-89997534D01*
X116912178Y-90030567D01*
X116970189Y-90057618D01*
X117022628Y-90103790D01*
X117041780Y-90170984D01*
X117021564Y-90237865D01*
X116970189Y-90282382D01*
X116841338Y-90342466D01*
X116660379Y-90469174D01*
X116504174Y-90625379D01*
X116377466Y-90806338D01*
X116284106Y-91006548D01*
X116226929Y-91219934D01*
X116207676Y-91440000D01*
X116226929Y-91660065D01*
X116284106Y-91873451D01*
X116382051Y-92083494D01*
X116380551Y-92084193D01*
X116398894Y-92138586D01*
X116381881Y-92206353D01*
X116330932Y-92254164D01*
X116274991Y-92267500D01*
X98355009Y-92267500D01*
X98287970Y-92247815D01*
X98242215Y-92195011D01*
X98232271Y-92125853D01*
X98248864Y-92083920D01*
X98247949Y-92083494D01*
X98280930Y-92012766D01*
X98345894Y-91873450D01*
X98403070Y-91660068D01*
X98422323Y-91440000D01*
X98403070Y-91219932D01*
X98345894Y-91006550D01*
X98252534Y-90806339D01*
X98125826Y-90625380D01*
X97969620Y-90469174D01*
X97788662Y-90342466D01*
X97659811Y-90282382D01*
X97607372Y-90236210D01*
X97588220Y-90169016D01*
X97608436Y-90102135D01*
X97659811Y-90057618D01*
X97682262Y-90047149D01*
X97788662Y-89997534D01*
X97969620Y-89870826D01*
X98125826Y-89714620D01*
X98252534Y-89533662D01*
X98345894Y-89333450D01*
X98403070Y-89120068D01*
X98422323Y-88900000D01*
X98403070Y-88679932D01*
X98345894Y-88466550D01*
X98252534Y-88266339D01*
X98125826Y-88085380D01*
X97969620Y-87929174D01*
X97788662Y-87802466D01*
X97659811Y-87742382D01*
X97607372Y-87696210D01*
X97588220Y-87629016D01*
X97608436Y-87562135D01*
X97659811Y-87517618D01*
X97665027Y-87515185D01*
X97788662Y-87457534D01*
X97969620Y-87330826D01*
X98125826Y-87174620D01*
X98252534Y-86993662D01*
X98345894Y-86793450D01*
X98403070Y-86580068D01*
X98422323Y-86360000D01*
X98403070Y-86139932D01*
X98345894Y-85926550D01*
X98252534Y-85726339D01*
X98125826Y-85545380D01*
X97969620Y-85389174D01*
X97788662Y-85262466D01*
X97659811Y-85202382D01*
X97607372Y-85156210D01*
X97588220Y-85089016D01*
X97608436Y-85022135D01*
X97659811Y-84977618D01*
X97665027Y-84975185D01*
X97788662Y-84917534D01*
X97969620Y-84790826D01*
X98125826Y-84634620D01*
X98252534Y-84453662D01*
X98345894Y-84253450D01*
X98403070Y-84040068D01*
X98422323Y-83820000D01*
X98403070Y-83599932D01*
X98345894Y-83386550D01*
X98252534Y-83186339D01*
X98125826Y-83005380D01*
X97969620Y-82849174D01*
X97788662Y-82722466D01*
X97659811Y-82662382D01*
X97607372Y-82616210D01*
X97588220Y-82549016D01*
X97608436Y-82482135D01*
X97659811Y-82437618D01*
X97665027Y-82435185D01*
X97788662Y-82377534D01*
X97969620Y-82250826D01*
X98125826Y-82094620D01*
X98252534Y-81913662D01*
X98345894Y-81713450D01*
X98403070Y-81500068D01*
X98422323Y-81280000D01*
X98403070Y-81059932D01*
X98345894Y-80846550D01*
X98252534Y-80646339D01*
X98125826Y-80465380D01*
X97969620Y-80309174D01*
X97788662Y-80182466D01*
X97718749Y-80149865D01*
X97659811Y-80122382D01*
X97607372Y-80076210D01*
X97588220Y-80009016D01*
X97608436Y-79942135D01*
X97659811Y-79897618D01*
X97678991Y-79888674D01*
X97788662Y-79837534D01*
X97969620Y-79710826D01*
X98125826Y-79554620D01*
X98252534Y-79373662D01*
X98345894Y-79173450D01*
X98403070Y-78960068D01*
X98422323Y-78740000D01*
X98403070Y-78519932D01*
X98345894Y-78306550D01*
X98252534Y-78106339D01*
X98125826Y-77925380D01*
X97969620Y-77769174D01*
X97788662Y-77642466D01*
X97659811Y-77582382D01*
X97607372Y-77536210D01*
X97588220Y-77469016D01*
X97608436Y-77402135D01*
X97659811Y-77357618D01*
X97665027Y-77355185D01*
X97788662Y-77297534D01*
X97969620Y-77170826D01*
X98125826Y-77014620D01*
X98252534Y-76833662D01*
X98345894Y-76633450D01*
X98403070Y-76420068D01*
X98422323Y-76200000D01*
X98403070Y-75979932D01*
X98345894Y-75766550D01*
X98252534Y-75566339D01*
X98125826Y-75385380D01*
X97969620Y-75229174D01*
X97788662Y-75102466D01*
X97659811Y-75042382D01*
X97607372Y-74996210D01*
X97588220Y-74929016D01*
X97608436Y-74862135D01*
X97659811Y-74817618D01*
X97665027Y-74815185D01*
X97788662Y-74757534D01*
X97969620Y-74630826D01*
X98125826Y-74474620D01*
X98252534Y-74293662D01*
X98345894Y-74093450D01*
X98403070Y-73880068D01*
X98422323Y-73660000D01*
X98403070Y-73439932D01*
X98345894Y-73226550D01*
X98252534Y-73026339D01*
X98125826Y-72845380D01*
X97969620Y-72689174D01*
X97788662Y-72562466D01*
X97741170Y-72540320D01*
X97659218Y-72502105D01*
X97606779Y-72455932D01*
X97587627Y-72388739D01*
X97607843Y-72321858D01*
X97659220Y-72277340D01*
X97788411Y-72217098D01*
X97853187Y-72171740D01*
X97182448Y-71501000D01*
X97186569Y-71501000D01*
X97280421Y-71485339D01*
X97392251Y-71424820D01*
X97478371Y-71331269D01*
X97529448Y-71214823D01*
X97535105Y-71146552D01*
X98206740Y-71818186D01*
X98252100Y-71753408D01*
X98345420Y-71553281D01*
X98402575Y-71339978D01*
X98421821Y-71120000D01*
X98402575Y-70900021D01*
X98345421Y-70686720D01*
X98252098Y-70486589D01*
X98206740Y-70421811D01*
X97539903Y-71088648D01*
X97539949Y-71088102D01*
X97508734Y-70964838D01*
X97439187Y-70858388D01*
X97338843Y-70780287D01*
X97218578Y-70739000D01*
X97182447Y-70739000D01*
X97853187Y-70068258D01*
X97788406Y-70022898D01*
X97659219Y-69962658D01*
X97606779Y-69916486D01*
X97587627Y-69849293D01*
X97607843Y-69782411D01*
X97659219Y-69737894D01*
X97694891Y-69721260D01*
X97788662Y-69677534D01*
X97969620Y-69550826D01*
X98125826Y-69394620D01*
X98252534Y-69213662D01*
X98345894Y-69013450D01*
X98403070Y-68800068D01*
X98422323Y-68580000D01*
X98403070Y-68359932D01*
X98345894Y-68146550D01*
X98252534Y-67946339D01*
X98125826Y-67765380D01*
X97969620Y-67609174D01*
X97788662Y-67482466D01*
X97659811Y-67422382D01*
X97607372Y-67376210D01*
X97588220Y-67309016D01*
X97608436Y-67242135D01*
X97659811Y-67197618D01*
X97665027Y-67195185D01*
X97788662Y-67137534D01*
X97969620Y-67010826D01*
X98125826Y-66854620D01*
X98252534Y-66673662D01*
X98345894Y-66473450D01*
X98403070Y-66260068D01*
X98422323Y-66040000D01*
X98403070Y-65819932D01*
X98345894Y-65606550D01*
X98252534Y-65406339D01*
X98125826Y-65225380D01*
X97969620Y-65069174D01*
X97788662Y-64942466D01*
X97659811Y-64882382D01*
X97607372Y-64836210D01*
X97588220Y-64769016D01*
X97608436Y-64702135D01*
X97659811Y-64657618D01*
X97665027Y-64655185D01*
X97788662Y-64597534D01*
X97969620Y-64470826D01*
X98125826Y-64314620D01*
X98252534Y-64133662D01*
X98345894Y-63933450D01*
X98403070Y-63720068D01*
X98422323Y-63500000D01*
X98403070Y-63279932D01*
X98345894Y-63066550D01*
X98252534Y-62866339D01*
X98125826Y-62685380D01*
X97969620Y-62529174D01*
X97788662Y-62402466D01*
X97612825Y-62320472D01*
X97588451Y-62309106D01*
X97375065Y-62251929D01*
X97154999Y-62232676D01*
X96934934Y-62251929D01*
X96721548Y-62309106D01*
X96521338Y-62402466D01*
X96340379Y-62529174D01*
X96184174Y-62685379D01*
X96057466Y-62866338D01*
X95964106Y-63066548D01*
X95906929Y-63279934D01*
X95887676Y-63500000D01*
X95906929Y-63720065D01*
X95964106Y-63933451D01*
X96007451Y-64026404D01*
X96057466Y-64133662D01*
X96184174Y-64314620D01*
X96340380Y-64470826D01*
X96521338Y-64597534D01*
X96640748Y-64653215D01*
X96650189Y-64657618D01*
X96702628Y-64703790D01*
X96721780Y-64770984D01*
X96701564Y-64837865D01*
X96650189Y-64882382D01*
X96521338Y-64942466D01*
X96340379Y-65069174D01*
X96184174Y-65225379D01*
X96057466Y-65406338D01*
X95964106Y-65606548D01*
X95906929Y-65819934D01*
X95887676Y-66040000D01*
X95906929Y-66260065D01*
X95906930Y-66260068D01*
X95964106Y-66473450D01*
X96057466Y-66673662D01*
X96184174Y-66854620D01*
X96340380Y-67010826D01*
X96521338Y-67137534D01*
X96640748Y-67193215D01*
X96650189Y-67197618D01*
X96702628Y-67243790D01*
X96721780Y-67310984D01*
X96701564Y-67377865D01*
X96650189Y-67422382D01*
X96521338Y-67482466D01*
X96340379Y-67609174D01*
X96184174Y-67765379D01*
X96057466Y-67946338D01*
X95964106Y-68146548D01*
X95906929Y-68359934D01*
X95887676Y-68579999D01*
X95906929Y-68800065D01*
X95964106Y-69013451D01*
X96051071Y-69199948D01*
X96057466Y-69213662D01*
X96184174Y-69394620D01*
X96340380Y-69550826D01*
X96521338Y-69677534D01*
X96580357Y-69705055D01*
X96650780Y-69737894D01*
X96703219Y-69784066D01*
X96722371Y-69851260D01*
X96702155Y-69918141D01*
X96650780Y-69962658D01*
X96521589Y-70022900D01*
X96456812Y-70068258D01*
X96456811Y-70068258D01*
X97127554Y-70739000D01*
X97123431Y-70739000D01*
X97029579Y-70754661D01*
X96917749Y-70815180D01*
X96831629Y-70908731D01*
X96780552Y-71025177D01*
X96774894Y-71093447D01*
X96103258Y-70421811D01*
X96103258Y-70421812D01*
X96057900Y-70486589D01*
X95964578Y-70686719D01*
X95907424Y-70900021D01*
X95888178Y-71120000D01*
X95907424Y-71339978D01*
X95964579Y-71553281D01*
X96057898Y-71753406D01*
X96103258Y-71818187D01*
X96770096Y-71151349D01*
X96770051Y-71151898D01*
X96801266Y-71275162D01*
X96870813Y-71381612D01*
X96971157Y-71459713D01*
X97091422Y-71501000D01*
X97127553Y-71501000D01*
X96456812Y-72171740D01*
X96521592Y-72217100D01*
X96650780Y-72277341D01*
X96703220Y-72323513D01*
X96722372Y-72390706D01*
X96702157Y-72457587D01*
X96650782Y-72502105D01*
X96521336Y-72562467D01*
X96340379Y-72689174D01*
X96184174Y-72845379D01*
X96057466Y-73026338D01*
X95964106Y-73226548D01*
X95906929Y-73439934D01*
X95887676Y-73660000D01*
X95906929Y-73880065D01*
X95964106Y-74093451D01*
X96021241Y-74215977D01*
X96057466Y-74293662D01*
X96184174Y-74474620D01*
X96340380Y-74630826D01*
X96521338Y-74757534D01*
X96592180Y-74790568D01*
X96650189Y-74817618D01*
X96702628Y-74863790D01*
X96721780Y-74930984D01*
X96701564Y-74997865D01*
X96650189Y-75042382D01*
X96521338Y-75102466D01*
X96340379Y-75229174D01*
X96184174Y-75385379D01*
X96057466Y-75566338D01*
X95964106Y-75766548D01*
X95906929Y-75979934D01*
X95887676Y-76200000D01*
X95906929Y-76420065D01*
X95964106Y-76633451D01*
X96028718Y-76772011D01*
X96057466Y-76833662D01*
X96184174Y-77014620D01*
X96340380Y-77170826D01*
X96521338Y-77297534D01*
X96592178Y-77330567D01*
X96650189Y-77357618D01*
X96702628Y-77403790D01*
X96721780Y-77470984D01*
X96701564Y-77537865D01*
X96650189Y-77582382D01*
X96521338Y-77642466D01*
X96340379Y-77769174D01*
X96184174Y-77925379D01*
X96057466Y-78106338D01*
X95964106Y-78306548D01*
X95906929Y-78519934D01*
X95887676Y-78739999D01*
X95906929Y-78960065D01*
X95964106Y-79173451D01*
X96053660Y-79365500D01*
X96057466Y-79373662D01*
X96184174Y-79554620D01*
X96340380Y-79710826D01*
X96521338Y-79837534D01*
X96618879Y-79883018D01*
X96650189Y-79897618D01*
X96702628Y-79943790D01*
X96721780Y-80010984D01*
X96701564Y-80077865D01*
X96650189Y-80122382D01*
X96521338Y-80182466D01*
X96340379Y-80309174D01*
X96184174Y-80465379D01*
X96057466Y-80646338D01*
X95964106Y-80846548D01*
X95906929Y-81059934D01*
X95887676Y-81280000D01*
X95906929Y-81500065D01*
X95964106Y-81713451D01*
X96017203Y-81827318D01*
X96057466Y-81913662D01*
X96184174Y-82094620D01*
X96340380Y-82250826D01*
X96521338Y-82377534D01*
X96637060Y-82431496D01*
X96650189Y-82437618D01*
X96702628Y-82483790D01*
X96721780Y-82550984D01*
X96701564Y-82617865D01*
X96650189Y-82662382D01*
X96521338Y-82722466D01*
X96340379Y-82849174D01*
X96184174Y-83005379D01*
X96057466Y-83186338D01*
X95964106Y-83386548D01*
X95906929Y-83599934D01*
X95887676Y-83820000D01*
X95906929Y-84040065D01*
X95964106Y-84253451D01*
X96047875Y-84433095D01*
X96057466Y-84453662D01*
X96184174Y-84634620D01*
X96340380Y-84790826D01*
X96521338Y-84917534D01*
X96592180Y-84950568D01*
X96650189Y-84977618D01*
X96702628Y-85023790D01*
X96721780Y-85090984D01*
X96701564Y-85157865D01*
X96650189Y-85202382D01*
X96521338Y-85262466D01*
X96340379Y-85389174D01*
X96184174Y-85545379D01*
X96057466Y-85726338D01*
X95964106Y-85926548D01*
X95906929Y-86139934D01*
X95887676Y-86360000D01*
X95906929Y-86580065D01*
X95964106Y-86793451D01*
X95989499Y-86847906D01*
X96057466Y-86993662D01*
X96184174Y-87174620D01*
X96340380Y-87330826D01*
X96521338Y-87457534D01*
X96592176Y-87490566D01*
X96650189Y-87517618D01*
X96702628Y-87563790D01*
X96721780Y-87630984D01*
X96701564Y-87697865D01*
X96650189Y-87742382D01*
X96521338Y-87802466D01*
X96340379Y-87929174D01*
X96184174Y-88085379D01*
X96057466Y-88266338D01*
X95964106Y-88466548D01*
X95906929Y-88679934D01*
X95887676Y-88899999D01*
X95906929Y-89120065D01*
X95964106Y-89333451D01*
X95985652Y-89379656D01*
X96057466Y-89533662D01*
X96184174Y-89714620D01*
X96340380Y-89870826D01*
X96521338Y-89997534D01*
X96592178Y-90030567D01*
X96650189Y-90057618D01*
X96702628Y-90103790D01*
X96721780Y-90170984D01*
X96701564Y-90237865D01*
X96650189Y-90282382D01*
X96521338Y-90342466D01*
X96340379Y-90469174D01*
X96184174Y-90625379D01*
X96057466Y-90806338D01*
X95959521Y-91016382D01*
X95958408Y-91015863D01*
X95927753Y-91066153D01*
X95864904Y-91096679D01*
X95795529Y-91088381D01*
X95756666Y-91062076D01*
X93948867Y-89254277D01*
X92104413Y-87409822D01*
X92070928Y-87348499D01*
X92072319Y-87290047D01*
X92090635Y-87221692D01*
X92110468Y-86995000D01*
X92090635Y-86768308D01*
X92031739Y-86548504D01*
X91935568Y-86342266D01*
X91805047Y-86155861D01*
X91805046Y-86155859D01*
X91644140Y-85994953D01*
X91457733Y-85864431D01*
X91399725Y-85837382D01*
X91347285Y-85791210D01*
X91328133Y-85724017D01*
X91348348Y-85657135D01*
X91399725Y-85612618D01*
X91457734Y-85585568D01*
X91644139Y-85455047D01*
X91805047Y-85294139D01*
X91935568Y-85107734D01*
X92031739Y-84901496D01*
X92090635Y-84681692D01*
X92110468Y-84455000D01*
X92090635Y-84228308D01*
X92031739Y-84008504D01*
X91935568Y-83802266D01*
X91918212Y-83777478D01*
X91805046Y-83615859D01*
X91644140Y-83454953D01*
X91457736Y-83324433D01*
X91457730Y-83324430D01*
X91399132Y-83297105D01*
X91346695Y-83250933D01*
X91327543Y-83183739D01*
X91347759Y-83116858D01*
X91399135Y-83072342D01*
X91457479Y-83045135D01*
X91643819Y-82914658D01*
X91804658Y-82753819D01*
X91935134Y-82567480D01*
X92031266Y-82361326D01*
X92083872Y-82165000D01*
X91120686Y-82165000D01*
X91132641Y-82153045D01*
X91190165Y-82040148D01*
X91209986Y-81915000D01*
X91190165Y-81789852D01*
X91132641Y-81676955D01*
X91120686Y-81665000D01*
X92083872Y-81665000D01*
X92083871Y-81664999D01*
X92031266Y-81468673D01*
X91935134Y-81262519D01*
X91804658Y-81076180D01*
X91643819Y-80915341D01*
X91457479Y-80784864D01*
X91398543Y-80757382D01*
X91346103Y-80711210D01*
X91326951Y-80644017D01*
X91347166Y-80577136D01*
X91398543Y-80532618D01*
X91457479Y-80505135D01*
X91643819Y-80374658D01*
X91804658Y-80213819D01*
X91935134Y-80027480D01*
X92031266Y-79821326D01*
X92083872Y-79625000D01*
X91120686Y-79625000D01*
X91132641Y-79613045D01*
X91190165Y-79500148D01*
X91209986Y-79375000D01*
X91190165Y-79249852D01*
X91132641Y-79136955D01*
X91120686Y-79125000D01*
X92083872Y-79125000D01*
X92083871Y-79124999D01*
X92031266Y-78928673D01*
X91935134Y-78722519D01*
X91804658Y-78536180D01*
X91643819Y-78375341D01*
X91457482Y-78244866D01*
X91399133Y-78217657D01*
X91346694Y-78171484D01*
X91327543Y-78104290D01*
X91347759Y-78037409D01*
X91399134Y-77992893D01*
X91457734Y-77965568D01*
X91644139Y-77835047D01*
X91805047Y-77674139D01*
X91935568Y-77487734D01*
X92031739Y-77281496D01*
X92090635Y-77061692D01*
X92110468Y-76835000D01*
X92090635Y-76608308D01*
X92031739Y-76388504D01*
X91935568Y-76182266D01*
X91848143Y-76057408D01*
X91805046Y-75995859D01*
X91644140Y-75834953D01*
X91457733Y-75704431D01*
X91399725Y-75677382D01*
X91347285Y-75631210D01*
X91328133Y-75564017D01*
X91348348Y-75497135D01*
X91399725Y-75452618D01*
X91457734Y-75425568D01*
X91644139Y-75295047D01*
X91805047Y-75134139D01*
X91935568Y-74947734D01*
X92031739Y-74741496D01*
X92090635Y-74521692D01*
X92110468Y-74295000D01*
X92090635Y-74068308D01*
X92031739Y-73848504D01*
X91935568Y-73642266D01*
X91906441Y-73600667D01*
X91805046Y-73455859D01*
X91644140Y-73294953D01*
X91457733Y-73164431D01*
X91399725Y-73137382D01*
X91347285Y-73091210D01*
X91328133Y-73024017D01*
X91348348Y-72957135D01*
X91399725Y-72912618D01*
X91457734Y-72885568D01*
X91644139Y-72755047D01*
X91805047Y-72594139D01*
X91935568Y-72407734D01*
X92031739Y-72201496D01*
X92090635Y-71981692D01*
X92110468Y-71755000D01*
X92109867Y-71748136D01*
X92095126Y-71579644D01*
X92090635Y-71528308D01*
X92031739Y-71308504D01*
X91935568Y-71102266D01*
X91926662Y-71089546D01*
X91805046Y-70915859D01*
X91644140Y-70754953D01*
X91457735Y-70624432D01*
X91251497Y-70528261D01*
X91031689Y-70469364D01*
X90805000Y-70449531D01*
X90578310Y-70469364D01*
X90358502Y-70528261D01*
X90152264Y-70624432D01*
X89965859Y-70754953D01*
X89804953Y-70915859D01*
X89692387Y-71076623D01*
X89637811Y-71120248D01*
X89590812Y-71129500D01*
X84609499Y-71129500D01*
X84542460Y-71109815D01*
X84496705Y-71057011D01*
X84485499Y-71005500D01*
X84485499Y-70910439D01*
X84485499Y-70910438D01*
X84485499Y-70907128D01*
X84479091Y-70847517D01*
X84428796Y-70712669D01*
X84342546Y-70597454D01*
X84227331Y-70511204D01*
X84092483Y-70460909D01*
X84032873Y-70454500D01*
X84029550Y-70454500D01*
X82340439Y-70454500D01*
X82340420Y-70454500D01*
X82337128Y-70454501D01*
X82333848Y-70454853D01*
X82333840Y-70454854D01*
X82277515Y-70460909D01*
X82142669Y-70511204D01*
X82027454Y-70597454D01*
X81941204Y-70712668D01*
X81890909Y-70847516D01*
X81885169Y-70900909D01*
X81884500Y-70907127D01*
X81884500Y-70910448D01*
X81884500Y-70910449D01*
X81884500Y-72599560D01*
X81884500Y-72599578D01*
X81884501Y-72602872D01*
X81884853Y-72606152D01*
X81884854Y-72606159D01*
X81890909Y-72662484D01*
X81916056Y-72729907D01*
X81941204Y-72797331D01*
X82027454Y-72912546D01*
X82142669Y-72998796D01*
X82277517Y-73049091D01*
X82312594Y-73052862D01*
X82377143Y-73079598D01*
X82416993Y-73136989D01*
X82419488Y-73206814D01*
X82383837Y-73266904D01*
X82370463Y-73277725D01*
X82345861Y-73294951D01*
X82184953Y-73455859D01*
X82054432Y-73642264D01*
X81958261Y-73848502D01*
X81899364Y-74068310D01*
X81879531Y-74295000D01*
X81883389Y-74339103D01*
X81869621Y-74407602D01*
X81821006Y-74457785D01*
X81752977Y-74473717D01*
X81687133Y-74450341D01*
X81672180Y-74437589D01*
X80671819Y-73437228D01*
X80638334Y-73375905D01*
X80635500Y-73349547D01*
X80635500Y-63175452D01*
X80655185Y-63108413D01*
X80671819Y-63087771D01*
X82442772Y-61316819D01*
X82504095Y-61283334D01*
X82530453Y-61280500D01*
X85475019Y-61280500D01*
X85542058Y-61300185D01*
X85587813Y-61352989D01*
X85598377Y-61391900D01*
X85600000Y-61407796D01*
X85655186Y-61574334D01*
X85747288Y-61723657D01*
X85871342Y-61847711D01*
X86026120Y-61943178D01*
X86072845Y-61995126D01*
X86084068Y-62064088D01*
X86056225Y-62128170D01*
X86048706Y-62136397D01*
X85901505Y-62283599D01*
X85782392Y-62453711D01*
X85765964Y-62477172D01*
X85666097Y-62691337D01*
X85604936Y-62919592D01*
X85584340Y-63155000D01*
X85604936Y-63390407D01*
X85645778Y-63542830D01*
X85666097Y-63618663D01*
X85765965Y-63832829D01*
X85901505Y-64026401D01*
X86068599Y-64193495D01*
X86262171Y-64329035D01*
X86476337Y-64428903D01*
X86704592Y-64490063D01*
X86881034Y-64505500D01*
X86883742Y-64505500D01*
X87296258Y-64505500D01*
X87298966Y-64505500D01*
X87475408Y-64490063D01*
X87703663Y-64428903D01*
X87917829Y-64329035D01*
X88111401Y-64193495D01*
X88278495Y-64026401D01*
X88413653Y-63833374D01*
X88468229Y-63789752D01*
X88515227Y-63780500D01*
X93024951Y-63780500D01*
X93091990Y-63800185D01*
X93112632Y-63816819D01*
X93140859Y-63845046D01*
X93327264Y-63975567D01*
X93327265Y-63975567D01*
X93327266Y-63975568D01*
X93533504Y-64071739D01*
X93753308Y-64130635D01*
X93847812Y-64138903D01*
X93979999Y-64150468D01*
X93979999Y-64150467D01*
X93980000Y-64150468D01*
X94206692Y-64130635D01*
X94426496Y-64071739D01*
X94632734Y-63975568D01*
X94819139Y-63845047D01*
X94980047Y-63684139D01*
X95110568Y-63497734D01*
X95206739Y-63291496D01*
X95265635Y-63071692D01*
X95285468Y-62845000D01*
X95265635Y-62618308D01*
X95206739Y-62398504D01*
X95110568Y-62192266D01*
X95107002Y-62187172D01*
X94980046Y-62005859D01*
X94819140Y-61844953D01*
X94632738Y-61714434D01*
X94632734Y-61714432D01*
X94617612Y-61707380D01*
X94565176Y-61661211D01*
X94546023Y-61594018D01*
X94566238Y-61527136D01*
X94617612Y-61482619D01*
X94632734Y-61475568D01*
X94819139Y-61345047D01*
X94980047Y-61184139D01*
X95110568Y-60997734D01*
X95206739Y-60791496D01*
X95265635Y-60571692D01*
X95285468Y-60345000D01*
X95265635Y-60118308D01*
X95206739Y-59898504D01*
X95110568Y-59692266D01*
X95109354Y-59690531D01*
X94980046Y-59505859D01*
X94819140Y-59344953D01*
X94632735Y-59214432D01*
X94426497Y-59118261D01*
X94206689Y-59059364D01*
X93979999Y-59039531D01*
X93753310Y-59059364D01*
X93533502Y-59118261D01*
X93327264Y-59214432D01*
X93140859Y-59344953D01*
X92979953Y-59505859D01*
X92849432Y-59692264D01*
X92753261Y-59898502D01*
X92742787Y-59937594D01*
X92706422Y-59997254D01*
X92643575Y-60027783D01*
X92623012Y-60029500D01*
X88704981Y-60029500D01*
X88637942Y-60009815D01*
X88592187Y-59957011D01*
X88581623Y-59918100D01*
X88579999Y-59902203D01*
X88567914Y-59865732D01*
X88524814Y-59735666D01*
X88455669Y-59623564D01*
X88432711Y-59586342D01*
X88308657Y-59462288D01*
X88159334Y-59370186D01*
X87992797Y-59315000D01*
X87893141Y-59304819D01*
X87893122Y-59304818D01*
X87890009Y-59304500D01*
X87886860Y-59304500D01*
X86293140Y-59304500D01*
X86293120Y-59304500D01*
X86289992Y-59304501D01*
X86286860Y-59304820D01*
X86286858Y-59304821D01*
X86187201Y-59315000D01*
X86087782Y-59347945D01*
X86017954Y-59350347D01*
X85957912Y-59314615D01*
X85926720Y-59252094D01*
X85926413Y-59210178D01*
X85944260Y-59101318D01*
X85941985Y-59059365D01*
X85934245Y-58916593D01*
X85923430Y-58877642D01*
X85884754Y-58738341D01*
X85874333Y-58718685D01*
X125415740Y-58718685D01*
X125425754Y-58903407D01*
X125475245Y-59081658D01*
X125561899Y-59245103D01*
X125681663Y-59386100D01*
X125828936Y-59498055D01*
X125996830Y-59575731D01*
X125996831Y-59575731D01*
X125996833Y-59575732D01*
X126177503Y-59615500D01*
X126312754Y-59615500D01*
X126316113Y-59615500D01*
X126453910Y-59600514D01*
X126610336Y-59547806D01*
X126680150Y-59545055D01*
X126740371Y-59580485D01*
X126771877Y-59642848D01*
X126773287Y-59677917D01*
X126771683Y-59693623D01*
X126769500Y-59714991D01*
X126769500Y-59718138D01*
X126769500Y-59718139D01*
X126769500Y-61011859D01*
X126769500Y-61011878D01*
X126769501Y-61015008D01*
X126769820Y-61018140D01*
X126769821Y-61018141D01*
X126780000Y-61117796D01*
X126835186Y-61284334D01*
X126927288Y-61433657D01*
X127051342Y-61557711D01*
X127206120Y-61653178D01*
X127252845Y-61705126D01*
X127264068Y-61774088D01*
X127236225Y-61838170D01*
X127228706Y-61846397D01*
X127081505Y-61993599D01*
X126987278Y-62128170D01*
X126945964Y-62187172D01*
X126846097Y-62401337D01*
X126784936Y-62629592D01*
X126764340Y-62865000D01*
X126784936Y-63100407D01*
X126846097Y-63328663D01*
X126945965Y-63542829D01*
X127081505Y-63736401D01*
X127248599Y-63903495D01*
X127442171Y-64039035D01*
X127656337Y-64138903D01*
X127884592Y-64200063D01*
X128061034Y-64215500D01*
X128063742Y-64215500D01*
X128476258Y-64215500D01*
X128478966Y-64215500D01*
X128655408Y-64200063D01*
X128883663Y-64138903D01*
X129097829Y-64039035D01*
X129291401Y-63903495D01*
X129458495Y-63736401D01*
X129593653Y-63543374D01*
X129648229Y-63499752D01*
X129695227Y-63490500D01*
X134054816Y-63490500D01*
X134121855Y-63510185D01*
X134156391Y-63543377D01*
X134254953Y-63684140D01*
X134415859Y-63845046D01*
X134602264Y-63975567D01*
X134602265Y-63975567D01*
X134602266Y-63975568D01*
X134808504Y-64071739D01*
X135028308Y-64130635D01*
X135255000Y-64150468D01*
X135481692Y-64130635D01*
X135701496Y-64071739D01*
X135907734Y-63975568D01*
X136094139Y-63845047D01*
X136255047Y-63684139D01*
X136385568Y-63497734D01*
X136481739Y-63291496D01*
X136540635Y-63071692D01*
X136560468Y-62845000D01*
X136540635Y-62618308D01*
X136481739Y-62398504D01*
X136385568Y-62192266D01*
X136382002Y-62187172D01*
X136255046Y-62005859D01*
X136094140Y-61844953D01*
X135907738Y-61714434D01*
X135907734Y-61714432D01*
X135892612Y-61707380D01*
X135840176Y-61661211D01*
X135821023Y-61594018D01*
X135841238Y-61527136D01*
X135892612Y-61482619D01*
X135907734Y-61475568D01*
X136094139Y-61345047D01*
X136255047Y-61184139D01*
X136385568Y-60997734D01*
X136481739Y-60791496D01*
X136540635Y-60571692D01*
X136560468Y-60345000D01*
X136557870Y-60315310D01*
X136545273Y-60171325D01*
X136540635Y-60118308D01*
X136481739Y-59898504D01*
X136385568Y-59692266D01*
X136384354Y-59690531D01*
X136255046Y-59505859D01*
X136094140Y-59344953D01*
X135907735Y-59214432D01*
X135701497Y-59118261D01*
X135481689Y-59059364D01*
X135255000Y-59039531D01*
X135028310Y-59059364D01*
X134808502Y-59118261D01*
X134602264Y-59214432D01*
X134415859Y-59344953D01*
X134254953Y-59505859D01*
X134128383Y-59686623D01*
X134073807Y-59730248D01*
X134026808Y-59739500D01*
X129884981Y-59739500D01*
X129817942Y-59719815D01*
X129772187Y-59667011D01*
X129761623Y-59628100D01*
X129759999Y-59612203D01*
X129743890Y-59563590D01*
X129704814Y-59445666D01*
X129638727Y-59338521D01*
X129612711Y-59296342D01*
X129488657Y-59172288D01*
X129339334Y-59080186D01*
X129172797Y-59025000D01*
X129073141Y-59014819D01*
X129073122Y-59014818D01*
X129070009Y-59014500D01*
X129066860Y-59014500D01*
X127473140Y-59014500D01*
X127473120Y-59014500D01*
X127469992Y-59014501D01*
X127466860Y-59014820D01*
X127466858Y-59014821D01*
X127367201Y-59025000D01*
X127267782Y-59057945D01*
X127197954Y-59060347D01*
X127137912Y-59024615D01*
X127106720Y-58962094D01*
X127106413Y-58920178D01*
X127124260Y-58811318D01*
X127114245Y-58626592D01*
X127064754Y-58448341D01*
X126978100Y-58284896D01*
X126863600Y-58150096D01*
X126858337Y-58143900D01*
X126855452Y-58141707D01*
X126711063Y-58031944D01*
X126543169Y-57954268D01*
X126362497Y-57914500D01*
X126223887Y-57914500D01*
X126220552Y-57914862D01*
X126220546Y-57914863D01*
X126086091Y-57929485D01*
X125910779Y-57988556D01*
X125752262Y-58083931D01*
X125617960Y-58211149D01*
X125514140Y-58364272D01*
X125445669Y-58536121D01*
X125430837Y-58626593D01*
X125419083Y-58698295D01*
X125415740Y-58718685D01*
X85874333Y-58718685D01*
X85798100Y-58574896D01*
X85678336Y-58433899D01*
X85531063Y-58321944D01*
X85363169Y-58244268D01*
X85182497Y-58204500D01*
X85043887Y-58204500D01*
X85040552Y-58204862D01*
X85040546Y-58204863D01*
X84906091Y-58219485D01*
X84730779Y-58278556D01*
X84572262Y-58373931D01*
X84437960Y-58501149D01*
X84334140Y-58654272D01*
X84265669Y-58826121D01*
X84235740Y-59008685D01*
X84245754Y-59193407D01*
X84295245Y-59371658D01*
X84381899Y-59535103D01*
X84501663Y-59676100D01*
X84648935Y-59788054D01*
X84659541Y-59792961D01*
X84712119Y-59838976D01*
X84731472Y-59906112D01*
X84711457Y-59973053D01*
X84658428Y-60018547D01*
X84607474Y-60029500D01*
X82302744Y-60029500D01*
X82282237Y-60027235D01*
X82212127Y-60029439D01*
X82208232Y-60029500D01*
X82180650Y-60029500D01*
X82182387Y-60029445D01*
X82114901Y-60014145D01*
X82065930Y-59964309D01*
X82051676Y-59895909D01*
X82076665Y-59830661D01*
X82084637Y-59821219D01*
X82119306Y-59784097D01*
X82137977Y-59773059D01*
X82162786Y-59738913D01*
X82172483Y-59727160D01*
X82186776Y-59711856D01*
X82206692Y-59690531D01*
X82293156Y-59568038D01*
X82310677Y-59554141D01*
X82330553Y-59516760D01*
X82338726Y-59503480D01*
X82365150Y-59466047D01*
X82435590Y-59330104D01*
X82451514Y-59313472D01*
X82466021Y-59273616D01*
X82472446Y-59258977D01*
X82489614Y-59225844D01*
X82489613Y-59225844D01*
X82491566Y-59222077D01*
X82543906Y-59074804D01*
X82557797Y-59055635D01*
X82566626Y-59014097D01*
X82571071Y-58998367D01*
X82583583Y-58963165D01*
X82639488Y-58694136D01*
X82658239Y-58420000D01*
X82639488Y-58145864D01*
X82583583Y-57876835D01*
X82571078Y-57841649D01*
X82566628Y-57825905D01*
X82559465Y-57792208D01*
X82543910Y-57765207D01*
X82491566Y-57617923D01*
X82472447Y-57581025D01*
X82466022Y-57566386D01*
X82454179Y-57533848D01*
X82435591Y-57509897D01*
X82367099Y-57377715D01*
X82365150Y-57373953D01*
X82338739Y-57336537D01*
X82330557Y-57323243D01*
X82314231Y-57292540D01*
X82293156Y-57271961D01*
X82206692Y-57149469D01*
X82172480Y-57112837D01*
X82162787Y-57101087D01*
X82142288Y-57072873D01*
X82119306Y-57055901D01*
X82022030Y-56951744D01*
X82022028Y-56951742D01*
X82019143Y-56948653D01*
X81976891Y-56914278D01*
X81965953Y-56904232D01*
X81941676Y-56879092D01*
X81917365Y-56865850D01*
X81809287Y-56777922D01*
X81809284Y-56777920D01*
X81805995Y-56775244D01*
X81801248Y-56772357D01*
X81755683Y-56744648D01*
X81743772Y-56736415D01*
X81716218Y-56714888D01*
X81691179Y-56705423D01*
X81574839Y-56634675D01*
X81574835Y-56634673D01*
X81571221Y-56632475D01*
X81567341Y-56630789D01*
X81567332Y-56630785D01*
X81513113Y-56607235D01*
X81500514Y-56600888D01*
X81470254Y-56583417D01*
X81445063Y-56577676D01*
X81323080Y-56524691D01*
X81323062Y-56524684D01*
X81319193Y-56523004D01*
X81253806Y-56504683D01*
X81240811Y-56500252D01*
X81208489Y-56487193D01*
X81183695Y-56485038D01*
X81058689Y-56450013D01*
X81058675Y-56450010D01*
X81054606Y-56448870D01*
X81050416Y-56448294D01*
X81050406Y-56448292D01*
X80982776Y-56438997D01*
X80969663Y-56436469D01*
X80935966Y-56428067D01*
X80912071Y-56429278D01*
X80786588Y-56412031D01*
X80786583Y-56412030D01*
X80782388Y-56411454D01*
X80705183Y-56411454D01*
X80692222Y-56410775D01*
X80657891Y-56407166D01*
X80635354Y-56411454D01*
X80507612Y-56411454D01*
X80503417Y-56412030D01*
X80503411Y-56412031D01*
X80426405Y-56422615D01*
X80413849Y-56423694D01*
X80379620Y-56424889D01*
X80358825Y-56431904D01*
X80239591Y-56448293D01*
X80239589Y-56448293D01*
X80235394Y-56448870D01*
X80231330Y-56450008D01*
X80231314Y-56450012D01*
X80151764Y-56472302D01*
X80139841Y-56475016D01*
X80106463Y-56480901D01*
X80087745Y-56490239D01*
X79974875Y-56521864D01*
X79974872Y-56521864D01*
X79970807Y-56523004D01*
X79966935Y-56524685D01*
X79966926Y-56524689D01*
X79886591Y-56559583D01*
X79875510Y-56563779D01*
X79843695Y-56574116D01*
X79827285Y-56585344D01*
X79722662Y-56630788D01*
X79722657Y-56630790D01*
X79718779Y-56632475D01*
X79715167Y-56634671D01*
X79715164Y-56634673D01*
X79659251Y-56668674D01*
X79659008Y-56668738D01*
X79656450Y-56670378D01*
X79635982Y-56682825D01*
X79625912Y-56688327D01*
X79596332Y-56702753D01*
X79582404Y-56715406D01*
X79487625Y-56773042D01*
X79487618Y-56773046D01*
X79484005Y-56775244D01*
X79480718Y-56777918D01*
X79480714Y-56777921D01*
X79427743Y-56821016D01*
X79426691Y-56821457D01*
X79424228Y-56823675D01*
X79419521Y-56827705D01*
X79404788Y-56839692D01*
X79395870Y-56846306D01*
X79369135Y-56864338D01*
X79357763Y-56877949D01*
X79274142Y-56945980D01*
X79274138Y-56945983D01*
X79270857Y-56948653D01*
X79267974Y-56951739D01*
X79267961Y-56951752D01*
X79219373Y-57003777D01*
X79217480Y-57004895D01*
X79212092Y-57011317D01*
X79207730Y-57016243D01*
X79197479Y-57027219D01*
X79189830Y-57034730D01*
X79166453Y-57055779D01*
X79157642Y-57069875D01*
X79086202Y-57146368D01*
X79086187Y-57146385D01*
X79083308Y-57149469D01*
X79080871Y-57152920D01*
X79080868Y-57152925D01*
X79038114Y-57213494D01*
X79035571Y-57215510D01*
X79028776Y-57226384D01*
X79024925Y-57232177D01*
X79018150Y-57241775D01*
X79011837Y-57249971D01*
X78992200Y-57273373D01*
X78985860Y-57287520D01*
X78924850Y-57373953D01*
X78922901Y-57377714D01*
X78922900Y-57377716D01*
X78887430Y-57446168D01*
X78884479Y-57449248D01*
X78877708Y-57464458D01*
X78874524Y-57471076D01*
X78870249Y-57479325D01*
X78865314Y-57487977D01*
X78849699Y-57512966D01*
X78845677Y-57526748D01*
X78800383Y-57614160D01*
X78800378Y-57614170D01*
X78798434Y-57617923D01*
X78797017Y-57621908D01*
X78797013Y-57621919D01*
X78770192Y-57697388D01*
X78767100Y-57701654D01*
X78761581Y-57720901D01*
X78759229Y-57728234D01*
X78756738Y-57735245D01*
X78753174Y-57744165D01*
X78741694Y-57769948D01*
X78739769Y-57782988D01*
X78706417Y-57876835D01*
X78705554Y-57880985D01*
X78705553Y-57880991D01*
X78688645Y-57962356D01*
X78685702Y-57967866D01*
X78682507Y-57990599D01*
X78681122Y-57998559D01*
X78679843Y-58004716D01*
X78677632Y-58013674D01*
X78670259Y-58039386D01*
X78670148Y-58051370D01*
X78650512Y-58145864D01*
X78650223Y-58150088D01*
X78650222Y-58150096D01*
X78644343Y-58236053D01*
X78641845Y-58242814D01*
X78641845Y-58268336D01*
X78641555Y-58276806D01*
X78641167Y-58282473D01*
X78640250Y-58291260D01*
X78636761Y-58316085D01*
X78638138Y-58326768D01*
X78631761Y-58420000D01*
X77470500Y-58420000D01*
X77470500Y-56004500D01*
X77490185Y-55937461D01*
X77542989Y-55891706D01*
X77594500Y-55880500D01*
X150370500Y-55880500D01*
X150437539Y-55900185D01*
G37*
%TD.AperFunction*%
%TD*%
M02*
