%TF.GenerationSoftware,KiCad,Pcbnew,7.0.2*%
%TF.CreationDate,2024-06-06T15:53:54-07:00*%
%TF.ProjectId,argonCartMotorDesignV2,6172676f-6e43-4617-9274-4d6f746f7244,rev?*%
%TF.SameCoordinates,Original*%
%TF.FileFunction,Legend,Bot*%
%TF.FilePolarity,Positive*%
%FSLAX46Y46*%
G04 Gerber Fmt 4.6, Leading zero omitted, Abs format (unit mm)*
G04 Created by KiCad (PCBNEW 7.0.2) date 2024-06-06 15:53:54*
%MOMM*%
%LPD*%
G01*
G04 APERTURE LIST*
%ADD10C,0.150000*%
G04 APERTURE END LIST*
D10*
X123047142Y-56947619D02*
X122809047Y-57947619D01*
X122809047Y-57947619D02*
X122618571Y-57233333D01*
X122618571Y-57233333D02*
X122428095Y-57947619D01*
X122428095Y-57947619D02*
X122190000Y-56947619D01*
X121428095Y-57900000D02*
X121523333Y-57947619D01*
X121523333Y-57947619D02*
X121713809Y-57947619D01*
X121713809Y-57947619D02*
X121809047Y-57900000D01*
X121809047Y-57900000D02*
X121856666Y-57804761D01*
X121856666Y-57804761D02*
X121856666Y-57423809D01*
X121856666Y-57423809D02*
X121809047Y-57328571D01*
X121809047Y-57328571D02*
X121713809Y-57280952D01*
X121713809Y-57280952D02*
X121523333Y-57280952D01*
X121523333Y-57280952D02*
X121428095Y-57328571D01*
X121428095Y-57328571D02*
X121380476Y-57423809D01*
X121380476Y-57423809D02*
X121380476Y-57519047D01*
X121380476Y-57519047D02*
X121856666Y-57614285D01*
X119761428Y-57947619D02*
X119761428Y-57423809D01*
X119761428Y-57423809D02*
X119809047Y-57328571D01*
X119809047Y-57328571D02*
X119904285Y-57280952D01*
X119904285Y-57280952D02*
X120094761Y-57280952D01*
X120094761Y-57280952D02*
X120189999Y-57328571D01*
X119761428Y-57900000D02*
X119856666Y-57947619D01*
X119856666Y-57947619D02*
X120094761Y-57947619D01*
X120094761Y-57947619D02*
X120189999Y-57900000D01*
X120189999Y-57900000D02*
X120237618Y-57804761D01*
X120237618Y-57804761D02*
X120237618Y-57709523D01*
X120237618Y-57709523D02*
X120189999Y-57614285D01*
X120189999Y-57614285D02*
X120094761Y-57566666D01*
X120094761Y-57566666D02*
X119856666Y-57566666D01*
X119856666Y-57566666D02*
X119761428Y-57519047D01*
X119285237Y-57947619D02*
X119285237Y-57280952D01*
X119285237Y-57471428D02*
X119237618Y-57376190D01*
X119237618Y-57376190D02*
X119189999Y-57328571D01*
X119189999Y-57328571D02*
X119094761Y-57280952D01*
X119094761Y-57280952D02*
X118999523Y-57280952D01*
X118285237Y-57900000D02*
X118380475Y-57947619D01*
X118380475Y-57947619D02*
X118570951Y-57947619D01*
X118570951Y-57947619D02*
X118666189Y-57900000D01*
X118666189Y-57900000D02*
X118713808Y-57804761D01*
X118713808Y-57804761D02*
X118713808Y-57423809D01*
X118713808Y-57423809D02*
X118666189Y-57328571D01*
X118666189Y-57328571D02*
X118570951Y-57280952D01*
X118570951Y-57280952D02*
X118380475Y-57280952D01*
X118380475Y-57280952D02*
X118285237Y-57328571D01*
X118285237Y-57328571D02*
X118237618Y-57423809D01*
X118237618Y-57423809D02*
X118237618Y-57519047D01*
X118237618Y-57519047D02*
X118713808Y-57614285D01*
X117047141Y-57947619D02*
X117047141Y-57280952D01*
X117047141Y-57376190D02*
X116999522Y-57328571D01*
X116999522Y-57328571D02*
X116904284Y-57280952D01*
X116904284Y-57280952D02*
X116761427Y-57280952D01*
X116761427Y-57280952D02*
X116666189Y-57328571D01*
X116666189Y-57328571D02*
X116618570Y-57423809D01*
X116618570Y-57423809D02*
X116618570Y-57947619D01*
X116618570Y-57423809D02*
X116570951Y-57328571D01*
X116570951Y-57328571D02*
X116475713Y-57280952D01*
X116475713Y-57280952D02*
X116332856Y-57280952D01*
X116332856Y-57280952D02*
X116237617Y-57328571D01*
X116237617Y-57328571D02*
X116189998Y-57423809D01*
X116189998Y-57423809D02*
X116189998Y-57947619D01*
X115285237Y-57947619D02*
X115285237Y-57423809D01*
X115285237Y-57423809D02*
X115332856Y-57328571D01*
X115332856Y-57328571D02*
X115428094Y-57280952D01*
X115428094Y-57280952D02*
X115618570Y-57280952D01*
X115618570Y-57280952D02*
X115713808Y-57328571D01*
X115285237Y-57900000D02*
X115380475Y-57947619D01*
X115380475Y-57947619D02*
X115618570Y-57947619D01*
X115618570Y-57947619D02*
X115713808Y-57900000D01*
X115713808Y-57900000D02*
X115761427Y-57804761D01*
X115761427Y-57804761D02*
X115761427Y-57709523D01*
X115761427Y-57709523D02*
X115713808Y-57614285D01*
X115713808Y-57614285D02*
X115618570Y-57566666D01*
X115618570Y-57566666D02*
X115380475Y-57566666D01*
X115380475Y-57566666D02*
X115285237Y-57519047D01*
X114809046Y-57947619D02*
X114809046Y-56947619D01*
X114713808Y-57566666D02*
X114428094Y-57947619D01*
X114428094Y-57280952D02*
X114809046Y-57661904D01*
X113999522Y-57947619D02*
X113999522Y-57280952D01*
X113999522Y-56947619D02*
X114047141Y-56995238D01*
X114047141Y-56995238D02*
X113999522Y-57042857D01*
X113999522Y-57042857D02*
X113951903Y-56995238D01*
X113951903Y-56995238D02*
X113999522Y-56947619D01*
X113999522Y-56947619D02*
X113999522Y-57042857D01*
X113523332Y-57280952D02*
X113523332Y-57947619D01*
X113523332Y-57376190D02*
X113475713Y-57328571D01*
X113475713Y-57328571D02*
X113380475Y-57280952D01*
X113380475Y-57280952D02*
X113237618Y-57280952D01*
X113237618Y-57280952D02*
X113142380Y-57328571D01*
X113142380Y-57328571D02*
X113094761Y-57423809D01*
X113094761Y-57423809D02*
X113094761Y-57947619D01*
X112189999Y-57280952D02*
X112189999Y-58090476D01*
X112189999Y-58090476D02*
X112237618Y-58185714D01*
X112237618Y-58185714D02*
X112285237Y-58233333D01*
X112285237Y-58233333D02*
X112380475Y-58280952D01*
X112380475Y-58280952D02*
X112523332Y-58280952D01*
X112523332Y-58280952D02*
X112618570Y-58233333D01*
X112189999Y-57900000D02*
X112285237Y-57947619D01*
X112285237Y-57947619D02*
X112475713Y-57947619D01*
X112475713Y-57947619D02*
X112570951Y-57900000D01*
X112570951Y-57900000D02*
X112618570Y-57852380D01*
X112618570Y-57852380D02*
X112666189Y-57757142D01*
X112666189Y-57757142D02*
X112666189Y-57471428D01*
X112666189Y-57471428D02*
X112618570Y-57376190D01*
X112618570Y-57376190D02*
X112570951Y-57328571D01*
X112570951Y-57328571D02*
X112475713Y-57280952D01*
X112475713Y-57280952D02*
X112285237Y-57280952D01*
X112285237Y-57280952D02*
X112189999Y-57328571D01*
X110523332Y-57947619D02*
X110523332Y-57423809D01*
X110523332Y-57423809D02*
X110570951Y-57328571D01*
X110570951Y-57328571D02*
X110666189Y-57280952D01*
X110666189Y-57280952D02*
X110856665Y-57280952D01*
X110856665Y-57280952D02*
X110951903Y-57328571D01*
X110523332Y-57900000D02*
X110618570Y-57947619D01*
X110618570Y-57947619D02*
X110856665Y-57947619D01*
X110856665Y-57947619D02*
X110951903Y-57900000D01*
X110951903Y-57900000D02*
X110999522Y-57804761D01*
X110999522Y-57804761D02*
X110999522Y-57709523D01*
X110999522Y-57709523D02*
X110951903Y-57614285D01*
X110951903Y-57614285D02*
X110856665Y-57566666D01*
X110856665Y-57566666D02*
X110618570Y-57566666D01*
X110618570Y-57566666D02*
X110523332Y-57519047D01*
X109285236Y-57947619D02*
X109285236Y-56947619D01*
X109285236Y-56947619D02*
X108904284Y-56947619D01*
X108904284Y-56947619D02*
X108809046Y-56995238D01*
X108809046Y-56995238D02*
X108761427Y-57042857D01*
X108761427Y-57042857D02*
X108713808Y-57138095D01*
X108713808Y-57138095D02*
X108713808Y-57280952D01*
X108713808Y-57280952D02*
X108761427Y-57376190D01*
X108761427Y-57376190D02*
X108809046Y-57423809D01*
X108809046Y-57423809D02*
X108904284Y-57471428D01*
X108904284Y-57471428D02*
X109285236Y-57471428D01*
X107713808Y-57852380D02*
X107761427Y-57900000D01*
X107761427Y-57900000D02*
X107904284Y-57947619D01*
X107904284Y-57947619D02*
X107999522Y-57947619D01*
X107999522Y-57947619D02*
X108142379Y-57900000D01*
X108142379Y-57900000D02*
X108237617Y-57804761D01*
X108237617Y-57804761D02*
X108285236Y-57709523D01*
X108285236Y-57709523D02*
X108332855Y-57519047D01*
X108332855Y-57519047D02*
X108332855Y-57376190D01*
X108332855Y-57376190D02*
X108285236Y-57185714D01*
X108285236Y-57185714D02*
X108237617Y-57090476D01*
X108237617Y-57090476D02*
X108142379Y-56995238D01*
X108142379Y-56995238D02*
X107999522Y-56947619D01*
X107999522Y-56947619D02*
X107904284Y-56947619D01*
X107904284Y-56947619D02*
X107761427Y-56995238D01*
X107761427Y-56995238D02*
X107713808Y-57042857D01*
X106951903Y-57423809D02*
X106809046Y-57471428D01*
X106809046Y-57471428D02*
X106761427Y-57519047D01*
X106761427Y-57519047D02*
X106713808Y-57614285D01*
X106713808Y-57614285D02*
X106713808Y-57757142D01*
X106713808Y-57757142D02*
X106761427Y-57852380D01*
X106761427Y-57852380D02*
X106809046Y-57900000D01*
X106809046Y-57900000D02*
X106904284Y-57947619D01*
X106904284Y-57947619D02*
X107285236Y-57947619D01*
X107285236Y-57947619D02*
X107285236Y-56947619D01*
X107285236Y-56947619D02*
X106951903Y-56947619D01*
X106951903Y-56947619D02*
X106856665Y-56995238D01*
X106856665Y-56995238D02*
X106809046Y-57042857D01*
X106809046Y-57042857D02*
X106761427Y-57138095D01*
X106761427Y-57138095D02*
X106761427Y-57233333D01*
X106761427Y-57233333D02*
X106809046Y-57328571D01*
X106809046Y-57328571D02*
X106856665Y-57376190D01*
X106856665Y-57376190D02*
X106951903Y-57423809D01*
X106951903Y-57423809D02*
X107285236Y-57423809D01*
X105094760Y-57280952D02*
X105094760Y-57947619D01*
X105523331Y-57280952D02*
X105523331Y-57804761D01*
X105523331Y-57804761D02*
X105475712Y-57900000D01*
X105475712Y-57900000D02*
X105380474Y-57947619D01*
X105380474Y-57947619D02*
X105237617Y-57947619D01*
X105237617Y-57947619D02*
X105142379Y-57900000D01*
X105142379Y-57900000D02*
X105094760Y-57852380D01*
X104666188Y-57900000D02*
X104570950Y-57947619D01*
X104570950Y-57947619D02*
X104380474Y-57947619D01*
X104380474Y-57947619D02*
X104285236Y-57900000D01*
X104285236Y-57900000D02*
X104237617Y-57804761D01*
X104237617Y-57804761D02*
X104237617Y-57757142D01*
X104237617Y-57757142D02*
X104285236Y-57661904D01*
X104285236Y-57661904D02*
X104380474Y-57614285D01*
X104380474Y-57614285D02*
X104523331Y-57614285D01*
X104523331Y-57614285D02*
X104618569Y-57566666D01*
X104618569Y-57566666D02*
X104666188Y-57471428D01*
X104666188Y-57471428D02*
X104666188Y-57423809D01*
X104666188Y-57423809D02*
X104618569Y-57328571D01*
X104618569Y-57328571D02*
X104523331Y-57280952D01*
X104523331Y-57280952D02*
X104380474Y-57280952D01*
X104380474Y-57280952D02*
X104285236Y-57328571D01*
X103809045Y-57947619D02*
X103809045Y-57280952D01*
X103809045Y-56947619D02*
X103856664Y-56995238D01*
X103856664Y-56995238D02*
X103809045Y-57042857D01*
X103809045Y-57042857D02*
X103761426Y-56995238D01*
X103761426Y-56995238D02*
X103809045Y-56947619D01*
X103809045Y-56947619D02*
X103809045Y-57042857D01*
X103332855Y-57280952D02*
X103332855Y-57947619D01*
X103332855Y-57376190D02*
X103285236Y-57328571D01*
X103285236Y-57328571D02*
X103189998Y-57280952D01*
X103189998Y-57280952D02*
X103047141Y-57280952D01*
X103047141Y-57280952D02*
X102951903Y-57328571D01*
X102951903Y-57328571D02*
X102904284Y-57423809D01*
X102904284Y-57423809D02*
X102904284Y-57947619D01*
X101999522Y-57280952D02*
X101999522Y-58090476D01*
X101999522Y-58090476D02*
X102047141Y-58185714D01*
X102047141Y-58185714D02*
X102094760Y-58233333D01*
X102094760Y-58233333D02*
X102189998Y-58280952D01*
X102189998Y-58280952D02*
X102332855Y-58280952D01*
X102332855Y-58280952D02*
X102428093Y-58233333D01*
X101999522Y-57900000D02*
X102094760Y-57947619D01*
X102094760Y-57947619D02*
X102285236Y-57947619D01*
X102285236Y-57947619D02*
X102380474Y-57900000D01*
X102380474Y-57900000D02*
X102428093Y-57852380D01*
X102428093Y-57852380D02*
X102475712Y-57757142D01*
X102475712Y-57757142D02*
X102475712Y-57471428D01*
X102475712Y-57471428D02*
X102428093Y-57376190D01*
X102428093Y-57376190D02*
X102380474Y-57328571D01*
X102380474Y-57328571D02*
X102285236Y-57280952D01*
X102285236Y-57280952D02*
X102094760Y-57280952D01*
X102094760Y-57280952D02*
X101999522Y-57328571D01*
X100761426Y-57947619D02*
X100761426Y-56947619D01*
X100761426Y-56947619D02*
X100380474Y-56947619D01*
X100380474Y-56947619D02*
X100285236Y-56995238D01*
X100285236Y-56995238D02*
X100237617Y-57042857D01*
X100237617Y-57042857D02*
X100189998Y-57138095D01*
X100189998Y-57138095D02*
X100189998Y-57280952D01*
X100189998Y-57280952D02*
X100237617Y-57376190D01*
X100237617Y-57376190D02*
X100285236Y-57423809D01*
X100285236Y-57423809D02*
X100380474Y-57471428D01*
X100380474Y-57471428D02*
X100761426Y-57471428D01*
X99332855Y-57947619D02*
X99332855Y-57423809D01*
X99332855Y-57423809D02*
X99380474Y-57328571D01*
X99380474Y-57328571D02*
X99475712Y-57280952D01*
X99475712Y-57280952D02*
X99666188Y-57280952D01*
X99666188Y-57280952D02*
X99761426Y-57328571D01*
X99332855Y-57900000D02*
X99428093Y-57947619D01*
X99428093Y-57947619D02*
X99666188Y-57947619D01*
X99666188Y-57947619D02*
X99761426Y-57900000D01*
X99761426Y-57900000D02*
X99809045Y-57804761D01*
X99809045Y-57804761D02*
X99809045Y-57709523D01*
X99809045Y-57709523D02*
X99761426Y-57614285D01*
X99761426Y-57614285D02*
X99666188Y-57566666D01*
X99666188Y-57566666D02*
X99428093Y-57566666D01*
X99428093Y-57566666D02*
X99332855Y-57519047D01*
X98856664Y-57947619D02*
X98856664Y-57280952D01*
X98856664Y-57471428D02*
X98809045Y-57376190D01*
X98809045Y-57376190D02*
X98761426Y-57328571D01*
X98761426Y-57328571D02*
X98666188Y-57280952D01*
X98666188Y-57280952D02*
X98570950Y-57280952D01*
X98380473Y-57280952D02*
X97999521Y-57280952D01*
X98237616Y-56947619D02*
X98237616Y-57804761D01*
X98237616Y-57804761D02*
X98189997Y-57900000D01*
X98189997Y-57900000D02*
X98094759Y-57947619D01*
X98094759Y-57947619D02*
X97999521Y-57947619D01*
X97666187Y-57947619D02*
X97666187Y-57280952D01*
X97666187Y-56947619D02*
X97713806Y-56995238D01*
X97713806Y-56995238D02*
X97666187Y-57042857D01*
X97666187Y-57042857D02*
X97618568Y-56995238D01*
X97618568Y-56995238D02*
X97666187Y-56947619D01*
X97666187Y-56947619D02*
X97666187Y-57042857D01*
X96761426Y-57900000D02*
X96856664Y-57947619D01*
X96856664Y-57947619D02*
X97047140Y-57947619D01*
X97047140Y-57947619D02*
X97142378Y-57900000D01*
X97142378Y-57900000D02*
X97189997Y-57852380D01*
X97189997Y-57852380D02*
X97237616Y-57757142D01*
X97237616Y-57757142D02*
X97237616Y-57471428D01*
X97237616Y-57471428D02*
X97189997Y-57376190D01*
X97189997Y-57376190D02*
X97142378Y-57328571D01*
X97142378Y-57328571D02*
X97047140Y-57280952D01*
X97047140Y-57280952D02*
X96856664Y-57280952D01*
X96856664Y-57280952D02*
X96761426Y-57328571D01*
X96189997Y-57947619D02*
X96285235Y-57900000D01*
X96285235Y-57900000D02*
X96332854Y-57804761D01*
X96332854Y-57804761D02*
X96332854Y-56947619D01*
X95428092Y-57900000D02*
X95523330Y-57947619D01*
X95523330Y-57947619D02*
X95713806Y-57947619D01*
X95713806Y-57947619D02*
X95809044Y-57900000D01*
X95809044Y-57900000D02*
X95856663Y-57804761D01*
X95856663Y-57804761D02*
X95856663Y-57423809D01*
X95856663Y-57423809D02*
X95809044Y-57328571D01*
X95809044Y-57328571D02*
X95713806Y-57280952D01*
X95713806Y-57280952D02*
X95523330Y-57280952D01*
X95523330Y-57280952D02*
X95428092Y-57328571D01*
X95428092Y-57328571D02*
X95380473Y-57423809D01*
X95380473Y-57423809D02*
X95380473Y-57519047D01*
X95380473Y-57519047D02*
X95856663Y-57614285D01*
X94237615Y-57661904D02*
X93761425Y-57661904D01*
X94332853Y-57947619D02*
X93999520Y-56947619D01*
X93999520Y-56947619D02*
X93666187Y-57947619D01*
X93332853Y-57947619D02*
X93332853Y-57280952D01*
X93332853Y-57471428D02*
X93285234Y-57376190D01*
X93285234Y-57376190D02*
X93237615Y-57328571D01*
X93237615Y-57328571D02*
X93142377Y-57280952D01*
X93142377Y-57280952D02*
X93047139Y-57280952D01*
X92285234Y-57280952D02*
X92285234Y-58090476D01*
X92285234Y-58090476D02*
X92332853Y-58185714D01*
X92332853Y-58185714D02*
X92380472Y-58233333D01*
X92380472Y-58233333D02*
X92475710Y-58280952D01*
X92475710Y-58280952D02*
X92618567Y-58280952D01*
X92618567Y-58280952D02*
X92713805Y-58233333D01*
X92285234Y-57900000D02*
X92380472Y-57947619D01*
X92380472Y-57947619D02*
X92570948Y-57947619D01*
X92570948Y-57947619D02*
X92666186Y-57900000D01*
X92666186Y-57900000D02*
X92713805Y-57852380D01*
X92713805Y-57852380D02*
X92761424Y-57757142D01*
X92761424Y-57757142D02*
X92761424Y-57471428D01*
X92761424Y-57471428D02*
X92713805Y-57376190D01*
X92713805Y-57376190D02*
X92666186Y-57328571D01*
X92666186Y-57328571D02*
X92570948Y-57280952D01*
X92570948Y-57280952D02*
X92380472Y-57280952D01*
X92380472Y-57280952D02*
X92285234Y-57328571D01*
X91666186Y-57947619D02*
X91761424Y-57900000D01*
X91761424Y-57900000D02*
X91809043Y-57852380D01*
X91809043Y-57852380D02*
X91856662Y-57757142D01*
X91856662Y-57757142D02*
X91856662Y-57471428D01*
X91856662Y-57471428D02*
X91809043Y-57376190D01*
X91809043Y-57376190D02*
X91761424Y-57328571D01*
X91761424Y-57328571D02*
X91666186Y-57280952D01*
X91666186Y-57280952D02*
X91523329Y-57280952D01*
X91523329Y-57280952D02*
X91428091Y-57328571D01*
X91428091Y-57328571D02*
X91380472Y-57376190D01*
X91380472Y-57376190D02*
X91332853Y-57471428D01*
X91332853Y-57471428D02*
X91332853Y-57757142D01*
X91332853Y-57757142D02*
X91380472Y-57852380D01*
X91380472Y-57852380D02*
X91428091Y-57900000D01*
X91428091Y-57900000D02*
X91523329Y-57947619D01*
X91523329Y-57947619D02*
X91666186Y-57947619D01*
X90904281Y-57280952D02*
X90904281Y-57947619D01*
X90904281Y-57376190D02*
X90856662Y-57328571D01*
X90856662Y-57328571D02*
X90761424Y-57280952D01*
X90761424Y-57280952D02*
X90618567Y-57280952D01*
X90618567Y-57280952D02*
X90523329Y-57328571D01*
X90523329Y-57328571D02*
X90475710Y-57423809D01*
X90475710Y-57423809D02*
X90475710Y-57947619D01*
X122523333Y-59567619D02*
X122523333Y-59043809D01*
X122523333Y-59043809D02*
X122570952Y-58948571D01*
X122570952Y-58948571D02*
X122666190Y-58900952D01*
X122666190Y-58900952D02*
X122856666Y-58900952D01*
X122856666Y-58900952D02*
X122951904Y-58948571D01*
X122523333Y-59520000D02*
X122618571Y-59567619D01*
X122618571Y-59567619D02*
X122856666Y-59567619D01*
X122856666Y-59567619D02*
X122951904Y-59520000D01*
X122951904Y-59520000D02*
X122999523Y-59424761D01*
X122999523Y-59424761D02*
X122999523Y-59329523D01*
X122999523Y-59329523D02*
X122951904Y-59234285D01*
X122951904Y-59234285D02*
X122856666Y-59186666D01*
X122856666Y-59186666D02*
X122618571Y-59186666D01*
X122618571Y-59186666D02*
X122523333Y-59139047D01*
X122047142Y-58900952D02*
X122047142Y-59567619D01*
X122047142Y-58996190D02*
X121999523Y-58948571D01*
X121999523Y-58948571D02*
X121904285Y-58900952D01*
X121904285Y-58900952D02*
X121761428Y-58900952D01*
X121761428Y-58900952D02*
X121666190Y-58948571D01*
X121666190Y-58948571D02*
X121618571Y-59043809D01*
X121618571Y-59043809D02*
X121618571Y-59567619D01*
X120713809Y-59567619D02*
X120713809Y-58567619D01*
X120713809Y-59520000D02*
X120809047Y-59567619D01*
X120809047Y-59567619D02*
X120999523Y-59567619D01*
X120999523Y-59567619D02*
X121094761Y-59520000D01*
X121094761Y-59520000D02*
X121142380Y-59472380D01*
X121142380Y-59472380D02*
X121189999Y-59377142D01*
X121189999Y-59377142D02*
X121189999Y-59091428D01*
X121189999Y-59091428D02*
X121142380Y-58996190D01*
X121142380Y-58996190D02*
X121094761Y-58948571D01*
X121094761Y-58948571D02*
X120999523Y-58900952D01*
X120999523Y-58900952D02*
X120809047Y-58900952D01*
X120809047Y-58900952D02*
X120713809Y-58948571D01*
X119523332Y-59281904D02*
X119047142Y-59281904D01*
X119618570Y-59567619D02*
X119285237Y-58567619D01*
X119285237Y-58567619D02*
X118951904Y-59567619D01*
X118618570Y-59567619D02*
X118618570Y-58567619D01*
X118618570Y-58567619D02*
X118237618Y-58567619D01*
X118237618Y-58567619D02*
X118142380Y-58615238D01*
X118142380Y-58615238D02*
X118094761Y-58662857D01*
X118094761Y-58662857D02*
X118047142Y-58758095D01*
X118047142Y-58758095D02*
X118047142Y-58900952D01*
X118047142Y-58900952D02*
X118094761Y-58996190D01*
X118094761Y-58996190D02*
X118142380Y-59043809D01*
X118142380Y-59043809D02*
X118237618Y-59091428D01*
X118237618Y-59091428D02*
X118618570Y-59091428D01*
X117618570Y-59567619D02*
X117618570Y-58567619D01*
X115951904Y-59520000D02*
X116047142Y-59567619D01*
X116047142Y-59567619D02*
X116237618Y-59567619D01*
X116237618Y-59567619D02*
X116332856Y-59520000D01*
X116332856Y-59520000D02*
X116380475Y-59472380D01*
X116380475Y-59472380D02*
X116428094Y-59377142D01*
X116428094Y-59377142D02*
X116428094Y-59091428D01*
X116428094Y-59091428D02*
X116380475Y-58996190D01*
X116380475Y-58996190D02*
X116332856Y-58948571D01*
X116332856Y-58948571D02*
X116237618Y-58900952D01*
X116237618Y-58900952D02*
X116047142Y-58900952D01*
X116047142Y-58900952D02*
X115951904Y-58948571D01*
X115380475Y-59567619D02*
X115475713Y-59520000D01*
X115475713Y-59520000D02*
X115523332Y-59472380D01*
X115523332Y-59472380D02*
X115570951Y-59377142D01*
X115570951Y-59377142D02*
X115570951Y-59091428D01*
X115570951Y-59091428D02*
X115523332Y-58996190D01*
X115523332Y-58996190D02*
X115475713Y-58948571D01*
X115475713Y-58948571D02*
X115380475Y-58900952D01*
X115380475Y-58900952D02*
X115237618Y-58900952D01*
X115237618Y-58900952D02*
X115142380Y-58948571D01*
X115142380Y-58948571D02*
X115094761Y-58996190D01*
X115094761Y-58996190D02*
X115047142Y-59091428D01*
X115047142Y-59091428D02*
X115047142Y-59377142D01*
X115047142Y-59377142D02*
X115094761Y-59472380D01*
X115094761Y-59472380D02*
X115142380Y-59520000D01*
X115142380Y-59520000D02*
X115237618Y-59567619D01*
X115237618Y-59567619D02*
X115380475Y-59567619D01*
X114618570Y-58900952D02*
X114618570Y-59567619D01*
X114618570Y-58996190D02*
X114570951Y-58948571D01*
X114570951Y-58948571D02*
X114475713Y-58900952D01*
X114475713Y-58900952D02*
X114332856Y-58900952D01*
X114332856Y-58900952D02*
X114237618Y-58948571D01*
X114237618Y-58948571D02*
X114189999Y-59043809D01*
X114189999Y-59043809D02*
X114189999Y-59567619D01*
X113713808Y-58900952D02*
X113713808Y-59567619D01*
X113713808Y-58996190D02*
X113666189Y-58948571D01*
X113666189Y-58948571D02*
X113570951Y-58900952D01*
X113570951Y-58900952D02*
X113428094Y-58900952D01*
X113428094Y-58900952D02*
X113332856Y-58948571D01*
X113332856Y-58948571D02*
X113285237Y-59043809D01*
X113285237Y-59043809D02*
X113285237Y-59567619D01*
X112428094Y-59520000D02*
X112523332Y-59567619D01*
X112523332Y-59567619D02*
X112713808Y-59567619D01*
X112713808Y-59567619D02*
X112809046Y-59520000D01*
X112809046Y-59520000D02*
X112856665Y-59424761D01*
X112856665Y-59424761D02*
X112856665Y-59043809D01*
X112856665Y-59043809D02*
X112809046Y-58948571D01*
X112809046Y-58948571D02*
X112713808Y-58900952D01*
X112713808Y-58900952D02*
X112523332Y-58900952D01*
X112523332Y-58900952D02*
X112428094Y-58948571D01*
X112428094Y-58948571D02*
X112380475Y-59043809D01*
X112380475Y-59043809D02*
X112380475Y-59139047D01*
X112380475Y-59139047D02*
X112856665Y-59234285D01*
X111523332Y-59520000D02*
X111618570Y-59567619D01*
X111618570Y-59567619D02*
X111809046Y-59567619D01*
X111809046Y-59567619D02*
X111904284Y-59520000D01*
X111904284Y-59520000D02*
X111951903Y-59472380D01*
X111951903Y-59472380D02*
X111999522Y-59377142D01*
X111999522Y-59377142D02*
X111999522Y-59091428D01*
X111999522Y-59091428D02*
X111951903Y-58996190D01*
X111951903Y-58996190D02*
X111904284Y-58948571D01*
X111904284Y-58948571D02*
X111809046Y-58900952D01*
X111809046Y-58900952D02*
X111618570Y-58900952D01*
X111618570Y-58900952D02*
X111523332Y-58948571D01*
X111237617Y-58900952D02*
X110856665Y-58900952D01*
X111094760Y-58567619D02*
X111094760Y-59424761D01*
X111094760Y-59424761D02*
X111047141Y-59520000D01*
X111047141Y-59520000D02*
X110951903Y-59567619D01*
X110951903Y-59567619D02*
X110856665Y-59567619D01*
X110523331Y-59567619D02*
X110523331Y-58900952D01*
X110523331Y-58567619D02*
X110570950Y-58615238D01*
X110570950Y-58615238D02*
X110523331Y-58662857D01*
X110523331Y-58662857D02*
X110475712Y-58615238D01*
X110475712Y-58615238D02*
X110523331Y-58567619D01*
X110523331Y-58567619D02*
X110523331Y-58662857D01*
X110142379Y-58900952D02*
X109904284Y-59567619D01*
X109904284Y-59567619D02*
X109666189Y-58900952D01*
X109285236Y-59567619D02*
X109285236Y-58900952D01*
X109285236Y-58567619D02*
X109332855Y-58615238D01*
X109332855Y-58615238D02*
X109285236Y-58662857D01*
X109285236Y-58662857D02*
X109237617Y-58615238D01*
X109237617Y-58615238D02*
X109285236Y-58567619D01*
X109285236Y-58567619D02*
X109285236Y-58662857D01*
X108951903Y-58900952D02*
X108570951Y-58900952D01*
X108809046Y-58567619D02*
X108809046Y-59424761D01*
X108809046Y-59424761D02*
X108761427Y-59520000D01*
X108761427Y-59520000D02*
X108666189Y-59567619D01*
X108666189Y-59567619D02*
X108570951Y-59567619D01*
X108332855Y-58900952D02*
X108094760Y-59567619D01*
X107856665Y-58900952D02*
X108094760Y-59567619D01*
X108094760Y-59567619D02*
X108189998Y-59805714D01*
X108189998Y-59805714D02*
X108237617Y-59853333D01*
X108237617Y-59853333D02*
X108332855Y-59900952D01*
M02*
