M48
; DRILL file {KiCad 7.0.2} date Thu Jun  6 15:55:00 2024
; FORMAT={-:-/ absolute / inch / decimal}
; #@! TF.CreationDate,2024-06-06T15:55:00-07:00
; #@! TF.GenerationSoftware,Kicad,Pcbnew,7.0.2
; #@! TF.FileFunction,Plated,1,2,PTH
FMAT,2
INCH
; #@! TA.AperFunction,Plated,PTH,ViaDrill
T1C0.0157
; #@! TA.AperFunction,Plated,PTH,ComponentDrill
T2C0.0300
; #@! TA.AperFunction,Plated,PTH,ComponentDrill
T3C0.0315
; #@! TA.AperFunction,Plated,PTH,ComponentDrill
T4C0.0394
; #@! TA.AperFunction,Plated,PTH,ComponentDrill
T5C0.0539
%
G90
G05
T1
X4.25Y-3.35
T2
X3.825Y-2.5
X3.825Y-2.6
X3.825Y-2.7
X3.825Y-2.8
X3.825Y-2.9
X3.825Y-3.0
X3.825Y-3.1
X3.825Y-3.2
X3.825Y-3.3
X3.825Y-3.4
X3.825Y-3.5
X3.825Y-3.6
X3.825Y-3.7
X3.825Y-3.8
X3.825Y-3.9
X3.825Y-4.0
X4.625Y-2.9
X4.625Y-3.0
X4.625Y-3.1
X4.625Y-3.2
X4.625Y-3.3
X4.625Y-3.4
X4.625Y-3.5
X4.625Y-3.6
X4.625Y-3.7
X4.625Y-3.8
X4.625Y-3.9
X4.625Y-4.0
T3
X3.275Y-2.825
X3.275Y-2.925
X3.275Y-3.025
X3.275Y-3.125
X3.275Y-3.225
X3.275Y-3.325
X3.275Y-3.425
X3.275Y-3.525
X3.575Y-2.825
X3.575Y-2.925
X3.575Y-3.025
X3.575Y-3.125
X3.575Y-3.225
X3.575Y-3.325
X3.575Y-3.425
X3.575Y-3.525
X3.675Y-4.0508
X3.675Y-4.1492
X3.7Y-2.3758
X3.7Y-2.4742
X4.875Y-2.8
X4.875Y-2.9
X4.875Y-3.0
X4.875Y-3.1
X4.875Y-3.2
X4.875Y-3.3
X4.875Y-3.4
X4.875Y-3.5
X5.175Y-2.8
X5.175Y-2.9
X5.175Y-3.0
X5.175Y-3.1
X5.175Y-3.2
X5.175Y-3.3
X5.175Y-3.4
X5.175Y-3.5
X5.325Y-2.3758
X5.325Y-2.4742
X5.35Y-3.9016
X5.35Y-4.0
X5.525Y-2.425
X5.5266Y-3.775
X5.7219Y-2.425
X5.7234Y-3.775
T4
X3.4Y-3.9
X3.4Y-3.9984
X3.4287Y-2.388
X3.4287Y-2.4864
X5.0Y-3.875
X5.0Y-3.9734
X5.05Y-2.3766
X5.05Y-2.475
X5.525Y-2.7766
X5.525Y-2.875
T5
X5.5Y-3.1246
X5.5Y-3.225
X5.5Y-3.3254
T0
M30
